Dewey-SemiBoldOpMed.ufo
<glyph name="numbersign" format="1">
  <advance width="606"/>
  <unicode hex="0023"/>
  <outline>
    <contour>
      <point x="196" y="311" type="curve" smooth="yes"/>
      <point x="173" y="107"/>
      <point x="133" y="73"/>
      <point x="135" y="30" type="curve" smooth="yes"/>
      <point x="136" y="2"/>
      <point x="154" y="-16"/>
      <point x="181" y="-16" type="curve" smooth="yes"/>
      <point x="200" y="-16"/>
      <point x="226" y="-6"/>
      <point x="230" y="28" type="curve" smooth="yes"/>
      <point x="235" y="68"/>
      <point x="215" y="105"/>
      <point x="239" y="311" type="curve" smooth="yes"/>
      <point x="261" y="512"/>
      <point x="299" y="548"/>
      <point x="297" y="592" type="curve" smooth="yes"/>
      <point x="296" y="620"/>
      <point x="279" y="637"/>
      <point x="254" y="637" type="curve" smooth="yes"/>
      <point x="226" y="637"/>
      <point x="205" y="624"/>
      <point x="200" y="590" type="curve" smooth="yes"/>
      <point x="194" y="542"/>
      <point x="222" y="539"/>
    </contour>
    <contour>
      <point x="373" y="311" type="curve" smooth="yes"/>
      <point x="352" y="108"/>
      <point x="309" y="73"/>
      <point x="311" y="30" type="curve" smooth="yes"/>
      <point x="312" y="2"/>
      <point x="332" y="-16"/>
      <point x="357" y="-16" type="curve" smooth="yes"/>
      <point x="377" y="-16"/>
      <point x="403" y="-6"/>
      <point x="407" y="28" type="curve" smooth="yes"/>
      <point x="412" y="68"/>
      <point x="393" y="106"/>
      <point x="416" y="311" type="curve" smooth="yes"/>
      <point x="438" y="512"/>
      <point x="476" y="548"/>
      <point x="474" y="592" type="curve" smooth="yes"/>
      <point x="473" y="620"/>
      <point x="456" y="637"/>
      <point x="432" y="637" type="curve" smooth="yes"/>
      <point x="401" y="637"/>
      <point x="383" y="624"/>
      <point x="378" y="590" type="curve" smooth="yes"/>
      <point x="371" y="543"/>
      <point x="397" y="529"/>
    </contour>
    <contour>
      <point x="308" y="373" type="curve" smooth="yes"/>
      <point x="457" y="373"/>
      <point x="487" y="348"/>
      <point x="521" y="348" type="curve" smooth="yes"/>
      <point x="558" y="348"/>
      <point x="575" y="373"/>
      <point x="575" y="397" type="curve" smooth="yes"/>
      <point x="575" y="419"/>
      <point x="559" y="440"/>
      <point x="525" y="440" type="curve" smooth="yes"/>
      <point x="493" y="440"/>
      <point x="460" y="414"/>
      <point x="308" y="415" type="curve" smooth="yes"/>
      <point x="161" y="415"/>
      <point x="129" y="441"/>
      <point x="96" y="441" type="curve" smooth="yes"/>
      <point x="59" y="441"/>
      <point x="43" y="421"/>
      <point x="43" y="398" type="curve" smooth="yes"/>
      <point x="43" y="370"/>
      <point x="60" y="351"/>
      <point x="97" y="350" type="curve" smooth="yes"/>
      <point x="129" y="349"/>
      <point x="161" y="373"/>
    </contour>
    <contour>
      <point x="296" y="204" type="curve" smooth="yes"/>
      <point x="445" y="204"/>
      <point x="475" y="180"/>
      <point x="509" y="180" type="curve" smooth="yes"/>
      <point x="546" y="180"/>
      <point x="563" y="204"/>
      <point x="563" y="229" type="curve" smooth="yes"/>
      <point x="563" y="250"/>
      <point x="547" y="272"/>
      <point x="512" y="272" type="curve" smooth="yes"/>
      <point x="481" y="272"/>
      <point x="449" y="246"/>
      <point x="296" y="247" type="curve" smooth="yes"/>
      <point x="149" y="247"/>
      <point x="117" y="273"/>
      <point x="83" y="273" type="curve" smooth="yes"/>
      <point x="47" y="273"/>
      <point x="31" y="252"/>
      <point x="31" y="230" type="curve" smooth="yes"/>
      <point x="31" y="202"/>
      <point x="48" y="183"/>
      <point x="84" y="182" type="curve" smooth="yes"/>
      <point x="117" y="181"/>
      <point x="148" y="204"/>
    </contour>
  </outline>
</glyph>
<glyph name="dollar" format="1">
  <advance width="519"/>
  <unicode hex="0024"/>
  <outline>
    <contour>
      <point x="263" y="0" type="curve" smooth="yes"/>
      <point x="396" y="0"/>
      <point x="475" y="82"/>
      <point x="475" y="180" type="curve" smooth="yes"/>
      <point x="475" y="243"/>
      <point x="428" y="302"/>
      <point x="300" y="349" type="curve" smooth="yes"/>
      <point x="184" y="388"/>
      <point x="145" y="428"/>
      <point x="145" y="482" type="curve" smooth="yes"/>
      <point x="145" y="539"/>
      <point x="195" y="574"/>
      <point x="256" y="574" type="curve" smooth="yes"/>
      <point x="320" y="574"/>
      <point x="360" y="544"/>
      <point x="360" y="506" type="curve" smooth="yes"/>
      <point x="360" y="480" type="line" smooth="yes"/>
      <point x="360" y="446"/>
      <point x="386" y="422"/>
      <point x="416" y="422" type="curve" smooth="yes"/>
      <point x="446" y="422"/>
      <point x="472" y="449"/>
      <point x="472" y="483" type="curve" smooth="yes"/>
      <point x="472" y="563"/>
      <point x="388" y="629"/>
      <point x="283" y="629" type="curve" smooth="yes"/>
      <point x="145" y="629"/>
      <point x="52" y="547"/>
      <point x="52" y="450" type="curve" smooth="yes"/>
      <point x="52" y="367"/>
      <point x="106" y="310"/>
      <point x="230" y="268" type="curve" smooth="yes"/>
      <point x="344" y="226"/>
      <point x="381" y="192"/>
      <point x="381" y="145" type="curve" smooth="yes"/>
      <point x="381" y="88"/>
      <point x="343" y="55"/>
      <point x="289" y="55" type="curve" smooth="yes"/>
      <point x="210" y="55"/>
      <point x="161" y="88"/>
      <point x="161" y="133" type="curve" smooth="yes"/>
      <point x="161" y="159" type="line" smooth="yes"/>
      <point x="161" y="194"/>
      <point x="136" y="217"/>
      <point x="106" y="217" type="curve" smooth="yes"/>
      <point x="76" y="217"/>
      <point x="51" y="191"/>
      <point x="51" y="156" type="curve" smooth="yes"/>
      <point x="51" y="71"/>
      <point x="147" y="0"/>
    </contour>
    <contour>
      <point x="247" y="325" type="line"/>
      <point x="247" y="71"/>
      <point x="230" y="18"/>
      <point x="230" y="-31" type="curve" smooth="yes"/>
      <point x="230" y="-60"/>
      <point x="248" y="-73"/>
      <point x="267" y="-73" type="curve" smooth="yes"/>
      <point x="288" y="-73"/>
      <point x="302" y="-59"/>
      <point x="303" y="-31" type="curve" smooth="yes"/>
      <point x="304" y="18"/>
      <point x="286" y="69"/>
      <point x="286" y="325" type="curve"/>
    </contour>
    <contour>
      <point x="284" y="341" type="line"/>
      <point x="284" y="574"/>
      <point x="302" y="618"/>
      <point x="302" y="665" type="curve" smooth="yes"/>
      <point x="302" y="693"/>
      <point x="282" y="707"/>
      <point x="264" y="707" type="curve" smooth="yes"/>
      <point x="245" y="707"/>
      <point x="228" y="694"/>
      <point x="228" y="667" type="curve" smooth="yes"/>
      <point x="228" y="624"/>
      <point x="247" y="578"/>
      <point x="246" y="341" type="curve"/>
    </contour>
  </outline>
</glyph>
<glyph name="ampersand" format="1">
  <advance width="673"/>
  <unicode hex="0026"/>
  <outline>
    <contour>
      <point x="285" y="630" type="curve" smooth="yes"/>
      <point x="232" y="630"/>
      <point x="198" y="584"/>
      <point x="198" y="523" type="curve" smooth="yes"/>
      <point x="198" y="457"/>
      <point x="229" y="404"/>
      <point x="277" y="383" type="curve" smooth="yes"/>
      <point x="339" y="357"/>
      <point x="370" y="333"/>
      <point x="416" y="279" type="curve" smooth="yes"/>
      <point x="576" y="95" type="line" smooth="yes"/>
      <point x="594" y="74"/>
      <point x="609" y="56"/>
      <point x="638" y="51" type="curve" smooth="yes"/>
      <point x="663" y="45"/>
      <point x="673" y="39"/>
      <point x="673" y="23" type="curve" smooth="yes"/>
      <point x="673" y="7"/>
      <point x="661" y="-1"/>
      <point x="639" y="-1" type="curve" smooth="yes"/>
      <point x="553" y="-1" type="line" smooth="yes"/>
      <point x="521" y="-1"/>
      <point x="502" y="11"/>
      <point x="483" y="34" type="curve" smooth="yes"/>
      <point x="316" y="230" type="line" smooth="yes"/>
      <point x="276" y="277"/>
      <point x="251" y="301"/>
      <point x="198" y="324" type="curve" smooth="yes"/>
      <point x="134" y="350"/>
      <point x="93" y="411"/>
      <point x="93" y="488" type="curve" smooth="yes"/>
      <point x="93" y="594"/>
      <point x="185" y="678"/>
      <point x="304" y="678" type="curve" smooth="yes"/>
      <point x="412" y="678"/>
      <point x="477" y="618"/>
      <point x="477" y="530" type="curve" smooth="yes"/>
      <point x="477" y="442"/>
      <point x="416" y="383"/>
      <point x="286" y="340" type="curve"/>
      <point x="266" y="366" type="line"/>
      <point x="339" y="403"/>
      <point x="370" y="449"/>
      <point x="370" y="517" type="curve" smooth="yes"/>
      <point x="370" y="588"/>
      <point x="327" y="630"/>
    </contour>
    <contour>
      <point x="245" y="317" type="line"/>
      <point x="187" y="314"/>
      <point x="132" y="254"/>
      <point x="132" y="190" type="curve" smooth="yes"/>
      <point x="132" y="112"/>
      <point x="195" y="63"/>
      <point x="299" y="63" type="curve" smooth="yes"/>
      <point x="352" y="63"/>
      <point x="401" y="83"/>
      <point x="431" y="127" type="curve"/>
      <point x="464" y="99" type="line"/>
      <point x="396" y="14"/>
      <point x="326" y="-15"/>
      <point x="230" y="-15" type="curve" smooth="yes"/>
      <point x="99" y="-15"/>
      <point x="28" y="65"/>
      <point x="28" y="159" type="curve" smooth="yes"/>
      <point x="28" y="260"/>
      <point x="124" y="341"/>
      <point x="245" y="341" type="curve"/>
    </contour>
    <contour>
      <point x="480" y="181" type="line"/>
      <point x="516" y="241" type="line" smooth="yes"/>
      <point x="526" y="257"/>
      <point x="534" y="271"/>
      <point x="534" y="287" type="curve" smooth="yes"/>
      <point x="534" y="304"/>
      <point x="527" y="310"/>
      <point x="514" y="317" type="curve" smooth="yes"/>
      <point x="500" y="325" type="line" smooth="yes"/>
      <point x="482" y="334"/>
      <point x="474" y="339"/>
      <point x="474" y="352" type="curve" smooth="yes"/>
      <point x="474" y="368"/>
      <point x="485" y="372"/>
      <point x="503" y="372" type="curve" smooth="yes"/>
      <point x="644" y="372" type="line" smooth="yes"/>
      <point x="661" y="372"/>
      <point x="674" y="365"/>
      <point x="674" y="349" type="curve" smooth="yes"/>
      <point x="674" y="337"/>
      <point x="662" y="330"/>
      <point x="645" y="322" type="curve" smooth="yes"/>
      <point x="620" y="313"/>
      <point x="603" y="293"/>
      <point x="581" y="260" type="curve" smooth="yes"/>
      <point x="512" y="155" type="line"/>
    </contour>
  </outline>
</glyph>
<glyph name="parenleft" format="1">
  <advance width="401"/>
  <unicode hex="0028"/>
  <outline>
    <contour>
      <point x="85" y="288" type="curve" smooth="yes"/>
      <point x="85" y="55"/>
      <point x="211" y="-118"/>
      <point x="352" y="-169" type="curve" smooth="yes"/>
      <point x="360" y="-171"/>
      <point x="367" y="-172"/>
      <point x="372" y="-172" type="curve" smooth="yes"/>
      <point x="383" y="-172"/>
      <point x="390" y="-163"/>
      <point x="390" y="-151" type="curve" smooth="yes"/>
      <point x="390" y="-144"/>
      <point x="387" y="-135"/>
      <point x="375" y="-131" type="curve" smooth="yes"/>
      <point x="262" y="-78"/>
      <point x="192" y="74"/>
      <point x="192" y="288" type="curve" smooth="yes"/>
      <point x="192" y="503"/>
      <point x="263" y="655"/>
      <point x="375" y="707" type="curve" smooth="yes"/>
      <point x="387" y="712"/>
      <point x="390" y="720"/>
      <point x="390" y="728" type="curve" smooth="yes"/>
      <point x="390" y="739"/>
      <point x="383" y="749"/>
      <point x="372" y="749" type="curve" smooth="yes"/>
      <point x="367" y="749"/>
      <point x="362" y="747"/>
      <point x="353" y="744" type="curve" smooth="yes"/>
      <point x="208" y="689"/>
      <point x="85" y="514"/>
    </contour>
  </outline>
</glyph>
<glyph name="asterisk" format="1">
  <advance width="506"/>
  <unicode hex="002A"/>
  <outline>
    <contour>
      <point x="267" y="516" type="line"/>
      <point x="267" y="593"/>
      <point x="309" y="613"/>
      <point x="309" y="668" type="curve" smooth="yes"/>
      <point x="309" y="711"/>
      <point x="281" y="730"/>
      <point x="252" y="730" type="curve" smooth="yes"/>
      <point x="225" y="730"/>
      <point x="200" y="711"/>
      <point x="199" y="672" type="curve" smooth="yes"/>
      <point x="198" y="617"/>
      <point x="240" y="595"/>
      <point x="240" y="516" type="curve"/>
    </contour>
    <contour>
      <point x="258" y="529" type="line"/>
      <point x="185" y="553"/>
      <point x="178" y="599"/>
      <point x="126" y="616" type="curve" smooth="yes"/>
      <point x="86" y="629"/>
      <point x="58" y="608"/>
      <point x="49" y="581" type="curve" smooth="yes"/>
      <point x="41" y="555"/>
      <point x="52" y="525"/>
      <point x="88" y="512" type="curve" smooth="yes"/>
      <point x="140" y="494"/>
      <point x="175" y="528"/>
      <point x="250" y="504" type="curve"/>
    </contour>
    <contour>
      <point x="242" y="524" type="line"/>
      <point x="197" y="462"/>
      <point x="151" y="470"/>
      <point x="119" y="426" type="curve" smooth="yes"/>
      <point x="94" y="391"/>
      <point x="106" y="359"/>
      <point x="129" y="342" type="curve" smooth="yes"/>
      <point x="150" y="327"/>
      <point x="183" y="327"/>
      <point x="206" y="357" type="curve" smooth="yes"/>
      <point x="239" y="402"/>
      <point x="217" y="445"/>
      <point x="264" y="509" type="curve"/>
    </contour>
    <contour>
      <point x="242" y="508" type="line"/>
      <point x="287" y="446"/>
      <point x="265" y="404"/>
      <point x="297" y="360" type="curve" smooth="yes"/>
      <point x="323" y="325"/>
      <point x="357" y="327"/>
      <point x="381" y="343" type="curve" smooth="yes"/>
      <point x="401" y="359"/>
      <point x="411" y="390"/>
      <point x="389" y="422" type="curve" smooth="yes"/>
      <point x="358" y="467"/>
      <point x="310" y="460"/>
      <point x="264" y="523" type="curve"/>
    </contour>
    <contour>
      <point x="258" y="503" type="line"/>
      <point x="330" y="526"/>
      <point x="363" y="493"/>
      <point x="415" y="510" type="curve" smooth="yes"/>
      <point x="456" y="523"/>
      <point x="465" y="556"/>
      <point x="456" y="583" type="curve" smooth="yes"/>
      <point x="449" y="609"/>
      <point x="422" y="627"/>
      <point x="385" y="616" type="curve" smooth="yes"/>
      <point x="332" y="600"/>
      <point x="325" y="553"/>
      <point x="250" y="528" type="curve"/>
    </contour>
  </outline>
</glyph>
<glyph name="plus" format="1">
  <advance width="498"/>
  <unicode hex="002B"/>
  <outline>
    <contour>
      <point x="44" y="303" type="curve" smooth="yes"/>
      <point x="44" y="281"/>
      <point x="64" y="265"/>
      <point x="86" y="265" type="curve" smooth="yes"/>
      <point x="143" y="265"/>
      <point x="210" y="279"/>
      <point x="252" y="279" type="curve" smooth="yes"/>
      <point x="295" y="279"/>
      <point x="359" y="265"/>
      <point x="412" y="265" type="curve" smooth="yes"/>
      <point x="438" y="265"/>
      <point x="454" y="281"/>
      <point x="454" y="303" type="curve" smooth="yes"/>
      <point x="454" y="326"/>
      <point x="437" y="343"/>
      <point x="412" y="343" type="curve" smooth="yes"/>
      <point x="359" y="343"/>
      <point x="295" y="329"/>
      <point x="252" y="329" type="curve" smooth="yes"/>
      <point x="203" y="329"/>
      <point x="143" y="343"/>
      <point x="87" y="343" type="curve" smooth="yes"/>
      <point x="66" y="343"/>
      <point x="44" y="326"/>
    </contour>
    <contour>
      <point x="253" y="97" type="curve" smooth="yes"/>
      <point x="275" y="97"/>
      <point x="291" y="117"/>
      <point x="291" y="139" type="curve" smooth="yes"/>
      <point x="291" y="196"/>
      <point x="277" y="263"/>
      <point x="277" y="305" type="curve" smooth="yes"/>
      <point x="277" y="348"/>
      <point x="291" y="412"/>
      <point x="291" y="465" type="curve" smooth="yes"/>
      <point x="291" y="491"/>
      <point x="275" y="507"/>
      <point x="253" y="507" type="curve" smooth="yes"/>
      <point x="230" y="507"/>
      <point x="213" y="490"/>
      <point x="213" y="465" type="curve" smooth="yes"/>
      <point x="213" y="412"/>
      <point x="227" y="348"/>
      <point x="227" y="305" type="curve" smooth="yes"/>
      <point x="227" y="256"/>
      <point x="213" y="196"/>
      <point x="213" y="140" type="curve" smooth="yes"/>
      <point x="213" y="119"/>
      <point x="230" y="97"/>
    </contour>
  </outline>
</glyph>
<glyph name="comma" format="1">
  <advance width="288"/>
  <unicode hex="002C"/>
  <outline>
    <contour>
      <point x="121" y="-15" type="curve" smooth="yes"/>
      <point x="142" y="-18" type="line" smooth="yes"/>
      <point x="159" y="-20"/>
      <point x="166" y="-30"/>
      <point x="166" y="-49" type="curve" smooth="yes"/>
      <point x="166" y="-105"/>
      <point x="138" y="-137"/>
      <point x="93" y="-147" type="curve" smooth="yes"/>
      <point x="70" y="-152"/>
      <point x="62" y="-162"/>
      <point x="62" y="-176" type="curve" smooth="yes"/>
      <point x="62" y="-192"/>
      <point x="74" y="-204"/>
      <point x="95" y="-204" type="curve" smooth="yes"/>
      <point x="162" y="-204"/>
      <point x="237" y="-132"/>
      <point x="237" y="-4" type="curve" smooth="yes"/>
      <point x="237" y="88"/>
      <point x="192" y="131"/>
      <point x="135" y="131" type="curve" smooth="yes"/>
      <point x="93" y="131"/>
      <point x="58" y="99"/>
      <point x="58" y="59" type="curve" smooth="yes"/>
      <point x="58" y="19"/>
      <point x="83" y="-11"/>
    </contour>
  </outline>
</glyph>
<glyph name="hyphen" format="1">
  <advance width="399"/>
  <unicode hex="002D"/>
  <outline>
    <contour>
      <point x="327" y="285" type="curve" smooth="yes"/>
      <point x="97" y="285" type="line" smooth="yes"/>
      <point x="77" y="285"/>
      <point x="65" y="278"/>
      <point x="55" y="257" type="curve" smooth="yes"/>
      <point x="49" y="244" type="line" smooth="yes"/>
      <point x="45" y="235"/>
      <point x="44" y="229"/>
      <point x="44" y="224" type="curve" smooth="yes"/>
      <point x="44" y="209"/>
      <point x="54" y="201"/>
      <point x="71" y="201" type="curve" smooth="yes"/>
      <point x="301" y="201" type="line" smooth="yes"/>
      <point x="323" y="201"/>
      <point x="336" y="209"/>
      <point x="345" y="229" type="curve" smooth="yes"/>
      <point x="351" y="243" type="line" smooth="yes"/>
      <point x="354" y="252"/>
      <point x="356" y="257"/>
      <point x="356" y="263" type="curve" smooth="yes"/>
      <point x="356" y="277"/>
      <point x="343" y="285"/>
    </contour>
  </outline>
</glyph>
<glyph name="period" format="1">
  <advance width="206"/>
  <unicode hex="002E"/>
  <outline>
    <contour>
      <point x="107" y="-10" type="curve" smooth="yes"/>
      <point x="143" y="-10"/>
      <point x="171" y="19"/>
      <point x="171" y="55" type="curve" smooth="yes"/>
      <point x="171" y="90"/>
      <point x="143" y="118"/>
      <point x="107" y="118" type="curve" smooth="yes"/>
      <point x="71" y="118"/>
      <point x="43" y="90"/>
      <point x="43" y="55" type="curve" smooth="yes"/>
      <point x="43" y="19"/>
      <point x="71" y="-10"/>
    </contour>
  </outline>
</glyph>
<glyph name="zero" format="1">
  <advance width="600"/>
  <unicode hex="0030"/>
  <outline>
    <contour>
      <point x="296" y="655" type="curve" smooth="yes"/>
      <point x="141" y="655"/>
      <point x="41" y="529"/>
      <point x="41" y="330" type="curve" smooth="yes"/>
      <point x="41" y="108"/>
      <point x="133" y="-15"/>
      <point x="296" y="-15" type="curve" smooth="yes"/>
      <point x="448" y="-15"/>
      <point x="559" y="105"/>
      <point x="559" y="330" type="curve" smooth="yes"/>
      <point x="559" y="532"/>
      <point x="454" y="655"/>
    </contour>
    <contour>
      <point x="430" y="289" type="curve" smooth="yes"/>
      <point x="430" y="109"/>
      <point x="379" y="42"/>
      <point x="311" y="42" type="curve" smooth="yes"/>
      <point x="218" y="42"/>
      <point x="168" y="136"/>
      <point x="168" y="364" type="curve" smooth="yes"/>
      <point x="168" y="514"/>
      <point x="208" y="597"/>
      <point x="284" y="597" type="curve" smooth="yes"/>
      <point x="376" y="597"/>
      <point x="430" y="502"/>
    </contour>
  </outline>
</glyph>
<glyph name="one" format="1">
  <advance width="448"/>
  <unicode hex="0031"/>
  <outline>
    <contour>
      <point x="78" y="550" type="line" smooth="yes"/>
      <point x="56" y="550"/>
      <point x="46" y="562"/>
      <point x="46" y="578" type="curve" smooth="yes"/>
      <point x="46" y="593"/>
      <point x="60" y="606"/>
      <point x="82" y="606" type="curve" smooth="yes"/>
      <point x="121" y="606" type="line" smooth="yes"/>
      <point x="164" y="606"/>
      <point x="195" y="610"/>
      <point x="223" y="636" type="curve" smooth="yes"/>
      <point x="235" y="649"/>
      <point x="247" y="655"/>
      <point x="264" y="655" type="curve" smooth="yes"/>
      <point x="283" y="655"/>
      <point x="295" y="645"/>
      <point x="295" y="620" type="curve" smooth="yes"/>
      <point x="295" y="116" type="line" smooth="yes"/>
      <point x="295" y="84"/>
      <point x="315" y="61"/>
      <point x="344" y="58" type="curve" smooth="yes"/>
      <point x="393" y="54" type="line" smooth="yes"/>
      <point x="412" y="53"/>
      <point x="425" y="44"/>
      <point x="425" y="29" type="curve" smooth="yes"/>
      <point x="425" y="9"/>
      <point x="414" y="0"/>
      <point x="393" y="0" type="curve" smooth="yes"/>
      <point x="70" y="0" type="line" smooth="yes"/>
      <point x="49" y="0"/>
      <point x="37" y="9"/>
      <point x="37" y="29" type="curve" smooth="yes"/>
      <point x="37" y="46"/>
      <point x="49" y="55"/>
      <point x="71" y="57" type="curve" smooth="yes"/>
      <point x="117" y="61" type="line" smooth="yes"/>
      <point x="150" y="64"/>
      <point x="176" y="83"/>
      <point x="176" y="116" type="curve" smooth="yes"/>
      <point x="176" y="487" type="line" smooth="yes"/>
      <point x="176" y="532"/>
      <point x="155" y="550"/>
      <point x="120" y="550" type="curve" smooth="yes"/>
    </contour>
  </outline>
</glyph>
<glyph name="two" format="1">
  <advance width="535"/>
  <unicode hex="0032"/>
  <outline>
    <contour>
      <point x="217" y="280" type="curve" smooth="yes"/>
      <point x="83" y="200"/>
      <point x="37" y="109"/>
      <point x="37" y="28" type="curve" smooth="yes"/>
      <point x="37" y="1"/>
      <point x="53" y="-15"/>
      <point x="81" y="-15" type="curve" smooth="yes"/>
      <point x="115" y="-15"/>
      <point x="120" y="21"/>
      <point x="169" y="21" type="curve" smooth="yes"/>
      <point x="203" y="21"/>
      <point x="282" y="-15"/>
      <point x="367" y="-15" type="curve" smooth="yes"/>
      <point x="458" y="-15"/>
      <point x="500" y="43"/>
      <point x="500" y="124" type="curve" smooth="yes"/>
      <point x="500" y="143"/>
      <point x="494" y="160"/>
      <point x="477" y="160" type="curve" smooth="yes"/>
      <point x="465" y="160"/>
      <point x="457" y="154"/>
      <point x="447" y="134" type="curve" smooth="yes"/>
      <point x="433" y="102"/>
      <point x="415" y="94"/>
      <point x="371" y="94" type="curve" smooth="yes"/>
      <point x="320" y="94"/>
      <point x="242" y="120"/>
      <point x="202" y="120" type="curve" smooth="yes"/>
      <point x="120" y="120"/>
      <point x="83" y="80"/>
      <point x="83" y="39" type="curve"/>
      <point x="109" y="40" type="line"/>
      <point x="109" y="119"/>
      <point x="150" y="171"/>
      <point x="292" y="252" type="curve" smooth="yes"/>
      <point x="420" y="325"/>
      <point x="477" y="384"/>
      <point x="477" y="483" type="curve" smooth="yes"/>
      <point x="477" y="581"/>
      <point x="404" y="654"/>
      <point x="286" y="654" type="curve" smooth="yes"/>
      <point x="142" y="654"/>
      <point x="52" y="559"/>
      <point x="52" y="485" type="curve" smooth="yes"/>
      <point x="52" y="439"/>
      <point x="76" y="412"/>
      <point x="115" y="412" type="curve" smooth="yes"/>
      <point x="148" y="412"/>
      <point x="181" y="442"/>
      <point x="181" y="486" type="curve" smooth="yes"/>
      <point x="181" y="523" type="line" smooth="yes"/>
      <point x="181" y="566"/>
      <point x="203" y="596"/>
      <point x="254" y="596" type="curve" smooth="yes"/>
      <point x="308" y="596"/>
      <point x="355" y="555"/>
      <point x="355" y="476" type="curve" smooth="yes"/>
      <point x="355" y="391"/>
      <point x="317" y="341"/>
    </contour>
  </outline>
</glyph>
<glyph name="three" format="1">
  <advance width="518"/>
  <unicode hex="0033"/>
  <outline>
    <contour>
      <point x="253" y="331" type="line"/>
      <point x="457" y="563" type="line" smooth="yes"/>
      <point x="474" y="581"/>
      <point x="479" y="594"/>
      <point x="479" y="606" type="curve" smooth="yes"/>
      <point x="479" y="626"/>
      <point x="461" y="639"/>
      <point x="441" y="639" type="curve" smooth="yes"/>
      <point x="118" y="639" type="line" smooth="yes"/>
      <point x="89" y="639"/>
      <point x="73" y="619"/>
      <point x="70" y="590" type="curve" smooth="yes"/>
      <point x="60" y="484" type="line" smooth="yes"/>
      <point x="58" y="464"/>
      <point x="70" y="454"/>
      <point x="84" y="454" type="curve" smooth="yes"/>
      <point x="101" y="454"/>
      <point x="112" y="468"/>
      <point x="120" y="482" type="curve" smooth="yes"/>
      <point x="135" y="511" type="line" smooth="yes"/>
      <point x="149" y="537"/>
      <point x="168" y="546"/>
      <point x="198" y="546" type="curve" smooth="yes"/>
      <point x="394" y="546" type="line"/>
      <point x="385" y="576" type="line"/>
      <point x="187" y="353" type="line" smooth="yes"/>
      <point x="179" y="344"/>
      <point x="173" y="334"/>
      <point x="173" y="323" type="curve" smooth="yes"/>
      <point x="173" y="307"/>
      <point x="186" y="296"/>
      <point x="203" y="296" type="curve" smooth="yes"/>
      <point x="239" y="296" type="line" smooth="yes"/>
      <point x="316" y="296"/>
      <point x="368" y="251"/>
      <point x="368" y="160" type="curve" smooth="yes"/>
      <point x="368" y="88"/>
      <point x="328" y="40"/>
      <point x="270" y="39" type="curve" smooth="yes"/>
      <point x="215" y="38"/>
      <point x="178" y="68"/>
      <point x="178" y="106" type="curve" smooth="yes"/>
      <point x="178" y="136" type="line" smooth="yes"/>
      <point x="178" y="177"/>
      <point x="148" y="206"/>
      <point x="112" y="206" type="curve" smooth="yes"/>
      <point x="75" y="206"/>
      <point x="44" y="176"/>
      <point x="44" y="136" type="curve" smooth="yes"/>
      <point x="44" y="53"/>
      <point x="117" y="-15"/>
      <point x="246" y="-15" type="curve" smooth="yes"/>
      <point x="380" y="-15"/>
      <point x="480" y="65"/>
      <point x="480" y="191" type="curve" smooth="yes"/>
      <point x="480" y="302"/>
      <point x="393" y="355"/>
      <point x="259" y="355" type="curve" smooth="yes"/>
      <point x="256" y="355"/>
      <point x="240" y="355"/>
      <point x="236" y="355" type="curve"/>
    </contour>
  </outline>
</glyph>
<glyph name="four" format="1">
  <advance width="526"/>
  <unicode hex="0034"/>
  <outline>
    <contour>
      <point x="288" y="331" type="curve" smooth="yes"/>
      <point x="289" y="109" type="line" smooth="yes"/>
      <point x="289" y="81"/>
      <point x="277" y="67"/>
      <point x="251" y="61" type="curve" smooth="yes"/>
      <point x="211" y="54" type="line" smooth="yes"/>
      <point x="188" y="49"/>
      <point x="176" y="43"/>
      <point x="176" y="25" type="curve" smooth="yes"/>
      <point x="176" y="7"/>
      <point x="186" y="0"/>
      <point x="211" y="0" type="curve" smooth="yes"/>
      <point x="464" y="0" type="line" smooth="yes"/>
      <point x="488" y="0"/>
      <point x="499" y="7"/>
      <point x="499" y="25" type="curve" smooth="yes"/>
      <point x="499" y="43"/>
      <point x="487" y="51"/>
      <point x="466" y="54" type="curve" smooth="yes"/>
      <point x="439" y="59" type="line" smooth="yes"/>
      <point x="414" y="62"/>
      <point x="401" y="78"/>
      <point x="401" y="106" type="curve" smooth="yes"/>
      <point x="400" y="424" type="line" smooth="yes"/>
      <point x="400" y="439"/>
      <point x="392" y="445"/>
      <point x="380" y="445" type="curve" smooth="yes"/>
      <point x="370" y="445"/>
      <point x="359" y="442"/>
      <point x="347" y="426" type="curve" smooth="yes"/>
      <point x="310" y="377" type="line" smooth="yes"/>
      <point x="298" y="361"/>
      <point x="288" y="349"/>
    </contour>
    <contour>
      <point x="165" y="406" type="curve" smooth="yes"/>
      <point x="41" y="251" type="line" smooth="yes"/>
      <point x="21" y="226"/>
      <point x="18" y="209"/>
      <point x="18" y="197" type="curve" smooth="yes"/>
      <point x="18" y="174"/>
      <point x="32" y="161"/>
      <point x="58" y="161" type="curve" smooth="yes"/>
      <point x="467" y="161" type="line" smooth="yes"/>
      <point x="491" y="161"/>
      <point x="503" y="171"/>
      <point x="502" y="195" type="curve" smooth="yes"/>
      <point x="501" y="213"/>
      <point x="487" y="221"/>
      <point x="467" y="221" type="curve" smooth="yes"/>
      <point x="62" y="221" type="line"/>
      <point x="74" y="192" type="line"/>
      <point x="273" y="446" type="line" smooth="yes"/>
      <point x="319" y="504"/>
      <point x="337" y="537"/>
      <point x="337" y="576" type="curve" smooth="yes"/>
      <point x="337" y="623"/>
      <point x="305" y="655"/>
      <point x="263" y="655" type="curve" smooth="yes"/>
      <point x="211" y="655"/>
      <point x="181" y="620"/>
      <point x="181" y="583" type="curve" smooth="yes"/>
      <point x="181" y="546"/>
      <point x="203" y="534"/>
      <point x="203" y="499" type="curve" smooth="yes"/>
      <point x="203" y="462"/>
      <point x="188" y="435"/>
    </contour>
  </outline>
</glyph>
<glyph name="five" format="1">
  <advance width="526"/>
  <unicode hex="0035"/>
  <outline>
    <contour>
      <point x="48" y="128" type="curve" smooth="yes"/>
      <point x="48" y="50"/>
      <point x="128" y="-15"/>
      <point x="232" y="-15" type="curve" smooth="yes"/>
      <point x="374" y="-15"/>
      <point x="483" y="74"/>
      <point x="483" y="208" type="curve" smooth="yes"/>
      <point x="483" y="321"/>
      <point x="398" y="396"/>
      <point x="270" y="396" type="curve" smooth="yes"/>
      <point x="204" y="396"/>
      <point x="148" y="370"/>
      <point x="108" y="310" type="curve"/>
      <point x="144" y="306" type="line"/>
      <point x="144" y="586" type="line"/>
      <point x="108" y="568" type="line"/>
      <point x="142" y="517"/>
      <point x="211" y="477"/>
      <point x="298" y="477" type="curve" smooth="yes"/>
      <point x="412" y="477"/>
      <point x="480" y="545"/>
      <point x="480" y="632" type="curve" smooth="yes"/>
      <point x="480" y="648"/>
      <point x="469" y="655"/>
      <point x="456" y="655" type="curve" smooth="yes"/>
      <point x="442" y="655"/>
      <point x="431" y="646"/>
      <point x="423" y="628" type="curve" smooth="yes"/>
      <point x="407" y="595"/>
      <point x="380" y="577"/>
      <point x="341" y="577" type="curve" smooth="yes"/>
      <point x="266" y="577"/>
      <point x="199" y="654"/>
      <point x="136" y="654" type="curve" smooth="yes"/>
      <point x="96" y="654"/>
      <point x="79" y="632"/>
      <point x="79" y="595" type="curve" smooth="yes"/>
      <point x="79" y="294" type="line" smooth="yes"/>
      <point x="79" y="276"/>
      <point x="94" y="261"/>
      <point x="111" y="261" type="curve" smooth="yes"/>
      <point x="126" y="261"/>
      <point x="140" y="269"/>
      <point x="154" y="288" type="curve" smooth="yes"/>
      <point x="179" y="320"/>
      <point x="207" y="332"/>
      <point x="240" y="332" type="curve" smooth="yes"/>
      <point x="316" y="332"/>
      <point x="360" y="278"/>
      <point x="360" y="179" type="curve" smooth="yes"/>
      <point x="360" y="92"/>
      <point x="315" y="43"/>
      <point x="252" y="43" type="curve" smooth="yes"/>
      <point x="208" y="43"/>
      <point x="182" y="69"/>
      <point x="182" y="98" type="curve" smooth="yes"/>
      <point x="182" y="128" type="line" smooth="yes"/>
      <point x="182" y="171"/>
      <point x="153" y="200"/>
      <point x="117" y="200" type="curve" smooth="yes"/>
      <point x="79" y="200"/>
      <point x="48" y="169"/>
    </contour>
  </outline>
</glyph>
<glyph name="six" format="1">
  <advance width="560"/>
  <unicode hex="0036"/>
  <outline>
    <contour>
      <point x="328" y="654" type="curve" smooth="yes"/>
      <point x="170" y="654"/>
      <point x="50" y="549"/>
      <point x="50" y="290" type="curve" smooth="yes"/>
      <point x="50" y="80"/>
      <point x="146" y="-15"/>
      <point x="274" y="-15" type="curve" smooth="yes"/>
      <point x="415" y="-15"/>
      <point x="520" y="86"/>
      <point x="520" y="217" type="curve" smooth="yes"/>
      <point x="520" y="339"/>
      <point x="449" y="408"/>
      <point x="346" y="408" type="curve" smooth="yes"/>
      <point x="231" y="408"/>
      <point x="138" y="324"/>
      <point x="138" y="224" type="curve"/>
      <point x="174" y="209" type="line"/>
      <point x="174" y="283"/>
      <point x="230" y="336"/>
      <point x="300" y="336" type="curve" smooth="yes"/>
      <point x="359" y="336"/>
      <point x="408" y="285"/>
      <point x="408" y="183" type="curve" smooth="yes"/>
      <point x="408" y="98"/>
      <point x="366" y="51"/>
      <point x="298" y="51" type="curve" smooth="yes"/>
      <point x="228" y="51"/>
      <point x="170" y="110"/>
      <point x="170" y="309" type="curve" smooth="yes"/>
      <point x="170" y="528"/>
      <point x="235" y="598"/>
      <point x="304" y="598" type="curve" smooth="yes"/>
      <point x="347" y="598"/>
      <point x="371" y="572"/>
      <point x="371" y="545" type="curve" smooth="yes"/>
      <point x="371" y="529" type="line" smooth="yes"/>
      <point x="371" y="483"/>
      <point x="403" y="457"/>
      <point x="440" y="457" type="curve" smooth="yes"/>
      <point x="480" y="457"/>
      <point x="507" y="483"/>
      <point x="507" y="526" type="curve" smooth="yes"/>
      <point x="507" y="593"/>
      <point x="444" y="654"/>
    </contour>
  </outline>
</glyph>
<glyph name="seven" format="1">
  <advance width="466"/>
  <unicode hex="0037"/>
  <outline>
    <contour>
      <point x="374" y="546" type="curve" smooth="yes"/>
      <point x="306" y="455" type="line" smooth="yes"/>
      <point x="152" y="248"/>
      <point x="143" y="160"/>
      <point x="143" y="86" type="curve" smooth="yes"/>
      <point x="143" y="23"/>
      <point x="176" y="-15"/>
      <point x="227" y="-15" type="curve" smooth="yes"/>
      <point x="283" y="-15"/>
      <point x="312" y="19"/>
      <point x="312" y="58" type="curve" smooth="yes"/>
      <point x="312" y="103"/>
      <point x="271" y="132"/>
      <point x="271" y="188" type="curve" smooth="yes"/>
      <point x="271" y="255"/>
      <point x="280" y="327"/>
      <point x="347" y="421" type="curve" smooth="yes"/>
      <point x="424" y="525" type="line" smooth="yes"/>
      <point x="450" y="561"/>
      <point x="455" y="579"/>
      <point x="455" y="601" type="curve" smooth="yes"/>
      <point x="455" y="624"/>
      <point x="438" y="639"/>
      <point x="412" y="639" type="curve" smooth="yes"/>
      <point x="83" y="639" type="line" smooth="yes"/>
      <point x="56" y="639"/>
      <point x="41" y="619"/>
      <point x="38" y="590" type="curve" smooth="yes"/>
      <point x="28" y="481" type="line" smooth="yes"/>
      <point x="26" y="459"/>
      <point x="38" y="447"/>
      <point x="52" y="447" type="curve" smooth="yes"/>
      <point x="70" y="447"/>
      <point x="82" y="461"/>
      <point x="90" y="477" type="curve" smooth="yes"/>
      <point x="106" y="510" type="line" smooth="yes"/>
      <point x="118" y="535"/>
      <point x="137" y="544"/>
      <point x="165" y="544" type="curve" smooth="yes"/>
      <point x="405" y="544" type="line"/>
      <point x="396" y="606" type="line"/>
      <point x="396" y="588"/>
      <point x="391" y="569"/>
    </contour>
  </outline>
</glyph>
<glyph name="eight" format="1">
  <advance width="537"/>
  <unicode hex="0038"/>
  <outline>
    <contour>
      <point x="258" y="-15" type="curve" smooth="yes"/>
      <point x="388" y="-15"/>
      <point x="485" y="56"/>
      <point x="485" y="157" type="curve" smooth="yes"/>
      <point x="485" y="230"/>
      <point x="437" y="295"/>
      <point x="310" y="342" type="curve" smooth="yes"/>
      <point x="189" y="384"/>
      <point x="155" y="433"/>
      <point x="155" y="495" type="curve" smooth="yes"/>
      <point x="155" y="550"/>
      <point x="195" y="590"/>
      <point x="264" y="590" type="curve" smooth="yes"/>
      <point x="329" y="590"/>
      <point x="374" y="548"/>
      <point x="374" y="478" type="curve" smooth="yes"/>
      <point x="374" y="422"/>
      <point x="343" y="359"/>
      <point x="293" y="329" type="curve"/>
      <point x="309" y="307" type="line"/>
      <point x="410" y="331"/>
      <point x="485" y="412"/>
      <point x="485" y="492" type="curve" smooth="yes"/>
      <point x="485" y="581"/>
      <point x="410" y="655"/>
      <point x="288" y="655" type="curve" smooth="yes"/>
      <point x="144" y="655"/>
      <point x="48" y="567"/>
      <point x="48" y="463" type="curve" smooth="yes"/>
      <point x="48" y="368"/>
      <point x="107" y="306"/>
      <point x="237" y="258" type="curve" smooth="yes"/>
      <point x="344" y="218"/>
      <point x="374" y="184"/>
      <point x="374" y="130" type="curve" smooth="yes"/>
      <point x="374" y="76"/>
      <point x="342" y="45"/>
      <point x="276" y="45" type="curve" smooth="yes"/>
      <point x="205" y="45"/>
      <point x="165" y="90"/>
      <point x="165" y="158" type="curve" smooth="yes"/>
      <point x="165" y="202"/>
      <point x="184" y="246"/>
      <point x="234" y="283" type="curve"/>
      <point x="221" y="297" type="line"/>
      <point x="122" y="278"/>
      <point x="57" y="223"/>
      <point x="57" y="140" type="curve" smooth="yes"/>
      <point x="57" y="48"/>
      <point x="124" y="-15"/>
    </contour>
  </outline>
</glyph>
<glyph name="less" format="1">
  <advance width="521"/>
  <unicode hex="003C"/>
  <outline>
    <contour>
      <point x="470" y="120" type="curve" smooth="yes"/>
      <point x="470" y="144"/>
      <point x="452" y="167"/>
      <point x="412" y="186" type="curve" smooth="yes"/>
      <point x="332" y="228"/>
      <point x="212" y="274"/>
      <point x="83" y="311" type="curve"/>
      <point x="83" y="295" type="line"/>
      <point x="212" y="332"/>
      <point x="332" y="377"/>
      <point x="415" y="421" type="curve" smooth="yes"/>
      <point x="453" y="441"/>
      <point x="470" y="462"/>
      <point x="470" y="484" type="curve" smooth="yes"/>
      <point x="470" y="505"/>
      <point x="458" y="521"/>
      <point x="439" y="521" type="curve" smooth="yes"/>
      <point x="423" y="521"/>
      <point x="404" y="513"/>
      <point x="384" y="498" type="curve" smooth="yes"/>
      <point x="327" y="458"/>
      <point x="187" y="387"/>
      <point x="68" y="343" type="curve" smooth="yes"/>
      <point x="42" y="333"/>
      <point x="34" y="318"/>
      <point x="34" y="303" type="curve" smooth="yes"/>
      <point x="34" y="288"/>
      <point x="42" y="273"/>
      <point x="68" y="263" type="curve" smooth="yes"/>
      <point x="187" y="220"/>
      <point x="329" y="149"/>
      <point x="384" y="108" type="curve" smooth="yes"/>
      <point x="404" y="92"/>
      <point x="423" y="85"/>
      <point x="436" y="85" type="curve" smooth="yes"/>
      <point x="457" y="85"/>
      <point x="470" y="100"/>
    </contour>
  </outline>
</glyph>
<glyph name="question" format="1">
  <advance width="468"/>
  <unicode hex="003F"/>
  <outline>
    <contour>
      <point x="163" y="289" type="line" smooth="yes"/>
      <point x="162" y="296"/>
      <point x="162" y="298"/>
      <point x="162" y="302" type="curve" smooth="yes"/>
      <point x="162" y="319"/>
      <point x="172" y="335"/>
      <point x="193" y="347" type="curve" smooth="yes"/>
      <point x="242" y="375" type="line" smooth="yes"/>
      <point x="299" y="407"/>
      <point x="326" y="455"/>
      <point x="326" y="526" type="curve" smooth="yes"/>
      <point x="326" y="616"/>
      <point x="282" y="660"/>
      <point x="215" y="660" type="curve" smooth="yes"/>
      <point x="175" y="660"/>
      <point x="153" y="644"/>
      <point x="153" y="609" type="curve" smooth="yes"/>
      <point x="153" y="567" type="line" smooth="yes"/>
      <point x="153" y="531"/>
      <point x="124" y="503"/>
      <point x="88" y="503" type="curve" smooth="yes"/>
      <point x="54" y="503"/>
      <point x="32" y="527"/>
      <point x="32" y="570" type="curve" smooth="yes"/>
      <point x="32" y="641"/>
      <point x="127" y="715"/>
      <point x="246" y="715" type="curve" smooth="yes"/>
      <point x="372" y="715"/>
      <point x="444" y="656"/>
      <point x="444" y="544" type="curve" smooth="yes"/>
      <point x="444" y="441"/>
      <point x="386" y="372"/>
      <point x="290" y="331" type="curve" smooth="yes"/>
      <point x="268" y="322" type="line" smooth="yes"/>
      <point x="248" y="315"/>
      <point x="239" y="299"/>
      <point x="236" y="275" type="curve" smooth="yes"/>
      <point x="230" y="228" type="line" smooth="yes"/>
      <point x="227" y="206"/>
      <point x="218" y="196"/>
      <point x="200" y="196" type="curve" smooth="yes"/>
      <point x="182" y="196"/>
      <point x="174" y="211"/>
      <point x="171" y="231" type="curve" smooth="yes"/>
    </contour>
    <component base="period" xScale="0.9543051643425" yScale="0.9543051643425" xOffset="72" yOffset="1"/>
  </outline>
</glyph>
<glyph name="at" format="1">
  <advance width="778"/>
  <unicode hex="0040"/>
  <outline>
    <contour>
      <point x="483" y="236" type="curve"/>
      <point x="481" y="269" type="line"/>
      <point x="456" y="278"/>
      <point x="433" y="285"/>
      <point x="397" y="285" type="curve" smooth="yes"/>
      <point x="293" y="285"/>
      <point x="240" y="242"/>
      <point x="240" y="185" type="curve" smooth="yes"/>
      <point x="240" y="127"/>
      <point x="287" y="89"/>
      <point x="358" y="89" type="curve" smooth="yes"/>
      <point x="411" y="89"/>
      <point x="463" y="113"/>
      <point x="494" y="155" type="curve"/>
      <point x="472" y="186" type="line"/>
      <point x="456" y="157"/>
      <point x="425" y="145"/>
      <point x="392" y="145" type="curve" smooth="yes"/>
      <point x="357" y="145"/>
      <point x="332" y="164"/>
      <point x="332" y="195" type="curve" smooth="yes"/>
      <point x="332" y="224"/>
      <point x="354" y="247"/>
      <point x="396" y="247" type="curve" smooth="yes"/>
      <point x="431" y="247"/>
      <point x="457" y="243"/>
    </contour>
    <contour>
      <point x="262" y="364" type="curve" smooth="yes"/>
      <point x="262" y="336"/>
      <point x="281" y="317"/>
      <point x="305" y="317" type="curve" smooth="yes"/>
      <point x="337" y="317"/>
      <point x="357" y="340"/>
      <point x="357" y="370" type="curve" smooth="yes"/>
      <point x="357" y="389" type="line" smooth="yes"/>
      <point x="357" y="413"/>
      <point x="374" y="423"/>
      <point x="398" y="423" type="curve" smooth="yes"/>
      <point x="433" y="423"/>
      <point x="458" y="398"/>
      <point x="458" y="329" type="curve" smooth="yes"/>
      <point x="458" y="194" type="line" smooth="yes"/>
      <point x="458" y="118"/>
      <point x="509" y="89"/>
      <point x="565" y="89" type="curve" smooth="yes"/>
      <point x="658" y="89"/>
      <point x="730" y="167"/>
      <point x="730" y="301" type="curve" smooth="yes"/>
      <point x="730" y="487"/>
      <point x="598" y="614"/>
      <point x="416" y="614" type="curve" smooth="yes"/>
      <point x="202" y="614"/>
      <point x="45" y="468"/>
      <point x="45" y="267" type="curve" smooth="yes"/>
      <point x="45" y="56"/>
      <point x="189" y="-83"/>
      <point x="406" y="-83" type="curve" smooth="yes"/>
      <point x="532" y="-83"/>
      <point x="640" y="-35"/>
      <point x="703" y="32" type="curve" smooth="yes"/>
      <point x="714" y="44"/>
      <point x="718" y="54"/>
      <point x="718" y="63" type="curve" smooth="yes"/>
      <point x="718" y="73"/>
      <point x="712" y="81"/>
      <point x="700" y="81" type="curve" smooth="yes"/>
      <point x="691" y="81"/>
      <point x="683" y="78"/>
      <point x="670" y="65" type="curve" smooth="yes"/>
      <point x="624" y="20"/>
      <point x="528" y="-25"/>
      <point x="407" y="-25" type="curve" smooth="yes"/>
      <point x="231" y="-25"/>
      <point x="105" y="97"/>
      <point x="105" y="267" type="curve" smooth="yes"/>
      <point x="105" y="436"/>
      <point x="235" y="561"/>
      <point x="410" y="561" type="curve" smooth="yes"/>
      <point x="560" y="561"/>
      <point x="672" y="454"/>
      <point x="672" y="300" type="curve" smooth="yes"/>
      <point x="672" y="196"/>
      <point x="637" y="146"/>
      <point x="588" y="146" type="curve" smooth="yes"/>
      <point x="552" y="146"/>
      <point x="535" y="167"/>
      <point x="535" y="205" type="curve" smooth="yes"/>
      <point x="535" y="346" type="line" smooth="yes"/>
      <point x="535" y="423"/>
      <point x="483" y="459"/>
      <point x="411" y="459" type="curve" smooth="yes"/>
      <point x="322" y="459"/>
      <point x="262" y="406"/>
    </contour>
  </outline>
</glyph>
<glyph name="A" format="1">
  <advance width="607"/>
  <unicode hex="0041"/>
  <outline>
    <contour>
      <point x="160" y="282" type="line"/>
      <point x="153" y="250" type="line"/>
      <point x="424" y="250" type="line"/>
      <point x="418" y="282" type="line"/>
    </contour>
    <contour>
      <point x="193" y="12" type="curve" smooth="yes"/>
      <point x="193" y="16"/>
      <point x="192" y="20"/>
      <point x="186" y="24" type="curve" smooth="yes"/>
      <point x="146" y="39" type="line" smooth="yes"/>
      <point x="121" y="50"/>
      <point x="117" y="75"/>
      <point x="131" y="125" type="curve" smooth="yes"/>
      <point x="279" y="637" type="line" smooth="yes"/>
      <point x="281" y="642"/>
      <point x="284" y="646"/>
      <point x="288" y="646" type="curve" smooth="yes"/>
      <point x="293" y="646"/>
      <point x="296" y="644"/>
      <point x="298" y="636" type="curve" smooth="yes"/>
      <point x="459" y="63" type="line" smooth="yes"/>
      <point x="462" y="48"/>
      <point x="456" y="34"/>
      <point x="444" y="32" type="curve" smooth="yes"/>
      <point x="395" y="25" type="line" smooth="yes"/>
      <point x="388" y="22"/>
      <point x="384" y="20"/>
      <point x="384" y="14" type="curve" smooth="yes"/>
      <point x="384" y="5"/>
      <point x="388" y="0"/>
      <point x="395" y="0" type="curve" smooth="yes"/>
      <point x="596" y="0" type="line" smooth="yes"/>
      <point x="606" y="0"/>
      <point x="611" y="6"/>
      <point x="611" y="15" type="curve" smooth="yes"/>
      <point x="611" y="20"/>
      <point x="609" y="23"/>
      <point x="600" y="26" type="curve" smooth="yes"/>
      <point x="573" y="31"/>
      <point x="565" y="49"/>
      <point x="559" y="71" type="curve" smooth="yes"/>
      <point x="395" y="638" type="line" smooth="yes"/>
      <point x="387" y="665"/>
      <point x="396" y="676"/>
      <point x="412" y="678" type="curve" smooth="yes"/>
      <point x="420" y="679"/>
      <point x="426" y="681"/>
      <point x="426" y="688" type="curve" smooth="yes"/>
      <point x="426" y="695"/>
      <point x="419" y="700"/>
      <point x="410" y="700" type="curve" smooth="yes"/>
      <point x="217" y="700" type="line" smooth="yes"/>
      <point x="211" y="700"/>
      <point x="204" y="694"/>
      <point x="204" y="688" type="curve" smooth="yes"/>
      <point x="204" y="679"/>
      <point x="211" y="675"/>
      <point x="219" y="672" type="curve" smooth="yes"/>
      <point x="239" y="670"/>
      <point x="244" y="654"/>
      <point x="238" y="632" type="curve" smooth="yes"/>
      <point x="91" y="125" type="line" smooth="yes"/>
      <point x="74" y="66"/>
      <point x="48" y="39"/>
      <point x="8" y="24" type="curve" smooth="yes"/>
      <point x="0" y="21"/>
      <point x="-2" y="16"/>
      <point x="-2" y="12" type="curve" smooth="yes"/>
      <point x="-2" y="4"/>
      <point x="0" y="0"/>
      <point x="10" y="0" type="curve" smooth="yes"/>
      <point x="182" y="0" type="line" smooth="yes"/>
      <point x="189" y="0"/>
      <point x="193" y="5"/>
    </contour>
    <contour>
      <point x="343" y="731" type="move" name="center"/>
    </contour>
  </outline>
</glyph>
<glyph name="B" format="1">
  <advance width="669"/>
  <unicode hex="0042"/>
  <outline>
    <contour>
      <point x="639" y="172" type="curve" smooth="yes"/>
      <point x="639" y="277"/>
      <point x="540" y="346"/>
      <point x="393" y="346" type="curve" smooth="yes"/>
      <point x="382" y="346"/>
      <point x="375" y="346"/>
      <point x="364" y="343" type="curve"/>
      <point x="368" y="332" type="line"/>
      <point x="506" y="332"/>
      <point x="599" y="399"/>
      <point x="599" y="499" type="curve" smooth="yes"/>
      <point x="599" y="621"/>
      <point x="488" y="700"/>
      <point x="313" y="700" type="curve" smooth="yes"/>
      <point x="72" y="700" type="line" smooth="yes"/>
      <point x="50" y="700"/>
      <point x="38" y="691"/>
      <point x="38" y="676" type="curve" smooth="yes"/>
      <point x="38" y="663"/>
      <point x="48" y="653"/>
      <point x="66" y="648" type="curve" smooth="yes"/>
      <point x="87" y="643" type="line" smooth="yes"/>
      <point x="112" y="636"/>
      <point x="128" y="618"/>
      <point x="128" y="591" type="curve" smooth="yes"/>
      <point x="128" y="105" type="line" smooth="yes"/>
      <point x="128" y="81"/>
      <point x="112" y="64"/>
      <point x="86" y="58" type="curve" smooth="yes"/>
      <point x="65" y="52" type="line" smooth="yes"/>
      <point x="47" y="47"/>
      <point x="37" y="37"/>
      <point x="37" y="24" type="curve" smooth="yes"/>
      <point x="37" y="9"/>
      <point x="49" y="0"/>
      <point x="71" y="0" type="curve" smooth="yes"/>
      <point x="370" y="0" type="line" smooth="yes"/>
      <point x="533" y="0"/>
      <point x="639" y="67"/>
    </contour>
    <contour>
      <point x="348" y="303" type="line" smooth="yes"/>
      <point x="448" y="303"/>
      <point x="514" y="255"/>
      <point x="514" y="180" type="curve" smooth="yes"/>
      <point x="514" y="107"/>
      <point x="456" y="55"/>
      <point x="376" y="55" type="curve" smooth="yes"/>
      <point x="313" y="55" type="line" smooth="yes"/>
      <point x="276" y="55"/>
      <point x="251" y="76"/>
      <point x="251" y="109" type="curve" smooth="yes"/>
      <point x="251" y="640" type="line"/>
      <point x="308" y="640" type="line" smooth="yes"/>
      <point x="410" y="640"/>
      <point x="475" y="587"/>
      <point x="475" y="507" type="curve" smooth="yes"/>
      <point x="475" y="416"/>
      <point x="412" y="357"/>
      <point x="317" y="357" type="curve" smooth="yes"/>
      <point x="239" y="357" type="line"/>
      <point x="228" y="303" type="line"/>
    </contour>
  </outline>
</glyph>
<glyph name="C" format="1">
  <advance width="667"/>
  <unicode hex="0043"/>
  <outline>
    <contour>
      <point x="644" y="163" type="curve" smooth="yes"/>
      <point x="644" y="174"/>
      <point x="638" y="183"/>
      <point x="628" y="183" type="curve" smooth="yes"/>
      <point x="619" y="183"/>
      <point x="612" y="177"/>
      <point x="599" y="162" type="curve" smooth="yes"/>
      <point x="560" y="117"/>
      <point x="488" y="87"/>
      <point x="415" y="87" type="curve" smooth="yes"/>
      <point x="259" y="87"/>
      <point x="151" y="207"/>
      <point x="151" y="378" type="curve" smooth="yes"/>
      <point x="151" y="549"/>
      <point x="246" y="649"/>
      <point x="378" y="649" type="curve" smooth="yes"/>
      <point x="446" y="649"/>
      <point x="499" y="618"/>
      <point x="565" y="530" type="curve" smooth="yes"/>
      <point x="585" y="505"/>
      <point x="598" y="496"/>
      <point x="614" y="496" type="curve" smooth="yes"/>
      <point x="630" y="496"/>
      <point x="641" y="508"/>
      <point x="641" y="522" type="curve" smooth="yes"/>
      <point x="641" y="531"/>
      <point x="640" y="538"/>
      <point x="632" y="562" type="curve" smooth="yes"/>
      <point x="596" y="672" type="line" smooth="yes"/>
      <point x="586" y="704"/>
      <point x="577" y="715"/>
      <point x="561" y="715" type="curve" smooth="yes"/>
      <point x="539" y="715"/>
      <point x="536" y="687"/>
      <point x="513" y="687" type="curve" smooth="yes"/>
      <point x="491" y="687"/>
      <point x="451" y="713"/>
      <point x="383" y="713" type="curve" smooth="yes"/>
      <point x="182" y="713"/>
      <point x="35" y="558"/>
      <point x="35" y="338" type="curve" smooth="yes"/>
      <point x="35" y="130"/>
      <point x="164" y="-15"/>
      <point x="365" y="-15" type="curve" smooth="yes"/>
      <point x="524" y="-15"/>
      <point x="644" y="79"/>
    </contour>
    <contour>
      <point x="360" y="775" type="move" name="center"/>
    </contour>
  </outline>
</glyph>
<glyph name="D" format="1">
  <advance width="675"/>
  <unicode hex="0044"/>
  <outline>
    <contour>
      <point x="18" y="12" type="curve" smooth="yes"/>
      <point x="18" y="4"/>
      <point x="21" y="0"/>
      <point x="30" y="0" type="curve" smooth="yes"/>
      <point x="317" y="0" type="line" smooth="yes"/>
      <point x="508" y="0"/>
      <point x="654" y="132"/>
      <point x="654" y="311" type="curve" smooth="yes"/>
      <point x="654" y="539"/>
      <point x="482" y="700"/>
      <point x="261" y="700" type="curve" smooth="yes"/>
      <point x="52" y="700" type="line" smooth="yes"/>
      <point x="27" y="700"/>
      <point x="18" y="696"/>
      <point x="18" y="686" type="curve" smooth="yes"/>
      <point x="18" y="679"/>
      <point x="22" y="677"/>
      <point x="29" y="674" type="curve" smooth="yes"/>
      <point x="84" y="661" type="line" smooth="yes"/>
      <point x="99" y="658"/>
      <point x="108" y="650"/>
      <point x="108" y="634" type="curve" smooth="yes"/>
      <point x="108" y="67" type="line" smooth="yes"/>
      <point x="108" y="47"/>
      <point x="97" y="37"/>
      <point x="73" y="33" type="curve" smooth="yes"/>
      <point x="30" y="25" type="line" smooth="yes"/>
      <point x="24" y="24"/>
      <point x="18" y="20"/>
    </contour>
    <contour>
      <point x="317" y="30" type="curve" smooth="yes"/>
      <point x="253" y="30" type="line" smooth="yes"/>
      <point x="223" y="30"/>
      <point x="206" y="44"/>
      <point x="206" y="69" type="curve" smooth="yes"/>
      <point x="206" y="638" type="line" smooth="yes"/>
      <point x="206" y="661"/>
      <point x="214" y="672"/>
      <point x="234" y="672" type="curve" smooth="yes"/>
      <point x="261" y="672" type="line" smooth="yes"/>
      <point x="440" y="672"/>
      <point x="553" y="538"/>
      <point x="553" y="329" type="curve" smooth="yes"/>
      <point x="553" y="147"/>
      <point x="454" y="30"/>
    </contour>
  </outline>
</glyph>
<glyph name="E" format="1">
  <advance width="582"/>
  <unicode hex="0045"/>
  <outline>
    <contour>
      <point x="168" y="360" type="line"/>
      <point x="158" y="332" type="line"/>
      <point x="343" y="332" type="line" smooth="yes"/>
      <point x="395" y="332"/>
      <point x="419" y="319"/>
      <point x="437" y="279" type="curve" smooth="yes"/>
      <point x="445" y="266"/>
      <point x="450" y="261"/>
      <point x="457" y="261" type="curve" smooth="yes"/>
      <point x="466" y="261"/>
      <point x="472" y="266"/>
      <point x="472" y="275" type="curve" smooth="yes"/>
      <point x="472" y="279"/>
      <point x="471" y="287"/>
      <point x="469" y="292" type="curve" smooth="yes"/>
      <point x="432" y="414" type="line" smooth="yes"/>
      <point x="429" y="425"/>
      <point x="426" y="430"/>
      <point x="417" y="430" type="curve" smooth="yes"/>
      <point x="409" y="430"/>
      <point x="403" y="423"/>
      <point x="400" y="408" type="curve" smooth="yes"/>
      <point x="398" y="380"/>
      <point x="382" y="360"/>
      <point x="341" y="360" type="curve" smooth="yes"/>
    </contour>
    <contour>
      <point x="17" y="689" type="curve" smooth="yes"/>
      <point x="17" y="681"/>
      <point x="22" y="677"/>
      <point x="33" y="674" type="curve" smooth="yes"/>
      <point x="87" y="660" type="line" smooth="yes"/>
      <point x="101" y="657"/>
      <point x="107" y="646"/>
      <point x="107" y="629" type="curve" smooth="yes"/>
      <point x="107" y="64" type="line" smooth="yes"/>
      <point x="107" y="47"/>
      <point x="100" y="38"/>
      <point x="84" y="35" type="curve" smooth="yes"/>
      <point x="27" y="24" type="line" smooth="yes"/>
      <point x="18" y="23"/>
      <point x="17" y="17"/>
      <point x="17" y="9" type="curve" smooth="yes"/>
      <point x="17" y="3"/>
      <point x="22" y="0"/>
      <point x="29" y="0" type="curve" smooth="yes"/>
      <point x="442" y="0" type="line" smooth="yes"/>
      <point x="455" y="0"/>
      <point x="461" y="-17"/>
      <point x="473" y="-17" type="curve" smooth="yes"/>
      <point x="485" y="-17"/>
      <point x="493" y="-10"/>
      <point x="498" y="6" type="curve" smooth="yes"/>
      <point x="545" y="168" type="line" smooth="yes"/>
      <point x="547" y="179"/>
      <point x="547" y="185"/>
      <point x="547" y="190" type="curve" smooth="yes"/>
      <point x="547" y="201"/>
      <point x="542" y="207"/>
      <point x="532" y="207" type="curve" smooth="yes"/>
      <point x="525" y="207"/>
      <point x="518" y="201"/>
      <point x="510" y="183" type="curve" smooth="yes"/>
      <point x="465" y="57"/>
      <point x="419" y="31"/>
      <point x="353" y="31" type="curve" smooth="yes"/>
      <point x="266" y="31" type="line" smooth="yes"/>
      <point x="227" y="31"/>
      <point x="205" y="50"/>
      <point x="205" y="79" type="curve" smooth="yes"/>
      <point x="205" y="674" type="line"/>
      <point x="315" y="674" type="line" smooth="yes"/>
      <point x="400" y="674"/>
      <point x="451" y="643"/>
      <point x="501" y="547" type="curve" smooth="yes"/>
      <point x="508" y="534"/>
      <point x="515" y="532"/>
      <point x="521" y="532" type="curve" smooth="yes"/>
      <point x="528" y="532"/>
      <point x="533" y="537"/>
      <point x="533" y="544" type="curve" smooth="yes"/>
      <point x="533" y="546"/>
      <point x="533" y="550"/>
      <point x="532" y="555" type="curve" smooth="yes"/>
      <point x="490" y="707" type="line" smooth="yes"/>
      <point x="488" y="718"/>
      <point x="484" y="723"/>
      <point x="476" y="723" type="curve" smooth="yes"/>
      <point x="469" y="723"/>
      <point x="464" y="721"/>
      <point x="459" y="714" type="curve" smooth="yes"/>
      <point x="453" y="704"/>
      <point x="440" y="700"/>
      <point x="430" y="700" type="curve" smooth="yes"/>
      <point x="32" y="700" type="line" smooth="yes"/>
      <point x="23" y="700"/>
      <point x="17" y="696"/>
    </contour>
  </outline>
</glyph>
<glyph name="F" format="1">
  <advance width="581"/>
  <unicode hex="0046"/>
  <outline>
    <contour>
      <point x="420" y="700" type="curve" smooth="yes"/>
      <point x="69" y="700" type="line" smooth="yes"/>
      <point x="48" y="700"/>
      <point x="35" y="691"/>
      <point x="35" y="674" type="curve" smooth="yes"/>
      <point x="35" y="656"/>
      <point x="48" y="650"/>
      <point x="70" y="644" type="curve" smooth="yes"/>
      <point x="94" y="639" type="line" smooth="yes"/>
      <point x="113" y="635"/>
      <point x="125" y="620"/>
      <point x="125" y="598" type="curve" smooth="yes"/>
      <point x="125" y="114" type="line" smooth="yes"/>
      <point x="125" y="84"/>
      <point x="113" y="70"/>
      <point x="87" y="62" type="curve" smooth="yes"/>
      <point x="71" y="57" type="line" smooth="yes"/>
      <point x="47" y="50"/>
      <point x="35" y="43"/>
      <point x="35" y="26" type="curve" smooth="yes"/>
      <point x="35" y="9"/>
      <point x="49" y="0"/>
      <point x="69" y="0" type="curve" smooth="yes"/>
      <point x="325" y="0" type="line" smooth="yes"/>
      <point x="343" y="0"/>
      <point x="360" y="9"/>
      <point x="360" y="26" type="curve" smooth="yes"/>
      <point x="360" y="37"/>
      <point x="351" y="48"/>
      <point x="333" y="53" type="curve" smooth="yes"/>
      <point x="292" y="62" type="line" smooth="yes"/>
      <point x="264" y="70"/>
      <point x="248" y="87"/>
      <point x="248" y="122" type="curve" smooth="yes"/>
      <point x="248" y="643" type="line"/>
      <point x="369" y="643" type="line" smooth="yes"/>
      <point x="412" y="643"/>
      <point x="441" y="618"/>
      <point x="487" y="554" type="curve" smooth="yes"/>
      <point x="504" y="528"/>
      <point x="517" y="520"/>
      <point x="533" y="520" type="curve" smooth="yes"/>
      <point x="547" y="520"/>
      <point x="555" y="528"/>
      <point x="555" y="543" type="curve" smooth="yes"/>
      <point x="555" y="547"/>
      <point x="554" y="556"/>
      <point x="551" y="568" type="curve" smooth="yes"/>
      <point x="519" y="698" type="line" smooth="yes"/>
      <point x="514" y="718"/>
      <point x="508" y="728"/>
      <point x="490" y="728" type="curve" smooth="yes"/>
      <point x="478" y="728"/>
      <point x="470" y="722"/>
      <point x="458" y="713" type="curve" smooth="yes"/>
      <point x="447" y="703"/>
      <point x="433" y="700"/>
    </contour>
    <contour>
      <point x="219" y="354" type="line"/>
      <point x="213" y="302" type="line"/>
      <point x="363" y="302" type="line" smooth="yes"/>
      <point x="409" y="302"/>
      <point x="435" y="287"/>
      <point x="455" y="261" type="curve" smooth="yes"/>
      <point x="471" y="240"/>
      <point x="481" y="231"/>
      <point x="496" y="231" type="curve" smooth="yes"/>
      <point x="508" y="231"/>
      <point x="516" y="238"/>
      <point x="516" y="251" type="curve" smooth="yes"/>
      <point x="516" y="255"/>
      <point x="517" y="261"/>
      <point x="514" y="272" type="curve" smooth="yes"/>
      <point x="482" y="401" type="line" smooth="yes"/>
      <point x="478" y="417"/>
      <point x="471" y="426"/>
      <point x="456" y="426" type="curve" smooth="yes"/>
      <point x="444" y="426"/>
      <point x="437" y="417"/>
      <point x="431" y="402" type="curve" smooth="yes"/>
      <point x="413" y="366"/>
      <point x="391" y="354"/>
      <point x="361" y="354" type="curve" smooth="yes"/>
    </contour>
  </outline>
</glyph>
<glyph name="G" format="1">
  <advance width="751"/>
  <unicode hex="0047"/>
  <outline>
    <contour>
      <point x="656" y="28" type="curve" smooth="yes"/>
      <point x="656" y="200" type="line" smooth="yes"/>
      <point x="656" y="226"/>
      <point x="666" y="242"/>
      <point x="683" y="249" type="curve" smooth="yes"/>
      <point x="697" y="255" type="line" smooth="yes"/>
      <point x="719" y="264"/>
      <point x="725" y="271"/>
      <point x="725" y="284" type="curve" smooth="yes"/>
      <point x="725" y="300"/>
      <point x="712" y="309"/>
      <point x="691" y="309" type="curve" smooth="yes"/>
      <point x="459" y="309" type="line" smooth="yes"/>
      <point x="437" y="309"/>
      <point x="424" y="299"/>
      <point x="424" y="284" type="curve" smooth="yes"/>
      <point x="424" y="267"/>
      <point x="436" y="258"/>
      <point x="458" y="254" type="curve" smooth="yes"/>
      <point x="489" y="249" type="line" smooth="yes"/>
      <point x="516" y="244"/>
      <point x="532" y="230"/>
      <point x="532" y="208" type="curve" smooth="yes"/>
      <point x="532" y="119" type="line" smooth="yes"/>
      <point x="532" y="79"/>
      <point x="498" y="58"/>
      <point x="414" y="58" type="curve" smooth="yes"/>
      <point x="264" y="58"/>
      <point x="164" y="178"/>
      <point x="164" y="365" type="curve" smooth="yes"/>
      <point x="164" y="538"/>
      <point x="251" y="653"/>
      <point x="395" y="653" type="curve" smooth="yes"/>
      <point x="463" y="653"/>
      <point x="526" y="626"/>
      <point x="604" y="529" type="curve" smooth="yes"/>
      <point x="624" y="503"/>
      <point x="638" y="494"/>
      <point x="653" y="494" type="curve" smooth="yes"/>
      <point x="669" y="494"/>
      <point x="679" y="504"/>
      <point x="679" y="520" type="curve" smooth="yes"/>
      <point x="679" y="530"/>
      <point x="677" y="541"/>
      <point x="672" y="556" type="curve" smooth="yes"/>
      <point x="635" y="681" type="line" smooth="yes"/>
      <point x="628" y="706"/>
      <point x="619" y="713"/>
      <point x="605" y="713" type="curve" smooth="yes"/>
      <point x="585" y="713"/>
      <point x="572" y="683"/>
      <point x="548" y="683" type="curve" smooth="yes"/>
      <point x="528" y="683"/>
      <point x="490" y="713"/>
      <point x="408" y="713" type="curve" smooth="yes"/>
      <point x="181" y="713"/>
      <point x="35" y="551"/>
      <point x="35" y="330" type="curve" smooth="yes"/>
      <point x="35" y="122"/>
      <point x="173" y="-15"/>
      <point x="369" y="-15" type="curve" smooth="yes"/>
      <point x="459" y="-15"/>
      <point x="503" y="26"/>
      <point x="537" y="26" type="curve" smooth="yes"/>
      <point x="564" y="26"/>
      <point x="583" y="-15"/>
      <point x="613" y="-15" type="curve" smooth="yes"/>
      <point x="645" y="-15"/>
      <point x="656" y="2"/>
    </contour>
  </outline>
</glyph>
<glyph name="H" format="1">
  <advance width="690"/>
  <unicode hex="0048"/>
  <outline>
    <contour>
      <point x="153" y="349" type="line"/>
      <point x="153" y="316" type="line"/>
      <point x="537" y="316" type="line"/>
      <point x="537" y="349" type="line"/>
    </contour>
    <component base="I" xOffset="-1"/>
    <component base="I" xOffset="378"/>
  </outline>
</glyph>
<glyph name="I" format="1">
  <advance width="312"/>
  <unicode hex="0049"/>
  <outline>
    <contour>
      <point x="205" y="61" type="curve" smooth="yes"/>
      <point x="205" y="630" type="line" smooth="yes"/>
      <point x="205" y="648"/>
      <point x="211" y="656"/>
      <point x="227" y="660" type="curve" smooth="yes"/>
      <point x="286" y="675" type="line" smooth="yes"/>
      <point x="293" y="677"/>
      <point x="296" y="680"/>
      <point x="296" y="688" type="curve" smooth="yes"/>
      <point x="296" y="696"/>
      <point x="292" y="700"/>
      <point x="283" y="700" type="curve" smooth="yes"/>
      <point x="29" y="700" type="line" smooth="yes"/>
      <point x="19" y="700"/>
      <point x="15" y="696"/>
      <point x="15" y="688" type="curve" smooth="yes"/>
      <point x="15" y="680"/>
      <point x="18" y="677"/>
      <point x="25" y="675" type="curve" smooth="yes"/>
      <point x="85" y="660" type="line" smooth="yes"/>
      <point x="100" y="656"/>
      <point x="107" y="648"/>
      <point x="107" y="630" type="curve" smooth="yes"/>
      <point x="107" y="61" type="line" smooth="yes"/>
      <point x="107" y="46"/>
      <point x="100" y="39"/>
      <point x="84" y="36" type="curve" smooth="yes"/>
      <point x="29" y="26" type="line" smooth="yes"/>
      <point x="19" y="24"/>
      <point x="15" y="20"/>
      <point x="15" y="12" type="curve" smooth="yes"/>
      <point x="15" y="4"/>
      <point x="18" y="0"/>
      <point x="27" y="0" type="curve" smooth="yes"/>
      <point x="284" y="0" type="line" smooth="yes"/>
      <point x="293" y="0"/>
      <point x="297" y="4"/>
      <point x="297" y="12" type="curve" smooth="yes"/>
      <point x="297" y="20"/>
      <point x="293" y="24"/>
      <point x="286" y="25" type="curve" smooth="yes"/>
      <point x="227" y="36" type="line" smooth="yes"/>
      <point x="211" y="39"/>
      <point x="205" y="46"/>
    </contour>
  </outline>
</glyph>
<glyph name="J" format="1">
  <advance width="450"/>
  <unicode hex="004A"/>
  <outline>
    <contour>
      <point x="375" y="138" type="curve" smooth="yes"/>
      <point x="375" y="167"/>
      <point x="367" y="194"/>
      <point x="356" y="223" type="curve" smooth="yes"/>
      <point x="345" y="255"/>
      <point x="340" y="279"/>
      <point x="340" y="312" type="curve" smooth="yes"/>
      <point x="339" y="578" type="line" smooth="yes"/>
      <point x="339" y="615"/>
      <point x="349" y="636"/>
      <point x="369" y="641" type="curve" smooth="yes"/>
      <point x="390" y="647" type="line" smooth="yes"/>
      <point x="409" y="651"/>
      <point x="419" y="658"/>
      <point x="419" y="675" type="curve" smooth="yes"/>
      <point x="419" y="692"/>
      <point x="409" y="699"/>
      <point x="386" y="699" type="curve" smooth="yes"/>
      <point x="150" y="699" type="line" smooth="yes"/>
      <point x="128" y="699"/>
      <point x="117" y="692"/>
      <point x="117" y="675" type="curve" smooth="yes"/>
      <point x="117" y="658"/>
      <point x="128" y="650"/>
      <point x="148" y="647" type="curve" smooth="yes"/>
      <point x="169" y="642" type="line" smooth="yes"/>
      <point x="200" y="635"/>
      <point x="216" y="621"/>
      <point x="216" y="590" type="curve" smooth="yes"/>
      <point x="216" y="294" type="line" smooth="yes"/>
      <point x="216" y="255"/>
      <point x="224" y="221"/>
      <point x="243" y="184" type="curve" smooth="yes"/>
      <point x="261" y="151"/>
      <point x="272" y="125"/>
      <point x="272" y="95" type="curve" smooth="yes"/>
      <point x="272" y="56"/>
      <point x="245" y="33"/>
      <point x="202" y="33" type="curve" smooth="yes"/>
      <point x="167" y="33"/>
      <point x="155" y="53"/>
      <point x="155" y="83" type="curve" smooth="yes"/>
      <point x="155" y="117" type="line" smooth="yes"/>
      <point x="155" y="157"/>
      <point x="133" y="185"/>
      <point x="96" y="185" type="curve" smooth="yes"/>
      <point x="50" y="185"/>
      <point x="26" y="156"/>
      <point x="26" y="111" type="curve" smooth="yes"/>
      <point x="26" y="37"/>
      <point x="83" y="-16"/>
      <point x="188" y="-16" type="curve" smooth="yes"/>
      <point x="303" y="-16"/>
      <point x="375" y="45"/>
    </contour>
    <contour>
      <point x="270" y="732" type="move" name="center"/>
    </contour>
  </outline>
</glyph>
<glyph name="K" format="1">
  <advance width="730"/>
  <unicode hex="004B"/>
  <outline>
    <contour>
      <point x="185" y="211" type="line"/>
      <point x="230" y="188" type="line"/>
      <point x="573" y="557" type="line" smooth="yes"/>
      <point x="610" y="595"/>
      <point x="638" y="618"/>
      <point x="671" y="632" type="curve" smooth="yes"/>
      <point x="694" y="642"/>
      <point x="711" y="651"/>
      <point x="710" y="673" type="curve" smooth="yes"/>
      <point x="709" y="688"/>
      <point x="699" y="700"/>
      <point x="675" y="700" type="curve" smooth="yes"/>
      <point x="490" y="700" type="line" smooth="yes"/>
      <point x="471" y="700"/>
      <point x="457" y="692"/>
      <point x="457" y="677" type="curve" smooth="yes"/>
      <point x="457" y="664"/>
      <point x="464" y="657"/>
      <point x="479" y="648" type="curve" smooth="yes"/>
      <point x="501" y="635" type="line" smooth="yes"/>
      <point x="516" y="625"/>
      <point x="524" y="619"/>
      <point x="524" y="607" type="curve" smooth="yes"/>
      <point x="524" y="592"/>
      <point x="518" y="578"/>
      <point x="501" y="561" type="curve" smooth="yes"/>
    </contour>
    <contour>
      <point x="340" y="351" type="line"/>
      <point x="487" y="121" type="line" smooth="yes"/>
      <point x="497" y="106"/>
      <point x="502" y="98"/>
      <point x="502" y="82" type="curve" smooth="yes"/>
      <point x="502" y="69"/>
      <point x="498" y="62"/>
      <point x="480" y="51" type="curve" smooth="yes"/>
      <point x="466" y="43"/>
      <point x="456" y="38"/>
      <point x="456" y="23" type="curve" smooth="yes"/>
      <point x="456" y="8"/>
      <point x="468" y="0"/>
      <point x="488" y="0" type="curve" smooth="yes"/>
      <point x="689" y="0" type="line" smooth="yes"/>
      <point x="714" y="0"/>
      <point x="725" y="11"/>
      <point x="725" y="28" type="curve" smooth="yes"/>
      <point x="725" y="44"/>
      <point x="715" y="50"/>
      <point x="699" y="57" type="curve" smooth="yes"/>
      <point x="680" y="66"/>
      <point x="663" y="73"/>
      <point x="646" y="98" type="curve" smooth="yes"/>
      <point x="426" y="427" type="line"/>
    </contour>
    <component base="I"/>
  </outline>
</glyph>
<glyph name="L" format="1">
  <advance width="580"/>
  <unicode hex="004C"/>
  <outline>
    <contour>
      <point x="333" y="648" type="line" smooth="yes"/>
      <point x="351" y="652"/>
      <point x="361" y="662"/>
      <point x="361" y="674" type="curve" smooth="yes"/>
      <point x="361" y="691"/>
      <point x="346" y="700"/>
      <point x="329" y="700" type="curve" smooth="yes"/>
      <point x="70" y="700" type="line" smooth="yes"/>
      <point x="50" y="700"/>
      <point x="38" y="691"/>
      <point x="38" y="674" type="curve" smooth="yes"/>
      <point x="38" y="658"/>
      <point x="50" y="650"/>
      <point x="71" y="643" type="curve" smooth="yes"/>
      <point x="90" y="638" type="line" smooth="yes"/>
      <point x="116" y="631"/>
      <point x="128" y="616"/>
      <point x="128" y="586" type="curve" smooth="yes"/>
      <point x="128" y="97" type="line" smooth="yes"/>
      <point x="128" y="78"/>
      <point x="117" y="65"/>
      <point x="100" y="61" type="curve" smooth="yes"/>
      <point x="70" y="55" type="line" smooth="yes"/>
      <point x="50" y="50"/>
      <point x="38" y="43"/>
      <point x="38" y="26" type="curve" smooth="yes"/>
      <point x="38" y="9"/>
      <point x="49" y="0"/>
      <point x="69" y="0" type="curve" smooth="yes"/>
      <point x="433" y="0" type="line" smooth="yes"/>
      <point x="445" y="0"/>
      <point x="459" y="-4"/>
      <point x="470" y="-14" type="curve" smooth="yes"/>
      <point x="480" y="-23"/>
      <point x="488" y="-28"/>
      <point x="501" y="-28" type="curve" smooth="yes"/>
      <point x="519" y="-28"/>
      <point x="525" y="-19"/>
      <point x="532" y="1" type="curve" smooth="yes"/>
      <point x="575" y="150" type="line" smooth="yes"/>
      <point x="583" y="179"/>
      <point x="571" y="193"/>
      <point x="556" y="193" type="curve" smooth="yes"/>
      <point x="540" y="193"/>
      <point x="528" y="187"/>
      <point x="510" y="160" type="curve" smooth="yes"/>
      <point x="478" y="116" type="line" smooth="yes"/>
      <point x="451" y="77"/>
      <point x="416" y="60"/>
      <point x="375" y="60" type="curve" smooth="yes"/>
      <point x="324" y="60" type="line" smooth="yes"/>
      <point x="274" y="60"/>
      <point x="251" y="81"/>
      <point x="251" y="126" type="curve" smooth="yes"/>
      <point x="251" y="580" type="line" smooth="yes"/>
      <point x="251" y="615"/>
      <point x="266" y="632"/>
      <point x="295" y="638" type="curve" smooth="yes"/>
    </contour>
    <contour>
      <point x="199" y="742" type="move" name="center"/>
    </contour>
  </outline>
</glyph>
<glyph name="M" format="1">
  <advance width="918"/>
  <unicode hex="004D"/>
  <outline>
    <contour>
      <point x="492" y="188" type="line"/>
      <point x="273" y="657" type="line" smooth="yes"/>
      <point x="259" y="687"/>
      <point x="242" y="700"/>
      <point x="218" y="700" type="curve" smooth="yes"/>
      <point x="98" y="700" type="line" smooth="yes"/>
      <point x="77" y="700"/>
      <point x="64" y="692"/>
      <point x="64" y="676" type="curve" smooth="yes"/>
      <point x="64" y="662"/>
      <point x="73" y="649"/>
      <point x="92" y="642" type="curve" smooth="yes"/>
      <point x="111" y="635" type="line" smooth="yes"/>
      <point x="130" y="628"/>
      <point x="144" y="616"/>
      <point x="143" y="596" type="curve" smooth="yes"/>
      <point x="112" y="120" type="line" smooth="yes"/>
      <point x="110" y="93"/>
      <point x="95" y="80"/>
      <point x="71" y="69" type="curve" smooth="yes"/>
      <point x="53" y="61" type="line" smooth="yes"/>
      <point x="28" y="50"/>
      <point x="20" y="40"/>
      <point x="20" y="24" type="curve" smooth="yes"/>
      <point x="20" y="6"/>
      <point x="34" y="0"/>
      <point x="54" y="0" type="curve" smooth="yes"/>
      <point x="233" y="0" type="line" smooth="yes"/>
      <point x="256" y="0"/>
      <point x="271" y="9"/>
      <point x="271" y="25" type="curve" smooth="yes"/>
      <point x="271" y="43"/>
      <point x="265" y="51"/>
      <point x="248" y="57" type="curve" smooth="yes"/>
      <point x="211" y="71" type="line" smooth="yes"/>
      <point x="183" y="82"/>
      <point x="171" y="98"/>
      <point x="172" y="120" type="curve" smooth="yes"/>
      <point x="203" y="592" type="line"/>
      <point x="170" y="585" type="line"/>
      <point x="395" y="104" type="line" smooth="yes"/>
      <point x="410" y="72"/>
      <point x="422" y="62"/>
      <point x="441" y="62" type="curve" smooth="yes"/>
      <point x="459" y="62"/>
      <point x="476" y="79"/>
      <point x="490" y="112" type="curve" smooth="yes"/>
      <point x="699" y="608" type="line"/>
      <point x="658" y="607" type="line"/>
      <point x="703" y="102" type="line" smooth="yes"/>
      <point x="705" y="76"/>
      <point x="694" y="62"/>
      <point x="676" y="58" type="curve" smooth="yes"/>
      <point x="651" y="52" type="line" smooth="yes"/>
      <point x="633" y="48"/>
      <point x="623" y="41"/>
      <point x="623" y="24" type="curve" smooth="yes"/>
      <point x="623" y="8"/>
      <point x="632" y="0"/>
      <point x="654" y="0" type="curve" smooth="yes"/>
      <point x="872" y="0" type="line" smooth="yes"/>
      <point x="897" y="0"/>
      <point x="907" y="8"/>
      <point x="907" y="24" type="curve" smooth="yes"/>
      <point x="907" y="41"/>
      <point x="896" y="45"/>
      <point x="879" y="52" type="curve" smooth="yes"/>
      <point x="863" y="58" type="line" smooth="yes"/>
      <point x="839" y="67"/>
      <point x="829" y="76"/>
      <point x="827" y="102" type="curve" smooth="yes"/>
      <point x="782" y="595" type="line" smooth="yes"/>
      <point x="780" y="621"/>
      <point x="791" y="635"/>
      <point x="809" y="640" type="curve" smooth="yes"/>
      <point x="836" y="648" type="line" smooth="yes"/>
      <point x="854" y="654"/>
      <point x="863" y="660"/>
      <point x="863" y="677" type="curve" smooth="yes"/>
      <point x="863" y="693"/>
      <point x="852" y="700"/>
      <point x="826" y="700" type="curve" smooth="yes"/>
      <point x="826" y="700"/>
      <point x="731" y="700"/>
      <point x="714" y="700" type="curve" smooth="yes"/>
      <point x="689" y="700"/>
      <point x="668" y="684"/>
      <point x="657" y="654" type="curve" smooth="yes"/>
      <point x="456" y="184" type="line"/>
    </contour>
  </outline>
</glyph>
<glyph name="N" format="1">
  <advance width="707"/>
  <unicode hex="004E"/>
  <outline>
    <contour>
      <point x="256" y="13" type="curve" smooth="yes"/>
      <point x="256" y="18"/>
      <point x="252" y="21"/>
      <point x="245" y="25" type="curve" smooth="yes"/>
      <point x="179" y="59" type="line" smooth="yes"/>
      <point x="165" y="67"/>
      <point x="158" y="80"/>
      <point x="158" y="95" type="curve" smooth="yes"/>
      <point x="158" y="585" type="line"/>
      <point x="150" y="557" type="line"/>
      <point x="537" y="43" type="line" smooth="yes"/>
      <point x="544" y="35"/>
      <point x="543" y="30"/>
      <point x="543" y="21" type="curve" smooth="yes"/>
      <point x="543" y="10"/>
      <point x="550" y="0"/>
      <point x="562" y="0" type="curve" smooth="yes"/>
      <point x="637" y="0" type="line" smooth="yes"/>
      <point x="647" y="0"/>
      <point x="653" y="6"/>
      <point x="653" y="15" type="curve" smooth="yes"/>
      <point x="653" y="23"/>
      <point x="654" y="27"/>
      <point x="643" y="40" type="curve" smooth="yes"/>
      <point x="601" y="96" type="line" smooth="yes"/>
      <point x="595" y="103"/>
      <point x="592" y="114"/>
      <point x="592" y="127" type="curve" smooth="yes"/>
      <point x="592" y="603" type="line" smooth="yes"/>
      <point x="592" y="624"/>
      <point x="600" y="636"/>
      <point x="615" y="644" type="curve" smooth="yes"/>
      <point x="672" y="673" type="line" smooth="yes"/>
      <point x="683" y="679"/>
      <point x="685" y="681"/>
      <point x="685" y="686" type="curve" smooth="yes"/>
      <point x="685" y="694"/>
      <point x="680" y="700"/>
      <point x="670" y="700" type="curve" smooth="yes"/>
      <point x="463" y="700" type="line" smooth="yes"/>
      <point x="456" y="700"/>
      <point x="452" y="695"/>
      <point x="452" y="687" type="curve" smooth="yes"/>
      <point x="452" y="681"/>
      <point x="454" y="677"/>
      <point x="465" y="672" type="curve" smooth="yes"/>
      <point x="534" y="642" type="line" smooth="yes"/>
      <point x="551" y="635"/>
      <point x="555" y="625"/>
      <point x="555" y="602" type="curve" smooth="yes"/>
      <point x="555" y="107" type="line"/>
      <point x="573" y="142" type="line"/>
      <point x="170" y="685" type="line" smooth="yes"/>
      <point x="161" y="697"/>
      <point x="154" y="700"/>
      <point x="145" y="700" type="curve" smooth="yes"/>
      <point x="55" y="700" type="line" smooth="yes"/>
      <point x="47" y="700"/>
      <point x="42" y="696"/>
      <point x="42" y="688" type="curve" smooth="yes"/>
      <point x="42" y="678"/>
      <point x="47" y="675"/>
      <point x="53" y="668" type="curve" smooth="yes"/>
      <point x="102" y="614" type="line" smooth="yes"/>
      <point x="115" y="600"/>
      <point x="121" y="589"/>
      <point x="121" y="565" type="curve" smooth="yes"/>
      <point x="121" y="93" type="line" smooth="yes"/>
      <point x="121" y="77"/>
      <point x="111" y="65"/>
      <point x="99" y="59" type="curve" smooth="yes"/>
      <point x="31" y="25" type="line" smooth="yes"/>
      <point x="25" y="22"/>
      <point x="22" y="18"/>
      <point x="22" y="12" type="curve" smooth="yes"/>
      <point x="22" y="3"/>
      <point x="27" y="0"/>
      <point x="33" y="0" type="curve" smooth="yes"/>
      <point x="243" y="0" type="line" smooth="yes"/>
      <point x="251" y="0"/>
      <point x="256" y="4"/>
    </contour>
  </outline>
</glyph>
<glyph name="O" format="1">
  <advance width="689"/>
  <unicode hex="004F"/>
  <outline>
    <contour>
      <point x="355" y="710" type="curve" smooth="yes"/>
      <point x="160" y="710"/>
      <point x="28" y="549"/>
      <point x="28" y="334" type="curve" smooth="yes"/>
      <point x="28" y="134"/>
      <point x="154" y="-10"/>
      <point x="335" y="-10" type="curve" smooth="yes"/>
      <point x="528" y="-10"/>
      <point x="661" y="150"/>
      <point x="661" y="375" type="curve" smooth="yes"/>
      <point x="661" y="566"/>
      <point x="535" y="710"/>
    </contour>
    <contour>
      <point x="558" y="308" type="curve" smooth="yes"/>
      <point x="558" y="118"/>
      <point x="481" y="32"/>
      <point x="375" y="32" type="curve" smooth="yes"/>
      <point x="253" y="32"/>
      <point x="131" y="172"/>
      <point x="131" y="397" type="curve" smooth="yes"/>
      <point x="131" y="577"/>
      <point x="208" y="672"/>
      <point x="308" y="672" type="curve" smooth="yes"/>
      <point x="435" y="672"/>
      <point x="558" y="524"/>
    </contour>
  </outline>
</glyph>
<glyph name="P" format="1">
  <advance width="643"/>
  <unicode hex="0050"/>
  <outline>
    <contour>
      <point x="629" y="442" type="curve" smooth="yes"/>
      <point x="629" y="596"/>
      <point x="501" y="700"/>
      <point x="309" y="700" type="curve" smooth="yes"/>
      <point x="68" y="700" type="line" smooth="yes"/>
      <point x="48" y="700"/>
      <point x="37" y="691"/>
      <point x="37" y="676" type="curve" smooth="yes"/>
      <point x="37" y="661"/>
      <point x="46" y="652"/>
      <point x="65" y="648" type="curve" smooth="yes"/>
      <point x="90" y="642" type="line" smooth="yes"/>
      <point x="114" y="637"/>
      <point x="127" y="620"/>
      <point x="127" y="597" type="curve" smooth="yes"/>
      <point x="127" y="102" type="line" smooth="yes"/>
      <point x="127" y="80"/>
      <point x="114" y="63"/>
      <point x="90" y="58" type="curve" smooth="yes"/>
      <point x="65" y="52" type="line" smooth="yes"/>
      <point x="46" y="47"/>
      <point x="37" y="38"/>
      <point x="37" y="24" type="curve" smooth="yes"/>
      <point x="37" y="9"/>
      <point x="48" y="0"/>
      <point x="68" y="0" type="curve" smooth="yes"/>
      <point x="309" y="0" type="line" smooth="yes"/>
      <point x="328" y="0"/>
      <point x="340" y="9"/>
      <point x="340" y="24" type="curve" smooth="yes"/>
      <point x="340" y="38"/>
      <point x="330" y="48"/>
      <point x="312" y="52" type="curve" smooth="yes"/>
      <point x="287" y="58" type="line" smooth="yes"/>
      <point x="263" y="63"/>
      <point x="250" y="80"/>
      <point x="250" y="102" type="curve" smooth="yes"/>
      <point x="250" y="640" type="line"/>
      <point x="304" y="640" type="line" smooth="yes"/>
      <point x="419" y="640"/>
      <point x="500" y="564"/>
      <point x="500" y="459" type="curve" smooth="yes"/>
      <point x="500" y="348"/>
      <point x="428" y="280"/>
      <point x="326" y="280" type="curve" smooth="yes"/>
      <point x="250" y="280"/>
      <point x="213" y="293"/>
      <point x="174" y="315" type="curve"/>
      <point x="164" y="263" type="line"/>
      <point x="208" y="239"/>
      <point x="249" y="224"/>
      <point x="344" y="224" type="curve" smooth="yes"/>
      <point x="514" y="224"/>
      <point x="629" y="312"/>
    </contour>
  </outline>
</glyph>
<glyph name="Q" format="1">
  <advance width="791"/>
  <unicode hex="0051"/>
  <outline>
    <contour>
      <point x="406" y="173" type="curve" smooth="yes"/>
      <point x="463" y="-59"/>
      <point x="576" y="-162"/>
      <point x="695" y="-162" type="curve" smooth="yes"/>
      <point x="727" y="-162"/>
      <point x="739" y="-148"/>
      <point x="748" y="-127" type="curve" smooth="yes"/>
      <point x="765" y="-82" type="line" smooth="yes"/>
      <point x="770" y="-70"/>
      <point x="774" y="-60"/>
      <point x="774" y="-49" type="curve" smooth="yes"/>
      <point x="774" y="-37"/>
      <point x="764" y="-29"/>
      <point x="753" y="-29" type="curve" smooth="yes"/>
      <point x="733" y="-29"/>
      <point x="718" y="-44"/>
      <point x="675" y="-44" type="curve" smooth="yes"/>
      <point x="585" y="-44"/>
      <point x="510" y="12"/>
      <point x="456" y="186" type="curve" smooth="yes"/>
      <point x="449" y="208"/>
      <point x="440" y="219"/>
      <point x="425" y="219" type="curve" smooth="yes"/>
      <point x="413" y="219"/>
      <point x="403" y="210"/>
      <point x="403" y="196" type="curve" smooth="yes"/>
      <point x="403" y="187"/>
      <point x="404" y="182"/>
    </contour>
    <component base="O"/>
  </outline>
</glyph>
<glyph name="R" format="1">
  <advance width="696"/>
  <unicode hex="0052"/>
  <outline>
    <contour>
      <point x="625" y="457" type="curve" smooth="yes"/>
      <point x="625" y="604"/>
      <point x="487" y="700"/>
      <point x="303" y="700" type="curve" smooth="yes"/>
      <point x="69" y="700" type="line" smooth="yes"/>
      <point x="48" y="700"/>
      <point x="36" y="691"/>
      <point x="36" y="675" type="curve" smooth="yes"/>
      <point x="36" y="661"/>
      <point x="45" y="651"/>
      <point x="66" y="647" type="curve" smooth="yes"/>
      <point x="91" y="641" type="line" smooth="yes"/>
      <point x="115" y="636"/>
      <point x="128" y="619"/>
      <point x="128" y="596" type="curve" smooth="yes"/>
      <point x="128" y="102" type="line" smooth="yes"/>
      <point x="128" y="80"/>
      <point x="115" y="64"/>
      <point x="91" y="58" type="curve" smooth="yes"/>
      <point x="66" y="52" type="line" smooth="yes"/>
      <point x="45" y="48"/>
      <point x="36" y="39"/>
      <point x="36" y="24" type="curve" smooth="yes"/>
      <point x="36" y="9"/>
      <point x="48" y="0"/>
      <point x="69" y="0" type="curve" smooth="yes"/>
      <point x="301" y="0" type="line" smooth="yes"/>
      <point x="321" y="0"/>
      <point x="332" y="9"/>
      <point x="332" y="24" type="curve" smooth="yes"/>
      <point x="332" y="38"/>
      <point x="323" y="45"/>
      <point x="305" y="50" type="curve" smooth="yes"/>
      <point x="278" y="58" type="line" smooth="yes"/>
      <point x="261" y="63"/>
      <point x="251" y="77"/>
      <point x="251" y="102" type="curve" smooth="yes"/>
      <point x="251" y="640" type="line"/>
      <point x="297" y="640" type="line" smooth="yes"/>
      <point x="414" y="640"/>
      <point x="494" y="572"/>
      <point x="494" y="472" type="curve" smooth="yes"/>
      <point x="494" y="373"/>
      <point x="425" y="304"/>
      <point x="327" y="304" type="curve" smooth="yes"/>
      <point x="262" y="304"/>
      <point x="225" y="314"/>
      <point x="181" y="337" type="curve"/>
      <point x="171" y="284" type="line"/>
      <point x="220" y="257"/>
      <point x="260" y="247"/>
      <point x="340" y="247" type="curve" smooth="yes"/>
      <point x="511" y="247"/>
      <point x="625" y="330"/>
    </contour>
    <contour>
      <point x="341" y="272" type="line"/>
      <point x="463" y="104" type="line" smooth="yes"/>
      <point x="471" y="93"/>
      <point x="476" y="84"/>
      <point x="476" y="73" type="curve" smooth="yes"/>
      <point x="476" y="63"/>
      <point x="471" y="57"/>
      <point x="459" y="50" type="curve" smooth="yes"/>
      <point x="447" y="45"/>
      <point x="441" y="37"/>
      <point x="441" y="23" type="curve" smooth="yes"/>
      <point x="441" y="9"/>
      <point x="454" y="0"/>
      <point x="474" y="0" type="curve" smooth="yes"/>
      <point x="659" y="0" type="line" smooth="yes"/>
      <point x="682" y="0"/>
      <point x="691" y="10"/>
      <point x="691" y="26" type="curve" smooth="yes"/>
      <point x="691" y="39"/>
      <point x="682" y="45"/>
      <point x="669" y="50" type="curve" smooth="yes"/>
      <point x="640" y="63"/>
      <point x="622" y="75"/>
      <point x="604" y="98" type="curve" smooth="yes"/>
      <point x="465" y="283" type="line"/>
    </contour>
    <contour>
      <point x="313" y="738" type="move" name="center"/>
    </contour>
  </outline>
</glyph>
<glyph name="S" format="1">
  <advance width="525"/>
  <unicode hex="0053"/>
  <outline>
    <contour>
      <point x="275" y="-10" type="curve" smooth="yes"/>
      <point x="409" y="-10"/>
      <point x="489" y="74"/>
      <point x="489" y="180" type="curve" smooth="yes"/>
      <point x="489" y="271"/>
      <point x="442" y="334"/>
      <point x="290" y="385" type="curve" smooth="yes"/>
      <point x="159" y="431"/>
      <point x="119" y="473"/>
      <point x="119" y="549" type="curve" smooth="yes"/>
      <point x="119" y="624"/>
      <point x="174" y="678"/>
      <point x="250" y="678" type="curve" smooth="yes"/>
      <point x="343" y="678"/>
      <point x="412" y="620"/>
      <point x="469" y="502" type="curve" smooth="yes"/>
      <point x="474" y="492"/>
      <point x="481" y="488"/>
      <point x="489" y="488" type="curve" smooth="yes"/>
      <point x="496" y="488"/>
      <point x="501" y="494"/>
      <point x="501" y="501" type="curve" smooth="yes"/>
      <point x="501" y="509"/>
      <point x="500" y="517"/>
      <point x="498" y="523" type="curve" smooth="yes"/>
      <point x="452" y="691" type="line" smooth="yes"/>
      <point x="448" y="702"/>
      <point x="440" y="711"/>
      <point x="429" y="711" type="curve" smooth="yes"/>
      <point x="411" y="711"/>
      <point x="390" y="688"/>
      <point x="373" y="688" type="curve" smooth="yes"/>
      <point x="348" y="688"/>
      <point x="316" y="709"/>
      <point x="253" y="709" type="curve" smooth="yes"/>
      <point x="123" y="709"/>
      <point x="35" y="620"/>
      <point x="35" y="507" type="curve" smooth="yes"/>
      <point x="35" y="409"/>
      <point x="86" y="343"/>
      <point x="242" y="296" type="curve" smooth="yes"/>
      <point x="365" y="259"/>
      <point x="405" y="216"/>
      <point x="405" y="146" type="curve" smooth="yes"/>
      <point x="405" y="70"/>
      <point x="357" y="22"/>
      <point x="282" y="22" type="curve" smooth="yes"/>
      <point x="191" y="22"/>
      <point x="130" y="70"/>
      <point x="87" y="204" type="curve" smooth="yes"/>
      <point x="79" y="222"/>
      <point x="74" y="226"/>
      <point x="67" y="226" type="curve" smooth="yes"/>
      <point x="58" y="226"/>
      <point x="53" y="218"/>
      <point x="55" y="202" type="curve" smooth="yes"/>
      <point x="83" y="6" type="line" smooth="yes"/>
      <point x="86" y="-7"/>
      <point x="93" y="-13"/>
      <point x="105" y="-13" type="curve" smooth="yes"/>
      <point x="119" y="-13"/>
      <point x="142" y="22"/>
      <point x="155" y="22" type="curve" smooth="yes"/>
      <point x="167" y="22"/>
      <point x="197" y="-10"/>
    </contour>
  </outline>
</glyph>
<glyph name="T" format="1">
  <advance width="612"/>
  <unicode hex="0054"/>
  <outline>
    <contour>
      <point x="127" y="700" type="line" smooth="yes"/>
      <point x="118" y="700"/>
      <point x="106" y="704"/>
      <point x="99" y="713" type="curve" smooth="yes"/>
      <point x="89" y="723"/>
      <point x="80" y="729"/>
      <point x="68" y="729" type="curve" smooth="yes"/>
      <point x="51" y="729"/>
      <point x="44" y="721"/>
      <point x="39" y="702" type="curve" smooth="yes"/>
      <point x="4" y="566" type="line" smooth="yes"/>
      <point x="-3" y="540"/>
      <point x="8" y="528"/>
      <point x="22" y="528" type="curve" smooth="yes"/>
      <point x="38" y="528"/>
      <point x="50" y="536"/>
      <point x="70" y="564" type="curve" smooth="yes"/>
      <point x="108" y="618"/>
      <point x="148" y="646"/>
      <point x="189" y="646" type="curve" smooth="yes"/>
      <point x="243" y="646" type="line"/>
      <point x="243" y="114" type="line" smooth="yes"/>
      <point x="243" y="84"/>
      <point x="232" y="67"/>
      <point x="206" y="62" type="curve" smooth="yes"/>
      <point x="181" y="57" type="line" smooth="yes"/>
      <point x="157" y="51"/>
      <point x="144" y="42"/>
      <point x="144" y="26" type="curve" smooth="yes"/>
      <point x="144" y="9"/>
      <point x="159" y="0"/>
      <point x="179" y="0" type="curve" smooth="yes"/>
      <point x="432" y="0" type="line" smooth="yes"/>
      <point x="453" y="0"/>
      <point x="466" y="9"/>
      <point x="466" y="26" type="curve" smooth="yes"/>
      <point x="466" y="42"/>
      <point x="455" y="51"/>
      <point x="430" y="57" type="curve" smooth="yes"/>
      <point x="404" y="62" type="line" smooth="yes"/>
      <point x="379" y="67"/>
      <point x="367" y="84"/>
      <point x="367" y="114" type="curve" smooth="yes"/>
      <point x="367" y="646" type="line"/>
      <point x="423" y="646" type="line" smooth="yes"/>
      <point x="464" y="646"/>
      <point x="504" y="617"/>
      <point x="541" y="564" type="curve" smooth="yes"/>
      <point x="561" y="535"/>
      <point x="573" y="528"/>
      <point x="589" y="528" type="curve" smooth="yes"/>
      <point x="605" y="528"/>
      <point x="614" y="539"/>
      <point x="607" y="566" type="curve" smooth="yes"/>
      <point x="572" y="702" type="line" smooth="yes"/>
      <point x="567" y="722"/>
      <point x="561" y="729"/>
      <point x="543" y="729" type="curve" smooth="yes"/>
      <point x="532" y="729"/>
      <point x="522" y="724"/>
      <point x="513" y="713" type="curve" smooth="yes"/>
      <point x="505" y="704"/>
      <point x="493" y="700"/>
      <point x="484" y="700" type="curve"/>
    </contour>
  </outline>
</glyph>
<glyph name="U" format="1">
  <advance width="626"/>
  <unicode hex="0055"/>
  <outline>
    <contour>
      <point x="521" y="296" type="line" smooth="yes"/>
      <point x="522" y="268"/>
      <point x="525" y="242"/>
      <point x="525" y="193" type="curve" smooth="yes"/>
      <point x="525" y="98"/>
      <point x="464" y="41"/>
      <point x="356" y="41" type="curve" smooth="yes"/>
      <point x="250" y="41"/>
      <point x="186" y="102"/>
      <point x="186" y="219" type="curve" smooth="yes"/>
      <point x="186" y="243"/>
      <point x="186" y="278"/>
      <point x="189" y="318" type="curve" smooth="yes"/>
      <point x="209" y="635" type="line" smooth="yes"/>
      <point x="210" y="651"/>
      <point x="216" y="660"/>
      <point x="230" y="665" type="curve" smooth="yes"/>
      <point x="288" y="681" type="line" smooth="yes"/>
      <point x="293" y="682"/>
      <point x="295" y="685"/>
      <point x="295" y="691" type="curve" smooth="yes"/>
      <point x="295" y="697"/>
      <point x="293" y="700"/>
      <point x="287" y="700" type="curve" smooth="yes"/>
      <point x="25" y="700" type="line" smooth="yes"/>
      <point x="20" y="700"/>
      <point x="18" y="697"/>
      <point x="18" y="691" type="curve" smooth="yes"/>
      <point x="18" y="686"/>
      <point x="20" y="685"/>
      <point x="25" y="682" type="curve" smooth="yes"/>
      <point x="78" y="665" type="line" smooth="yes"/>
      <point x="89" y="660"/>
      <point x="97" y="646"/>
      <point x="96" y="628" type="curve" smooth="yes"/>
      <point x="76" y="320" type="line" smooth="yes"/>
      <point x="74" y="288"/>
      <point x="68" y="226"/>
      <point x="68" y="196" type="curve" smooth="yes"/>
      <point x="68" y="74"/>
      <point x="152" y="-15"/>
      <point x="313" y="-15" type="curve" smooth="yes"/>
      <point x="484" y="-15"/>
      <point x="563" y="77"/>
      <point x="563" y="193" type="curve" smooth="yes"/>
      <point x="563" y="230"/>
      <point x="561" y="265"/>
      <point x="558" y="301" type="curve" smooth="yes"/>
      <point x="539" y="620" type="line" smooth="yes"/>
      <point x="537" y="637"/>
      <point x="547" y="651"/>
      <point x="562" y="658" type="curve" smooth="yes"/>
      <point x="609" y="679" type="line" smooth="yes"/>
      <point x="619" y="683"/>
      <point x="622" y="685"/>
      <point x="622" y="692" type="curve" smooth="yes"/>
      <point x="622" y="697"/>
      <point x="618" y="700"/>
      <point x="613" y="700" type="curve" smooth="yes"/>
      <point x="423" y="700" type="line" smooth="yes"/>
      <point x="416" y="700"/>
      <point x="411" y="697"/>
      <point x="411" y="690" type="curve" smooth="yes"/>
      <point x="411" y="685"/>
      <point x="414" y="680"/>
      <point x="420" y="678" type="curve" smooth="yes"/>
      <point x="476" y="658" type="line" smooth="yes"/>
      <point x="496" y="649"/>
      <point x="503" y="642"/>
      <point x="505" y="620" type="curve" smooth="yes"/>
    </contour>
    <contour>
      <point x="354" y="730" type="move" name="center"/>
    </contour>
  </outline>
</glyph>
<glyph name="V" format="1">
  <advance width="703"/>
  <unicode hex="0056"/>
  <outline>
    <contour>
      <point x="462" y="673" type="curve" smooth="yes"/>
      <point x="462" y="658"/>
      <point x="474" y="646"/>
      <point x="493" y="636" type="curve" smooth="yes"/>
      <point x="527" y="619" type="line" smooth="yes"/>
      <point x="547" y="608"/>
      <point x="552" y="575"/>
      <point x="535" y="533" type="curve" smooth="yes"/>
      <point x="341" y="61" type="line"/>
      <point x="403" y="88" type="line"/>
      <point x="217" y="566" type="line" smooth="yes"/>
      <point x="203" y="600"/>
      <point x="216" y="625"/>
      <point x="241" y="634" type="curve" smooth="yes"/>
      <point x="260" y="640" type="line" smooth="yes"/>
      <point x="276" y="646"/>
      <point x="286" y="655"/>
      <point x="286" y="673" type="curve" smooth="yes"/>
      <point x="286" y="690"/>
      <point x="276" y="700"/>
      <point x="259" y="700" type="curve" smooth="yes"/>
      <point x="36" y="700" type="line" smooth="yes"/>
      <point x="15" y="700"/>
      <point x="2" y="691"/>
      <point x="2" y="675" type="curve" smooth="yes"/>
      <point x="2" y="661"/>
      <point x="9" y="652"/>
      <point x="28" y="640" type="curve" smooth="yes"/>
      <point x="42" y="632"/>
      <point x="61" y="616"/>
      <point x="77" y="578" type="curve" smooth="yes"/>
      <point x="267" y="109" type="line" smooth="yes"/>
      <point x="276" y="87"/>
      <point x="280" y="75"/>
      <point x="280" y="59" type="curve" smooth="yes"/>
      <point x="280" y="41" type="line" smooth="yes"/>
      <point x="280" y="16"/>
      <point x="295" y="0"/>
      <point x="316" y="0" type="curve" smooth="yes"/>
      <point x="380" y="0" type="line" smooth="yes"/>
      <point x="403" y="0"/>
      <point x="419" y="15"/>
      <point x="419" y="39" type="curve" smooth="yes"/>
      <point x="419" y="56" type="line" smooth="yes"/>
      <point x="419" y="78"/>
      <point x="422" y="96"/>
      <point x="430" y="116" type="curve" smooth="yes"/>
      <point x="614" y="552" type="line" smooth="yes"/>
      <point x="635" y="602"/>
      <point x="649" y="615"/>
      <point x="668" y="627" type="curve" smooth="yes"/>
      <point x="689" y="642"/>
      <point x="701" y="653"/>
      <point x="701" y="670" type="curve" smooth="yes"/>
      <point x="701" y="690"/>
      <point x="687" y="700"/>
      <point x="661" y="700" type="curve" smooth="yes"/>
      <point x="494" y="700" type="line" smooth="yes"/>
      <point x="473" y="700"/>
      <point x="462" y="689"/>
    </contour>
  </outline>
</glyph>
<glyph name="W" format="1">
  <advance width="1025"/>
  <unicode hex="0057"/>
  <outline>
    <contour>
      <point x="501" y="539" type="line"/>
      <point x="319" y="86" type="line"/>
      <point x="369" y="95" type="line"/>
      <point x="205" y="575" type="line" smooth="yes"/>
      <point x="193" y="611"/>
      <point x="206" y="634"/>
      <point x="231" y="639" type="curve" smooth="yes"/>
      <point x="247" y="644" type="line" smooth="yes"/>
      <point x="265" y="648"/>
      <point x="274" y="656"/>
      <point x="274" y="673" type="curve" smooth="yes"/>
      <point x="274" y="690"/>
      <point x="263" y="700"/>
      <point x="247" y="700" type="curve" smooth="yes"/>
      <point x="34" y="700" type="line" smooth="yes"/>
      <point x="14" y="700"/>
      <point x="2" y="690"/>
      <point x="2" y="674" type="curve" smooth="yes"/>
      <point x="2" y="657"/>
      <point x="8" y="645"/>
      <point x="35" y="633" type="curve" smooth="yes"/>
      <point x="54" y="625"/>
      <point x="65" y="613"/>
      <point x="77" y="579" type="curve" smooth="yes"/>
      <point x="234" y="143" type="line" smooth="yes"/>
      <point x="245" y="113"/>
      <point x="250" y="94"/>
      <point x="250" y="72" type="curve" smooth="yes"/>
      <point x="250" y="42" type="line" smooth="yes"/>
      <point x="250" y="16"/>
      <point x="268" y="0"/>
      <point x="289" y="0" type="curve" smooth="yes"/>
      <point x="350" y="0" type="line" smooth="yes"/>
      <point x="374" y="0"/>
      <point x="388" y="17"/>
      <point x="388" y="38" type="curve" smooth="yes"/>
      <point x="388" y="69" type="line" smooth="yes"/>
      <point x="388" y="93"/>
      <point x="394" y="118"/>
      <point x="406" y="147" type="curve" smooth="yes"/>
      <point x="544" y="483" type="line"/>
    </contour>
    <contour>
      <point x="792" y="670" type="curve" smooth="yes"/>
      <point x="792" y="654"/>
      <point x="803" y="643"/>
      <point x="822" y="634" type="curve" smooth="yes"/>
      <point x="862" y="615" type="line" smooth="yes"/>
      <point x="884" y="605"/>
      <point x="885" y="579"/>
      <point x="873" y="548" type="curve" smooth="yes"/>
      <point x="695" y="61" type="line"/>
      <point x="757" y="79" type="line"/>
      <point x="594" y="571" type="line" smooth="yes"/>
      <point x="581" y="608"/>
      <point x="592" y="636"/>
      <point x="609" y="640" type="curve" smooth="yes"/>
      <point x="626" y="644" type="line" smooth="yes"/>
      <point x="641" y="647"/>
      <point x="649" y="656"/>
      <point x="649" y="673" type="curve" smooth="yes"/>
      <point x="649" y="690"/>
      <point x="639" y="700"/>
      <point x="623" y="700" type="curve" smooth="yes"/>
      <point x="423" y="700" type="line" smooth="yes"/>
      <point x="403" y="700"/>
      <point x="390" y="691"/>
      <point x="390" y="675" type="curve" smooth="yes"/>
      <point x="390" y="661"/>
      <point x="398" y="652"/>
      <point x="416" y="641" type="curve" smooth="yes"/>
      <point x="431" y="631"/>
      <point x="452" y="617"/>
      <point x="465" y="580" type="curve" smooth="yes"/>
      <point x="619" y="133" type="line" smooth="yes"/>
      <point x="629" y="104"/>
      <point x="634" y="85"/>
      <point x="634" y="59" type="curve" smooth="yes"/>
      <point x="634" y="40" type="line" smooth="yes"/>
      <point x="634" y="19"/>
      <point x="651" y="0"/>
      <point x="672" y="0" type="curve" smooth="yes"/>
      <point x="735" y="0" type="line" smooth="yes"/>
      <point x="758" y="0"/>
      <point x="772" y="19"/>
      <point x="772" y="38" type="curve" smooth="yes"/>
      <point x="772" y="56" type="line" smooth="yes"/>
      <point x="772" y="79"/>
      <point x="777" y="104"/>
      <point x="787" y="131" type="curve" smooth="yes"/>
      <point x="945" y="556" type="line" smooth="yes"/>
      <point x="965" y="610"/>
      <point x="976" y="619"/>
      <point x="999" y="636" type="curve" smooth="yes"/>
      <point x="1016" y="648"/>
      <point x="1023" y="655"/>
      <point x="1023" y="675" type="curve" smooth="yes"/>
      <point x="1023" y="692"/>
      <point x="1012" y="700"/>
      <point x="994" y="700" type="curve" smooth="yes"/>
      <point x="831" y="700" type="line" smooth="yes"/>
      <point x="806" y="700"/>
      <point x="792" y="688"/>
    </contour>
  </outline>
</glyph>
<glyph name="X" format="1">
  <advance width="711"/>
  <unicode hex="0058"/>
  <outline>
    <contour>
      <point x="629" y="98" type="curve" smooth="yes"/>
      <point x="253" y="589" type="line" smooth="yes"/>
      <point x="230" y="619"/>
      <point x="246" y="634"/>
      <point x="271" y="640" type="curve" smooth="yes"/>
      <point x="288" y="644" type="line" smooth="yes"/>
      <point x="304" y="648"/>
      <point x="313" y="656"/>
      <point x="313" y="673" type="curve" smooth="yes"/>
      <point x="313" y="690"/>
      <point x="302" y="700"/>
      <point x="284" y="700" type="curve" smooth="yes"/>
      <point x="40" y="700" type="line" smooth="yes"/>
      <point x="22" y="700"/>
      <point x="9" y="691"/>
      <point x="9" y="675" type="curve" smooth="yes"/>
      <point x="9" y="661"/>
      <point x="17" y="652"/>
      <point x="45" y="641" type="curve" smooth="yes"/>
      <point x="71" y="632"/>
      <point x="74" y="625"/>
      <point x="95" y="599" type="curve" smooth="yes"/>
      <point x="478" y="105" type="line" smooth="yes"/>
      <point x="502" y="73"/>
      <point x="482" y="63"/>
      <point x="447" y="59" type="curve" smooth="yes"/>
      <point x="427" y="58"/>
      <point x="416" y="47"/>
      <point x="416" y="28" type="curve" smooth="yes"/>
      <point x="416" y="11"/>
      <point x="431" y="0"/>
      <point x="451" y="0" type="curve" smooth="yes"/>
      <point x="676" y="0" type="line" smooth="yes"/>
      <point x="696" y="0"/>
      <point x="710" y="11"/>
      <point x="710" y="28" type="curve" smooth="yes"/>
      <point x="710" y="47"/>
      <point x="699" y="57"/>
      <point x="678" y="59" type="curve" smooth="yes"/>
      <point x="657" y="61"/>
      <point x="648" y="74"/>
    </contour>
    <contour>
      <point x="378" y="311" type="line"/>
      <point x="563" y="556" type="line" smooth="yes"/>
      <point x="597" y="602"/>
      <point x="630" y="623"/>
      <point x="649" y="631" type="curve" smooth="yes"/>
      <point x="684" y="644"/>
      <point x="699" y="653"/>
      <point x="699" y="674" type="curve" smooth="yes"/>
      <point x="699" y="691"/>
      <point x="690" y="700"/>
      <point x="670" y="700" type="curve" smooth="yes"/>
      <point x="463" y="700" type="line" smooth="yes"/>
      <point x="441" y="700"/>
      <point x="430" y="690"/>
      <point x="430" y="673" type="curve" smooth="yes"/>
      <point x="430" y="656"/>
      <point x="442" y="647"/>
      <point x="468" y="639" type="curve" smooth="yes"/>
      <point x="491" y="634" type="line" smooth="yes"/>
      <point x="514" y="627"/>
      <point x="514" y="590"/>
      <point x="495" y="564" type="curve" smooth="yes"/>
      <point x="335" y="346" type="line"/>
    </contour>
    <contour>
      <point x="335" y="390" type="line"/>
      <point x="144" y="143" type="line" smooth="yes"/>
      <point x="117" y="110"/>
      <point x="85" y="82"/>
      <point x="56" y="73" type="curve" smooth="yes"/>
      <point x="16" y="62"/>
      <point x="2" y="44"/>
      <point x="2" y="29" type="curve" smooth="yes"/>
      <point x="2" y="9"/>
      <point x="12" y="1"/>
      <point x="32" y="1" type="curve" smooth="yes"/>
      <point x="240" y="1" type="line" smooth="yes"/>
      <point x="261" y="1"/>
      <point x="272" y="11"/>
      <point x="272" y="26" type="curve" smooth="yes"/>
      <point x="272" y="39"/>
      <point x="265" y="49"/>
      <point x="235" y="62" type="curve" smooth="yes"/>
      <point x="208" y="74" type="line" smooth="yes"/>
      <point x="188" y="83"/>
      <point x="185" y="103"/>
      <point x="202" y="125" type="curve" smooth="yes"/>
      <point x="378" y="355" type="line"/>
    </contour>
  </outline>
</glyph>
<glyph name="Y" format="1">
  <advance width="653"/>
  <unicode hex="0059"/>
  <outline>
    <contour>
      <point x="259" y="246" type="line"/>
      <point x="259" y="102" type="line" smooth="yes"/>
      <point x="259" y="76"/>
      <point x="247" y="63"/>
      <point x="223" y="58" type="curve" smooth="yes"/>
      <point x="198" y="52" type="line" smooth="yes"/>
      <point x="180" y="48"/>
      <point x="170" y="41"/>
      <point x="170" y="24" type="curve" smooth="yes"/>
      <point x="170" y="8"/>
      <point x="181" y="0"/>
      <point x="203" y="0" type="curve" smooth="yes"/>
      <point x="439" y="0" type="line" smooth="yes"/>
      <point x="462" y="0"/>
      <point x="472" y="8"/>
      <point x="472" y="24" type="curve" smooth="yes"/>
      <point x="472" y="41"/>
      <point x="462" y="48"/>
      <point x="444" y="52" type="curve" smooth="yes"/>
      <point x="419" y="58" type="line" smooth="yes"/>
      <point x="395" y="63"/>
      <point x="383" y="76"/>
      <point x="383" y="102" type="curve" smooth="yes"/>
      <point x="383" y="246" type="line"/>
    </contour>
    <contour>
      <point x="369" y="205" type="line"/>
      <point x="550" y="556" type="line" smooth="yes"/>
      <point x="576" y="606"/>
      <point x="596" y="620"/>
      <point x="624" y="629" type="curve" smooth="yes"/>
      <point x="644" y="636"/>
      <point x="652" y="652"/>
      <point x="652" y="668" type="curve" smooth="yes"/>
      <point x="652" y="689"/>
      <point x="641" y="700"/>
      <point x="616" y="700" type="curve" smooth="yes"/>
      <point x="450" y="700" type="line" smooth="yes"/>
      <point x="430" y="700"/>
      <point x="418" y="689"/>
      <point x="418" y="673" type="curve" smooth="yes"/>
      <point x="418" y="658"/>
      <point x="429" y="645"/>
      <point x="453" y="637" type="curve" smooth="yes"/>
      <point x="487" y="624"/>
      <point x="494" y="610"/>
      <point x="495" y="595" type="curve" smooth="yes"/>
      <point x="495" y="584"/>
      <point x="491" y="570"/>
      <point x="483" y="554" type="curve" smooth="yes"/>
      <point x="334" y="253" type="line"/>
      <point x="364" y="273" type="line"/>
      <point x="208" y="577" type="line" smooth="yes"/>
      <point x="193" y="607"/>
      <point x="207" y="633"/>
      <point x="238" y="639" type="curve" smooth="yes"/>
      <point x="259" y="644" type="line" smooth="yes"/>
      <point x="274" y="648"/>
      <point x="283" y="656"/>
      <point x="283" y="673" type="curve" smooth="yes"/>
      <point x="283" y="690"/>
      <point x="271" y="700"/>
      <point x="254" y="700" type="curve" smooth="yes"/>
      <point x="36" y="700" type="line" smooth="yes"/>
      <point x="15" y="700"/>
      <point x="2" y="691"/>
      <point x="2" y="675" type="curve" smooth="yes"/>
      <point x="2" y="661"/>
      <point x="6" y="649"/>
      <point x="27" y="641" type="curve" smooth="yes"/>
      <point x="53" y="632"/>
      <point x="55" y="619"/>
      <point x="75" y="581" type="curve" smooth="yes"/>
      <point x="275" y="205" type="line"/>
      <point x="279" y="208" type="line"/>
      <point x="277" y="204" type="line"/>
    </contour>
    <contour>
      <point x="339" y="710" type="move" name="center"/>
    </contour>
  </outline>
</glyph>
<glyph name="Z" format="1">
  <advance width="609"/>
  <unicode hex="005A"/>
  <outline>
    <contour>
      <point x="554" y="630" type="line" smooth="yes"/>
      <point x="566" y="648"/>
      <point x="573" y="661"/>
      <point x="573" y="672" type="curve" smooth="yes"/>
      <point x="573" y="687"/>
      <point x="561" y="698"/>
      <point x="535" y="698" type="curve" smooth="yes"/>
      <point x="173" y="698" type="line" smooth="yes"/>
      <point x="147" y="698"/>
      <point x="124" y="721"/>
      <point x="100" y="721" type="curve" smooth="yes"/>
      <point x="82" y="721"/>
      <point x="74" y="706"/>
      <point x="67" y="678" type="curve" smooth="yes"/>
      <point x="44" y="569" type="line" smooth="yes"/>
      <point x="41" y="559"/>
      <point x="40" y="551"/>
      <point x="40" y="542" type="curve" smooth="yes"/>
      <point x="40" y="525"/>
      <point x="50" y="515"/>
      <point x="63" y="515" type="curve" smooth="yes"/>
      <point x="84" y="515"/>
      <point x="97" y="527"/>
      <point x="110" y="549" type="curve" smooth="yes"/>
      <point x="134" y="588" type="line" smooth="yes"/>
      <point x="153" y="622"/>
      <point x="171" y="641"/>
      <point x="207" y="641" type="curve" smooth="yes"/>
      <point x="451" y="641" type="line"/>
      <point x="440" y="664" type="line"/>
      <point x="50" y="70" type="line" smooth="yes"/>
      <point x="35" y="47"/>
      <point x="33" y="39"/>
      <point x="33" y="28" type="curve" smooth="yes"/>
      <point x="33" y="11"/>
      <point x="46" y="-3"/>
      <point x="75" y="-3" type="curve" smooth="yes"/>
      <point x="399" y="-3" type="line" smooth="yes"/>
      <point x="461" y="-3"/>
      <point x="490" y="-28"/>
      <point x="518" y="-28" type="curve" smooth="yes"/>
      <point x="538" y="-28"/>
      <point x="547" y="-17"/>
      <point x="553" y="12" type="curve" smooth="yes"/>
      <point x="577" y="138" type="line" smooth="yes"/>
      <point x="580" y="155"/>
      <point x="582" y="163"/>
      <point x="582" y="173" type="curve" smooth="yes"/>
      <point x="582" y="191"/>
      <point x="569" y="201"/>
      <point x="556" y="201" type="curve" smooth="yes"/>
      <point x="539" y="201"/>
      <point x="528" y="191"/>
      <point x="516" y="169" type="curve" smooth="yes"/>
      <point x="485" y="116" type="line" smooth="yes"/>
      <point x="460" y="70"/>
      <point x="429" y="54"/>
      <point x="387" y="54" type="curve" smooth="yes"/>
      <point x="130" y="54" type="line"/>
      <point x="162" y="30" type="line"/>
    </contour>
  </outline>
</glyph>
<glyph name="bracketleft" format="1">
  <advance width="362"/>
  <unicode hex="005B"/>
  <outline>
    <contour>
      <point x="210" y="670" type="line" smooth="yes"/>
      <point x="210" y="693"/>
      <point x="228" y="711"/>
      <point x="249" y="711" type="curve" smooth="yes"/>
      <point x="290" y="711" type="line" smooth="yes"/>
      <point x="311" y="711"/>
      <point x="319" y="717"/>
      <point x="319" y="732" type="curve" smooth="yes"/>
      <point x="319" y="744"/>
      <point x="311" y="756"/>
      <point x="292" y="756" type="curve" smooth="yes"/>
      <point x="160" y="756" type="line" smooth="yes"/>
      <point x="134" y="756"/>
      <point x="114" y="731"/>
      <point x="114" y="701" type="curve" smooth="yes"/>
      <point x="114" y="-122" type="line" smooth="yes"/>
      <point x="114" y="-152"/>
      <point x="134" y="-177"/>
      <point x="160" y="-177" type="curve" smooth="yes"/>
      <point x="292" y="-177" type="line" smooth="yes"/>
      <point x="311" y="-177"/>
      <point x="319" y="-165"/>
      <point x="319" y="-153" type="curve" smooth="yes"/>
      <point x="319" y="-138"/>
      <point x="311" y="-132"/>
      <point x="290" y="-132" type="curve" smooth="yes"/>
      <point x="249" y="-132" type="line" smooth="yes"/>
      <point x="228" y="-132"/>
      <point x="210" y="-114"/>
      <point x="210" y="-91" type="curve" smooth="yes"/>
    </contour>
  </outline>
</glyph>
<glyph name="backslash" format="1">
  <advance width="420"/>
  <unicode hex="005C"/>
  <outline>
    <contour>
      <point x="46" y="696" type="curve" smooth="yes"/>
      <point x="41" y="708"/>
      <point x="38" y="718"/>
      <point x="38" y="726" type="curve" smooth="yes"/>
      <point x="38" y="750"/>
      <point x="56" y="767"/>
      <point x="77" y="767" type="curve" smooth="yes"/>
      <point x="100" y="767"/>
      <point x="116" y="747"/>
      <point x="120" y="726" type="curve" smooth="yes"/>
      <point x="144" y="624"/>
      <point x="192" y="454"/>
      <point x="229" y="344" type="curve" smooth="yes"/>
      <point x="266" y="230"/>
      <point x="336" y="65"/>
      <point x="374" y="-32" type="curve" smooth="yes"/>
      <point x="382" y="-50"/>
      <point x="383" y="-61"/>
      <point x="383" y="-71" type="curve" smooth="yes"/>
      <point x="383" y="-88"/>
      <point x="368" y="-106"/>
      <point x="347" y="-106" type="curve" smooth="yes"/>
      <point x="324" y="-106"/>
      <point x="303" y="-91"/>
      <point x="295" y="-56" type="curve" smooth="yes"/>
      <point x="273" y="42"/>
      <point x="233" y="197"/>
      <point x="189" y="328" type="curve" smooth="yes"/>
      <point x="151" y="449"/>
      <point x="86" y="605"/>
    </contour>
  </outline>
</glyph>
<glyph name="asciicircum" format="1">
  <advance width="430"/>
  <unicode hex="005E"/>
  <outline>
    <contour>
      <point x="60" y="496" type="curve" smooth="yes"/>
      <point x="140" y="648" type="line" smooth="yes"/>
      <point x="167" y="699"/>
      <point x="185" y="715"/>
      <point x="216" y="715" type="curve" smooth="yes"/>
      <point x="243" y="715"/>
      <point x="264" y="699"/>
      <point x="290" y="650" type="curve" smooth="yes"/>
      <point x="371" y="496" type="line" smooth="yes"/>
      <point x="377" y="485"/>
      <point x="385" y="470"/>
      <point x="385" y="456" type="curve" smooth="yes"/>
      <point x="385" y="441"/>
      <point x="377" y="433"/>
      <point x="361" y="433" type="curve" smooth="yes"/>
      <point x="351" y="433"/>
      <point x="338" y="437"/>
      <point x="321" y="458" type="curve" smooth="yes"/>
      <point x="188" y="627" type="line"/>
      <point x="243" y="627" type="line"/>
      <point x="110" y="458" type="line" smooth="yes"/>
      <point x="93" y="437"/>
      <point x="81" y="433"/>
      <point x="70" y="433" type="curve" smooth="yes"/>
      <point x="54" y="433"/>
      <point x="46" y="441"/>
      <point x="46" y="455" type="curve" smooth="yes"/>
      <point x="46" y="470"/>
      <point x="53" y="484"/>
    </contour>
  </outline>
</glyph>
<glyph name="a" format="1">
  <advance width="424"/>
  <unicode hex="0061"/>
  <outline>
    <contour>
      <point x="39" y="333" type="curve" smooth="yes"/>
      <point x="39" y="299"/>
      <point x="59" y="282"/>
      <point x="88" y="282" type="curve" smooth="yes"/>
      <point x="117" y="282"/>
      <point x="140" y="304"/>
      <point x="140" y="337" type="curve" smooth="yes"/>
      <point x="140" y="382" type="line" smooth="yes"/>
      <point x="140" y="406"/>
      <point x="165" y="420"/>
      <point x="206" y="420" type="curve" smooth="yes"/>
      <point x="254" y="420"/>
      <point x="279" y="385"/>
      <point x="279" y="321" type="curve" smooth="yes"/>
      <point x="279" y="77" type="line" smooth="yes"/>
      <point x="279" y="17"/>
      <point x="312" y="-10"/>
      <point x="359" y="-10" type="curve" smooth="yes"/>
      <point x="400" y="-10"/>
      <point x="427" y="23"/>
      <point x="427" y="45" type="curve" smooth="yes"/>
      <point x="427" y="49"/>
      <point x="424" y="54"/>
      <point x="418" y="54" type="curve" smooth="yes"/>
      <point x="412" y="54"/>
      <point x="407" y="43"/>
      <point x="394" y="43" type="curve" smooth="yes"/>
      <point x="378" y="43"/>
      <point x="369" y="57"/>
      <point x="369" y="82" type="curve" smooth="yes"/>
      <point x="369" y="326" type="line" smooth="yes"/>
      <point x="369" y="403"/>
      <point x="322" y="443"/>
      <point x="240" y="443" type="curve" smooth="yes"/>
      <point x="115" y="443"/>
      <point x="39" y="383"/>
    </contour>
    <contour>
      <point x="307" y="172" type="curve"/>
      <point x="316" y="189" type="line"/>
      <point x="288" y="204"/>
      <point x="261" y="213"/>
      <point x="205" y="213" type="curve" smooth="yes"/>
      <point x="87" y="213"/>
      <point x="23" y="160"/>
      <point x="23" y="95" type="curve" smooth="yes"/>
      <point x="23" y="32"/>
      <point x="75" y="-10"/>
      <point x="148" y="-10" type="curve" smooth="yes"/>
      <point x="215" y="-10"/>
      <point x="273" y="22"/>
      <point x="312" y="72" type="curve"/>
      <point x="303" y="86" type="line"/>
      <point x="279" y="54"/>
      <point x="244" y="38"/>
      <point x="211" y="38" type="curve" smooth="yes"/>
      <point x="161" y="38"/>
      <point x="127" y="68"/>
      <point x="127" y="117" type="curve" smooth="yes"/>
      <point x="127" y="162"/>
      <point x="162" y="194"/>
      <point x="217" y="194" type="curve" smooth="yes"/>
      <point x="252" y="194"/>
      <point x="282" y="187"/>
    </contour>
    <contour>
      <point x="238" y="479" type="move" name="center"/>
    </contour>
  </outline>
</glyph>
<glyph name="b" format="1">
  <advance width="574"/>
  <unicode hex="0062"/>
  <outline>
    <contour>
      <point x="9" y="652" type="curve" smooth="yes"/>
      <point x="32" y="652" type="line" smooth="yes"/>
      <point x="52" y="652"/>
      <point x="67" y="639"/>
      <point x="67" y="613" type="curve" smooth="yes"/>
      <point x="67" y="16" type="line" smooth="yes"/>
      <point x="67" y="-2"/>
      <point x="76" y="-11"/>
      <point x="90" y="-11" type="curve" smooth="yes"/>
      <point x="104" y="-11"/>
      <point x="114" y="-8"/>
      <point x="131" y="1" type="curve" smooth="yes"/>
      <point x="177" y="26" type="line" smooth="yes"/>
      <point x="177" y="724" type="line" smooth="yes"/>
      <point x="177" y="743"/>
      <point x="168" y="758"/>
      <point x="153" y="758" type="curve" smooth="yes"/>
      <point x="132" y="758"/>
      <point x="117" y="750"/>
      <point x="93" y="737" type="curve" smooth="yes"/>
      <point x="19" y="701" type="line" smooth="yes"/>
      <point x="-6" y="688"/>
      <point x="-12" y="678"/>
      <point x="-12" y="668" type="curve" smooth="yes"/>
      <point x="-12" y="658"/>
      <point x="-5" y="652"/>
    </contour>
    <contour>
      <point x="140" y="344" type="line"/>
      <point x="183" y="385"/>
      <point x="226" y="401"/>
      <point x="272" y="401" type="curve" smooth="yes"/>
      <point x="369" y="401"/>
      <point x="433" y="326"/>
      <point x="433" y="219" type="curve" smooth="yes"/>
      <point x="433" y="115"/>
      <point x="371" y="46"/>
      <point x="284" y="46" type="curve" smooth="yes"/>
      <point x="224" y="46"/>
      <point x="177" y="67"/>
      <point x="148" y="114" type="curve"/>
      <point x="112" y="78" type="line"/>
      <point x="157" y="15"/>
      <point x="217" y="-14"/>
      <point x="295" y="-14" type="curve" smooth="yes"/>
      <point x="437" y="-14"/>
      <point x="546" y="99"/>
      <point x="546" y="254" type="curve" smooth="yes"/>
      <point x="546" y="387"/>
      <point x="459" y="483"/>
      <point x="343" y="483" type="curve" smooth="yes"/>
      <point x="253" y="483"/>
      <point x="189" y="443"/>
      <point x="120" y="369" type="curve"/>
    </contour>
  </outline>
</glyph>
<glyph name="c" format="1">
  <advance width="375"/>
  <unicode hex="0063"/>
  <outline>
    <contour>
      <point x="371" y="332" type="curve" smooth="yes"/>
      <point x="371" y="399"/>
      <point x="320" y="443"/>
      <point x="227" y="443" type="curve" smooth="yes"/>
      <point x="106" y="443"/>
      <point x="15" y="342"/>
      <point x="15" y="204" type="curve" smooth="yes"/>
      <point x="15" y="71"/>
      <point x="92" y="-10"/>
      <point x="209" y="-10" type="curve" smooth="yes"/>
      <point x="308" y="-10"/>
      <point x="364" y="55"/>
      <point x="364" y="124" type="curve" smooth="yes"/>
      <point x="364" y="132"/>
      <point x="362" y="137"/>
      <point x="356" y="137" type="curve" smooth="yes"/>
      <point x="352" y="137"/>
      <point x="350" y="135"/>
      <point x="346" y="128" type="curve" smooth="yes"/>
      <point x="338" y="77"/>
      <point x="302" y="46"/>
      <point x="234" y="46" type="curve" smooth="yes"/>
      <point x="163" y="46"/>
      <point x="105" y="115"/>
      <point x="105" y="238" type="curve" smooth="yes"/>
      <point x="105" y="341"/>
      <point x="157" y="420"/>
      <point x="226" y="420" type="curve" smooth="yes"/>
      <point x="256" y="420"/>
      <point x="272" y="398"/>
      <point x="272" y="368" type="curve" smooth="yes"/>
      <point x="272" y="335" type="line" smooth="yes"/>
      <point x="272" y="304"/>
      <point x="292" y="281"/>
      <point x="322" y="281" type="curve" smooth="yes"/>
      <point x="352" y="281"/>
      <point x="371" y="302"/>
    </contour>
    <contour>
      <point x="246" y="484" type="move" name="center"/>
    </contour>
  </outline>
</glyph>
<glyph name="d" format="1">
  <advance width="477"/>
  <unicode hex="0064"/>
  <outline>
    <contour>
      <point x="424" y="706" type="line" smooth="yes"/>
      <point x="424" y="714"/>
      <point x="421" y="718"/>
      <point x="415" y="718" type="curve" smooth="yes"/>
      <point x="410" y="718"/>
      <point x="405" y="717"/>
      <point x="396" y="713" type="curve" smooth="yes"/>
      <point x="270" y="664" type="line" smooth="yes"/>
      <point x="262" y="661"/>
      <point x="258" y="657"/>
      <point x="258" y="652" type="curve" smooth="yes"/>
      <point x="258" y="646"/>
      <point x="264" y="644"/>
      <point x="274" y="644" type="curve" smooth="yes"/>
      <point x="318" y="644" type="line" smooth="yes"/>
      <point x="327" y="644"/>
      <point x="331" y="637"/>
      <point x="331" y="627" type="curve" smooth="yes"/>
      <point x="331" y="33" type="line" smooth="yes"/>
      <point x="331" y="10"/>
      <point x="340" y="0"/>
      <point x="361" y="0" type="curve" smooth="yes"/>
      <point x="469" y="0" type="line" smooth="yes"/>
      <point x="477" y="0"/>
      <point x="480" y="3"/>
      <point x="480" y="9" type="curve" smooth="yes"/>
      <point x="480" y="13"/>
      <point x="479" y="18"/>
      <point x="471" y="20" type="curve" smooth="yes"/>
      <point x="443" y="28" type="line" smooth="yes"/>
      <point x="430" y="32"/>
      <point x="424" y="38"/>
      <point x="424" y="53" type="curve" smooth="yes"/>
    </contour>
    <contour>
      <point x="360" y="96" type="line"/>
      <point x="321" y="57"/>
      <point x="286" y="44"/>
      <point x="246" y="44" type="curve" smooth="yes"/>
      <point x="165" y="44"/>
      <point x="116" y="122"/>
      <point x="116" y="233" type="curve" smooth="yes"/>
      <point x="116" y="344"/>
      <point x="176" y="411"/>
      <point x="251" y="411" type="curve" smooth="yes"/>
      <point x="308" y="411"/>
      <point x="336" y="388"/>
      <point x="366" y="339" type="curve"/>
      <point x="376" y="365" type="line"/>
      <point x="339" y="418"/>
      <point x="300" y="443"/>
      <point x="239" y="443" type="curve" smooth="yes"/>
      <point x="118" y="443"/>
      <point x="19" y="342"/>
      <point x="19" y="200" type="curve" smooth="yes"/>
      <point x="19" y="76"/>
      <point x="97" y="-10"/>
      <point x="193" y="-10" type="curve" smooth="yes"/>
      <point x="261" y="-10"/>
      <point x="312" y="15"/>
      <point x="371" y="78" type="curve"/>
    </contour>
  </outline>
</glyph>
<glyph name="e" format="1">
  <advance width="403"/>
  <unicode hex="0065"/>
  <outline>
    <contour>
      <point x="395" y="274" type="curve" smooth="yes"/>
      <point x="395" y="374"/>
      <point x="328" y="443"/>
      <point x="227" y="443" type="curve" smooth="yes"/>
      <point x="100" y="443"/>
      <point x="17" y="341"/>
      <point x="17" y="204" type="curve" smooth="yes"/>
      <point x="17" y="66"/>
      <point x="96" y="-10"/>
      <point x="218" y="-10" type="curve" smooth="yes"/>
      <point x="319" y="-10"/>
      <point x="392" y="67"/>
      <point x="392" y="130" type="curve" smooth="yes"/>
      <point x="392" y="136"/>
      <point x="389" y="139"/>
      <point x="386" y="139" type="curve" smooth="yes"/>
      <point x="382" y="139"/>
      <point x="379" y="138"/>
      <point x="373" y="134" type="curve" smooth="yes"/>
      <point x="353" y="75"/>
      <point x="311" y="52"/>
      <point x="250" y="52" type="curve" smooth="yes"/>
      <point x="168" y="52"/>
      <point x="103" y="120"/>
      <point x="103" y="238" type="curve" smooth="yes"/>
      <point x="103" y="362"/>
      <point x="149" y="414"/>
      <point x="208" y="414" type="curve" smooth="yes"/>
      <point x="264" y="414"/>
      <point x="301" y="373"/>
      <point x="301" y="291" type="curve" smooth="yes"/>
      <point x="301" y="276"/>
      <point x="290" y="266"/>
      <point x="275" y="266" type="curve" smooth="yes"/>
      <point x="77" y="266" type="line"/>
      <point x="77" y="245" type="line"/>
      <point x="365" y="245" type="line" smooth="yes"/>
      <point x="383" y="245"/>
      <point x="395" y="256"/>
    </contour>
    <contour>
      <point x="231" y="489" type="move" name="center"/>
    </contour>
  </outline>
</glyph>
<glyph name="f" format="1">
  <advance width="363"/>
  <unicode hex="0066"/>
  <outline>
    <contour>
      <point x="224" y="111" type="curve" smooth="yes"/>
      <point x="224" y="412" type="line"/>
      <point x="317" y="412" type="line" smooth="yes"/>
      <point x="338" y="412"/>
      <point x="351" y="422"/>
      <point x="351" y="441" type="curve" smooth="yes"/>
      <point x="351" y="461"/>
      <point x="338" y="468"/>
      <point x="319" y="468" type="curve" smooth="yes"/>
      <point x="220" y="468" type="line"/>
      <point x="225" y="470" type="line" smooth="yes"/>
      <point x="225" y="495"/>
      <point x="218" y="513"/>
      <point x="199" y="539" type="curve" smooth="yes"/>
      <point x="177" y="565"/>
      <point x="167" y="588"/>
      <point x="167" y="611" type="curve" smooth="yes"/>
      <point x="167" y="642"/>
      <point x="187" y="664"/>
      <point x="217" y="664" type="curve" smooth="yes"/>
      <point x="236" y="664"/>
      <point x="248" y="653"/>
      <point x="248" y="634" type="curve" smooth="yes"/>
      <point x="248" y="618" type="line" smooth="yes"/>
      <point x="248" y="583"/>
      <point x="274" y="558"/>
      <point x="308" y="558" type="curve" smooth="yes"/>
      <point x="344" y="558"/>
      <point x="365" y="582"/>
      <point x="365" y="621" type="curve" smooth="yes"/>
      <point x="365" y="680"/>
      <point x="322" y="715"/>
      <point x="250" y="715" type="curve" smooth="yes"/>
      <point x="155" y="715"/>
      <point x="86" y="654"/>
      <point x="86" y="572" type="curve" smooth="yes"/>
      <point x="86" y="521"/>
      <point x="121" y="491"/>
      <point x="121" y="452" type="curve" smooth="yes"/>
      <point x="121" y="438" type="line"/>
      <point x="141" y="468" type="line"/>
      <point x="55" y="468" type="line" smooth="yes"/>
      <point x="40" y="468"/>
      <point x="29" y="460"/>
      <point x="29" y="446" type="curve" smooth="yes"/>
      <point x="29" y="432"/>
      <point x="42" y="421"/>
      <point x="58" y="417" type="curve" smooth="yes"/>
      <point x="86" y="409" type="line" smooth="yes"/>
      <point x="107" y="403"/>
      <point x="117" y="390"/>
      <point x="117" y="363" type="curve" smooth="yes"/>
      <point x="117" y="99" type="line" smooth="yes"/>
      <point x="117" y="73"/>
      <point x="104" y="60"/>
      <point x="88" y="56" type="curve" smooth="yes"/>
      <point x="69" y="51" type="line" smooth="yes"/>
      <point x="52" y="47"/>
      <point x="44" y="39"/>
      <point x="44" y="24" type="curve" smooth="yes"/>
      <point x="44" y="8"/>
      <point x="54" y="0"/>
      <point x="70" y="0" type="curve" smooth="yes"/>
      <point x="286" y="0" type="line" smooth="yes"/>
      <point x="308" y="0"/>
      <point x="316" y="8"/>
      <point x="316" y="24" type="curve" smooth="yes"/>
      <point x="316" y="40"/>
      <point x="305" y="47"/>
      <point x="287" y="52" type="curve" smooth="yes"/>
      <point x="264" y="58" type="line" smooth="yes"/>
      <point x="239" y="65"/>
      <point x="224" y="84"/>
    </contour>
  </outline>
</glyph>
<glyph name="g" format="1">
  <advance width="526"/>
  <unicode hex="0067"/>
  <outline>
    <contour>
      <point x="352" y="35" type="curve" smooth="yes"/>
      <point x="480" y="1"/>
      <point x="515" y="-36"/>
      <point x="515" y="-95" type="curve" smooth="yes"/>
      <point x="515" y="-182"/>
      <point x="420" y="-245"/>
      <point x="254" y="-245" type="curve" smooth="yes"/>
      <point x="95" y="-245"/>
      <point x="20" y="-192"/>
      <point x="20" y="-120" type="curve" smooth="yes"/>
      <point x="20" y="-51"/>
      <point x="71" y="2"/>
      <point x="201" y="17" type="curve"/>
      <point x="218" y="-11" type="line"/>
      <point x="162" y="-18"/>
      <point x="133" y="-56"/>
      <point x="133" y="-92" type="curve" smooth="yes"/>
      <point x="133" y="-149"/>
      <point x="183" y="-188"/>
      <point x="288" y="-188" type="curve" smooth="yes"/>
      <point x="383" y="-188"/>
      <point x="420" y="-162"/>
      <point x="420" y="-125" type="curve" smooth="yes"/>
      <point x="420" y="-96"/>
      <point x="398" y="-83"/>
      <point x="287" y="-50" type="curve" smooth="yes"/>
      <point x="191" y="-22"/>
      <point x="158" y="9"/>
      <point x="158" y="57" type="curve" smooth="yes"/>
      <point x="158" y="101"/>
      <point x="183" y="141"/>
      <point x="231" y="151" type="curve"/>
      <point x="243" y="142" type="line"/>
      <point x="230" y="133"/>
      <point x="226" y="124"/>
      <point x="226" y="114" type="curve" smooth="yes"/>
      <point x="226" y="85"/>
      <point x="246" y="67"/>
    </contour>
    <contour>
      <point x="481" y="304" type="curve" smooth="yes"/>
      <point x="481" y="197"/>
      <point x="389" y="115"/>
      <point x="264" y="115" type="curve" smooth="yes"/>
      <point x="124" y="115"/>
      <point x="39" y="195"/>
      <point x="39" y="289" type="curve" smooth="yes"/>
      <point x="39" y="400"/>
      <point x="126" y="483"/>
      <point x="267" y="483" type="curve" smooth="yes"/>
      <point x="406" y="483"/>
      <point x="481" y="397"/>
    </contour>
    <contour>
      <point x="339" y="449" type="line" smooth="yes"/>
      <point x="362" y="480" type="line" smooth="yes"/>
      <point x="402" y="534"/>
      <point x="433" y="558"/>
      <point x="466" y="558" type="curve" smooth="yes"/>
      <point x="500" y="558"/>
      <point x="526" y="533"/>
      <point x="526" y="495" type="curve" smooth="yes"/>
      <point x="526" y="464"/>
      <point x="504" y="444"/>
      <point x="478" y="444" type="curve" smooth="yes"/>
      <point x="464" y="444"/>
      <point x="456" y="450"/>
      <point x="449" y="455" type="curve" smooth="yes"/>
      <point x="437" y="463"/>
      <point x="431" y="467"/>
      <point x="421" y="467" type="curve" smooth="yes"/>
      <point x="406" y="467"/>
      <point x="398" y="461"/>
      <point x="371" y="431" type="curve"/>
    </contour>
    <contour>
      <point x="243" y="426" type="curve" smooth="yes"/>
      <point x="188" y="426"/>
      <point x="148" y="386"/>
      <point x="148" y="327" type="curve" smooth="yes"/>
      <point x="148" y="242"/>
      <point x="202" y="171"/>
      <point x="277" y="171" type="curve" smooth="yes"/>
      <point x="327" y="171"/>
      <point x="368" y="205"/>
      <point x="368" y="267" type="curve" smooth="yes"/>
      <point x="368" y="359"/>
      <point x="315" y="426"/>
    </contour>
  </outline>
</glyph>
<glyph name="h" format="1">
  <advance width="493"/>
  <unicode hex="0068"/>
  <outline>
    <contour>
      <point x="139" y="326" type="line" smooth="yes"/>
      <point x="126" y="340" type="line"/>
      <point x="150" y="364" type="line" smooth="yes"/>
      <point x="197" y="414"/>
      <point x="240" y="443"/>
      <point x="297" y="443" type="curve" smooth="yes"/>
      <point x="355" y="443"/>
      <point x="397" y="401"/>
      <point x="411" y="318" type="curve" smooth="yes"/>
      <point x="457" y="49" type="line" smooth="yes"/>
      <point x="458" y="37"/>
      <point x="463" y="31"/>
      <point x="474" y="26" type="curve" smooth="yes"/>
      <point x="483" y="21" type="line" smooth="yes"/>
      <point x="489" y="19"/>
      <point x="494" y="16"/>
      <point x="494" y="11" type="curve" smooth="yes"/>
      <point x="494" y="5"/>
      <point x="490" y="0"/>
      <point x="483" y="0" type="curve" smooth="yes"/>
      <point x="314" y="0" type="line" smooth="yes"/>
      <point x="309" y="0"/>
      <point x="304" y="4"/>
      <point x="304" y="11" type="curve" smooth="yes"/>
      <point x="304" y="17"/>
      <point x="311" y="22"/>
      <point x="320" y="24" type="curve" smooth="yes"/>
      <point x="338" y="28" type="line" smooth="yes"/>
      <point x="354" y="31"/>
      <point x="362" y="39"/>
      <point x="359" y="59" type="curve" smooth="yes"/>
      <point x="324" y="301" type="line" smooth="yes"/>
      <point x="316" y="360"/>
      <point x="287" y="390"/>
      <point x="242" y="390" type="curve" smooth="yes"/>
      <point x="210" y="390"/>
      <point x="185" y="374"/>
      <point x="156" y="343" type="curve" smooth="yes"/>
    </contour>
    <component base="l" xOffset="-6"/>
  </outline>
</glyph>
<glyph name="k" format="1">
  <advance width="591"/>
  <unicode hex="006B"/>
  <outline>
    <contour>
      <point x="337" y="325" type="line"/>
      <point x="510" y="95" type="line" smooth="yes"/>
      <point x="530" y="68"/>
      <point x="549" y="58"/>
      <point x="568" y="52" type="curve" smooth="yes"/>
      <point x="581" y="47"/>
      <point x="589" y="40"/>
      <point x="589" y="25" type="curve" smooth="yes"/>
      <point x="589" y="11"/>
      <point x="578" y="0"/>
      <point x="554" y="0" type="curve" smooth="yes"/>
      <point x="377" y="0" type="line" smooth="yes"/>
      <point x="360" y="0"/>
      <point x="348" y="8"/>
      <point x="348" y="23" type="curve" smooth="yes"/>
      <point x="348" y="38"/>
      <point x="359" y="44"/>
      <point x="373" y="49" type="curve" smooth="yes"/>
      <point x="387" y="55"/>
      <point x="393" y="62"/>
      <point x="393" y="74" type="curve" smooth="yes"/>
      <point x="393" y="83"/>
      <point x="389" y="92"/>
      <point x="383" y="100" type="curve" smooth="yes"/>
      <point x="265" y="263" type="line"/>
    </contour>
    <contour>
      <point x="166" y="217" type="line"/>
      <point x="344" y="357" type="line" smooth="yes"/>
      <point x="368" y="375"/>
      <point x="374" y="387"/>
      <point x="374" y="400" type="curve" smooth="yes"/>
      <point x="374" y="410"/>
      <point x="369" y="415"/>
      <point x="354" y="421" type="curve" smooth="yes"/>
      <point x="339" y="426"/>
      <point x="331" y="433"/>
      <point x="331" y="447" type="curve" smooth="yes"/>
      <point x="331" y="462"/>
      <point x="343" y="469"/>
      <point x="362" y="469" type="curve" smooth="yes"/>
      <point x="528" y="469" type="line" smooth="yes"/>
      <point x="549" y="469"/>
      <point x="558" y="460"/>
      <point x="558" y="447" type="curve" smooth="yes"/>
      <point x="558" y="432"/>
      <point x="550" y="425"/>
      <point x="533" y="420" type="curve" smooth="yes"/>
      <point x="495" y="407"/>
      <point x="466" y="390"/>
      <point x="422" y="356" type="curve" smooth="yes"/>
      <point x="193" y="177" type="line"/>
    </contour>
    <component base="l"/>
  </outline>
</glyph>
<glyph name="l" format="1">
  <advance width="231"/>
  <unicode hex="006C"/>
  <outline>
    <contour>
      <point x="163" y="706" type="curve" smooth="yes"/>
      <point x="163" y="46" type="line" smooth="yes"/>
      <point x="163" y="39"/>
      <point x="165" y="33"/>
      <point x="172" y="30" type="curve" smooth="yes"/>
      <point x="211" y="19" type="line" smooth="yes"/>
      <point x="215" y="17"/>
      <point x="219" y="15"/>
      <point x="219" y="9" type="curve" smooth="yes"/>
      <point x="219" y="3"/>
      <point x="215" y="0"/>
      <point x="211" y="0" type="curve" smooth="yes"/>
      <point x="26" y="0" type="line" smooth="yes"/>
      <point x="18" y="0"/>
      <point x="14" y="4"/>
      <point x="14" y="9" type="curve" smooth="yes"/>
      <point x="14" y="15"/>
      <point x="16" y="17"/>
      <point x="22" y="20" type="curve" smooth="yes"/>
      <point x="61" y="30" type="line" smooth="yes"/>
      <point x="66" y="33"/>
      <point x="72" y="35"/>
      <point x="72" y="46" type="curve" smooth="yes"/>
      <point x="72" y="635" type="line" smooth="yes"/>
      <point x="72" y="643"/>
      <point x="67" y="648"/>
      <point x="63" y="648" type="curve" smooth="yes"/>
      <point x="24" y="648" type="line" smooth="yes"/>
      <point x="18" y="648"/>
      <point x="14" y="650"/>
      <point x="14" y="657" type="curve" smooth="yes"/>
      <point x="14" y="660"/>
      <point x="14" y="663"/>
      <point x="21" y="666" type="curve" smooth="yes"/>
      <point x="130" y="713" type="line" smooth="yes"/>
      <point x="139" y="717"/>
      <point x="144" y="718"/>
      <point x="151" y="718" type="curve" smooth="yes"/>
      <point x="158" y="718"/>
      <point x="163" y="712"/>
    </contour>
  </outline>
</glyph>
<glyph name="m" format="1">
  <advance width="930"/>
  <unicode hex="006D"/>
  <outline>
    <contour>
      <point x="75" y="54" type="curve" smooth="yes"/>
      <point x="60" y="50" type="line" smooth="yes"/>
      <point x="43" y="46"/>
      <point x="35" y="39"/>
      <point x="35" y="25" type="curve" smooth="yes"/>
      <point x="35" y="9"/>
      <point x="47" y="0"/>
      <point x="65" y="0" type="curve" smooth="yes"/>
      <point x="253" y="0" type="line" smooth="yes"/>
      <point x="276" y="0"/>
      <point x="287" y="8"/>
      <point x="287" y="24" type="curve" smooth="yes"/>
      <point x="287" y="39"/>
      <point x="278" y="46"/>
      <point x="259" y="51" type="curve" smooth="yes"/>
      <point x="243" y="55" type="line" smooth="yes"/>
      <point x="227" y="58"/>
      <point x="215" y="72"/>
      <point x="215" y="99" type="curve" smooth="yes"/>
      <point x="215" y="452" type="line" smooth="yes"/>
      <point x="215" y="471"/>
      <point x="206" y="483"/>
      <point x="190" y="483" type="curve" smooth="yes"/>
      <point x="176" y="483"/>
      <point x="163" y="478"/>
      <point x="142" y="468" type="curve" smooth="yes"/>
      <point x="55" y="426" type="line" smooth="yes"/>
      <point x="39" y="418"/>
      <point x="29" y="407"/>
      <point x="29" y="396" type="curve" smooth="yes"/>
      <point x="29" y="382"/>
      <point x="39" y="377"/>
      <point x="54" y="377" type="curve" smooth="yes"/>
      <point x="77" y="377" type="line" smooth="yes"/>
      <point x="91" y="377"/>
      <point x="107" y="366"/>
      <point x="107" y="340" type="curve" smooth="yes"/>
      <point x="107" y="97" type="line" smooth="yes"/>
      <point x="107" y="70"/>
      <point x="94" y="58"/>
    </contour>
    <contour>
      <point x="529" y="348" type="line" smooth="yes"/>
      <point x="529" y="431"/>
      <point x="463" y="483"/>
      <point x="387" y="483" type="curve" smooth="yes"/>
      <point x="319" y="483"/>
      <point x="256" y="453"/>
      <point x="201" y="391" type="curve"/>
      <point x="179" y="367" type="line"/>
      <point x="203" y="335" type="line"/>
      <point x="223" y="356" type="line" smooth="yes"/>
      <point x="262" y="393"/>
      <point x="296" y="407"/>
      <point x="330" y="407" type="curve" smooth="yes"/>
      <point x="377" y="407"/>
      <point x="423" y="380"/>
      <point x="423" y="303" type="curve" smooth="yes"/>
      <point x="423" y="101" type="line" smooth="yes"/>
      <point x="423" y="76"/>
      <point x="414" y="60"/>
      <point x="397" y="56" type="curve" smooth="yes"/>
      <point x="383" y="53" type="line" smooth="yes"/>
      <point x="365" y="49"/>
      <point x="353" y="41"/>
      <point x="353" y="27" type="curve" smooth="yes"/>
      <point x="353" y="9"/>
      <point x="365" y="0"/>
      <point x="380" y="0" type="curve" smooth="yes"/>
      <point x="575" y="0" type="line" smooth="yes"/>
      <point x="592" y="0"/>
      <point x="602" y="13"/>
      <point x="602" y="27" type="curve" smooth="yes"/>
      <point x="602" y="40"/>
      <point x="592" y="49"/>
      <point x="576" y="52" type="curve" smooth="yes"/>
      <point x="560" y="55" type="line" smooth="yes"/>
      <point x="541" y="58"/>
      <point x="529" y="76"/>
      <point x="529" y="102" type="curve" smooth="yes"/>
    </contour>
    <contour>
      <point x="507" y="336" type="line" smooth="yes"/>
      <point x="531" y="360" type="line" smooth="yes"/>
      <point x="567" y="395"/>
      <point x="598" y="406"/>
      <point x="632" y="406" type="curve" smooth="yes"/>
      <point x="677" y="406"/>
      <point x="708" y="380"/>
      <point x="716" y="317" type="curve" smooth="yes"/>
      <point x="742" y="108" type="line" smooth="yes"/>
      <point x="746" y="70"/>
      <point x="733" y="57"/>
      <point x="707" y="54" type="curve" smooth="yes"/>
      <point x="694" y="52" type="line" smooth="yes"/>
      <point x="679" y="49"/>
      <point x="666" y="43"/>
      <point x="666" y="26" type="curve" smooth="yes"/>
      <point x="666" y="9"/>
      <point x="679" y="0"/>
      <point x="696" y="0" type="curve" smooth="yes"/>
      <point x="888" y="0" type="line" smooth="yes"/>
      <point x="908" y="0"/>
      <point x="918" y="9"/>
      <point x="918" y="24" type="curve" smooth="yes"/>
      <point x="918" y="39"/>
      <point x="907" y="47"/>
      <point x="893" y="51" type="curve" smooth="yes"/>
      <point x="886" y="53" type="line" smooth="yes"/>
      <point x="869" y="57"/>
      <point x="859" y="70"/>
      <point x="856" y="94" type="curve" smooth="yes"/>
      <point x="823" y="348" type="line" smooth="yes"/>
      <point x="811" y="438"/>
      <point x="756" y="483"/>
      <point x="689" y="483" type="curve" smooth="yes"/>
      <point x="623" y="483"/>
      <point x="568" y="456"/>
      <point x="514" y="401" type="curve" smooth="yes"/>
      <point x="483" y="369" type="line"/>
    </contour>
  </outline>
</glyph>
<glyph name="n" format="1">
  <advance width="506"/>
  <unicode hex="006E"/>
  <outline>
    <contour>
      <point x="169" y="431" type="line" smooth="yes"/>
      <point x="169" y="438"/>
      <point x="166" y="443"/>
      <point x="158" y="443" type="curve" smooth="yes"/>
      <point x="152" y="443"/>
      <point x="147" y="443"/>
      <point x="136" y="438" type="curve" smooth="yes"/>
      <point x="28" y="392" type="line" smooth="yes"/>
      <point x="21" y="389"/>
      <point x="20" y="385"/>
      <point x="20" y="382" type="curve" smooth="yes"/>
      <point x="20" y="375"/>
      <point x="24" y="373"/>
      <point x="29" y="373" type="curve" smooth="yes"/>
      <point x="65" y="373" type="line" smooth="yes"/>
      <point x="71" y="373"/>
      <point x="78" y="368"/>
      <point x="78" y="358" type="curve" smooth="yes"/>
      <point x="78" y="48" type="line" smooth="yes"/>
      <point x="78" y="38"/>
      <point x="75" y="32"/>
      <point x="65" y="29" type="curve" smooth="yes"/>
      <point x="29" y="21" type="line" smooth="yes"/>
      <point x="23" y="19"/>
      <point x="21" y="15"/>
      <point x="21" y="9" type="curve" smooth="yes"/>
      <point x="21" y="3"/>
      <point x="27" y="0"/>
      <point x="34" y="0" type="curve" smooth="yes"/>
      <point x="216" y="0" type="line" smooth="yes"/>
      <point x="223" y="0"/>
      <point x="226" y="3"/>
      <point x="226" y="9" type="curve" smooth="yes"/>
      <point x="226" y="15"/>
      <point x="224" y="18"/>
      <point x="220" y="19" type="curve" smooth="yes"/>
      <point x="182" y="29" type="line" smooth="yes"/>
      <point x="173" y="31"/>
      <point x="169" y="39"/>
      <point x="169" y="49" type="curve" smooth="yes"/>
    </contour>
    <contour>
      <point x="152" y="326" type="line" smooth="yes"/>
      <point x="169" y="343" type="line" smooth="yes"/>
      <point x="199" y="374"/>
      <point x="224" y="390"/>
      <point x="256" y="390" type="curve" smooth="yes"/>
      <point x="301" y="390"/>
      <point x="329" y="359"/>
      <point x="337" y="299" type="curve" smooth="yes"/>
      <point x="373" y="59" type="line" smooth="yes"/>
      <point x="375" y="39"/>
      <point x="367" y="31"/>
      <point x="351" y="28" type="curve" smooth="yes"/>
      <point x="333" y="24" type="line" smooth="yes"/>
      <point x="324" y="22"/>
      <point x="317" y="17"/>
      <point x="317" y="11" type="curve" smooth="yes"/>
      <point x="317" y="4"/>
      <point x="322" y="0"/>
      <point x="327" y="0" type="curve" smooth="yes"/>
      <point x="496" y="0" type="line" smooth="yes"/>
      <point x="503" y="0"/>
      <point x="507" y="5"/>
      <point x="507" y="11" type="curve" smooth="yes"/>
      <point x="507" y="16"/>
      <point x="502" y="19"/>
      <point x="496" y="21" type="curve" smooth="yes"/>
      <point x="488" y="26" type="line" smooth="yes"/>
      <point x="477" y="31"/>
      <point x="472" y="37"/>
      <point x="470" y="49" type="curve" smooth="yes"/>
      <point x="424" y="318" type="line" smooth="yes"/>
      <point x="410" y="401"/>
      <point x="368" y="443"/>
      <point x="310" y="443" type="curve" smooth="yes"/>
      <point x="253" y="443"/>
      <point x="211" y="414"/>
      <point x="163" y="364" type="curve" smooth="yes"/>
      <point x="139" y="340" type="line"/>
    </contour>
  </outline>
</glyph>
<glyph name="o" format="1">
  <advance width="469"/>
  <unicode hex="006F"/>
  <outline>
    <contour>
      <point x="242" y="443" type="curve" smooth="yes"/>
      <point x="108" y="443"/>
      <point x="16" y="340"/>
      <point x="16" y="215" type="curve" smooth="yes"/>
      <point x="16" y="82"/>
      <point x="103" y="-10"/>
      <point x="225" y="-10" type="curve" smooth="yes"/>
      <point x="353" y="-10"/>
      <point x="453" y="82"/>
      <point x="453" y="215" type="curve" smooth="yes"/>
      <point x="453" y="348"/>
      <point x="364" y="443"/>
    </contour>
    <contour>
      <point x="355" y="172" type="curve" smooth="yes"/>
      <point x="355" y="78"/>
      <point x="318" y="25"/>
      <point x="256" y="25" type="curve" smooth="yes"/>
      <point x="177" y="25"/>
      <point x="114" y="122"/>
      <point x="114" y="244" type="curve" smooth="yes"/>
      <point x="114" y="347"/>
      <point x="154" y="411"/>
      <point x="214" y="411" type="curve" smooth="yes"/>
      <point x="293" y="411"/>
      <point x="355" y="303"/>
    </contour>
  </outline>
</glyph>
<glyph name="p" format="1">
  <advance width="599"/>
  <unicode hex="0070"/>
  <outline>
    <contour>
      <point x="199" y="450" type="line" smooth="yes"/>
      <point x="199" y="471"/>
      <point x="189" y="483"/>
      <point x="173" y="483" type="curve" smooth="yes"/>
      <point x="158" y="483"/>
      <point x="143" y="476"/>
      <point x="124" y="467" type="curve" smooth="yes"/>
      <point x="40" y="431" type="line" smooth="yes"/>
      <point x="26" y="425"/>
      <point x="16" y="412"/>
      <point x="16" y="402" type="curve" smooth="yes"/>
      <point x="16" y="391"/>
      <point x="23" y="382"/>
      <point x="38" y="382" type="curve" smooth="yes"/>
      <point x="54" y="382" type="line" smooth="yes"/>
      <point x="78" y="382"/>
      <point x="92" y="371"/>
      <point x="92" y="344" type="curve" smooth="yes"/>
      <point x="92" y="-143" type="line" smooth="yes"/>
      <point x="92" y="-163"/>
      <point x="84" y="-185"/>
      <point x="66" y="-189" type="curve" smooth="yes"/>
      <point x="48" y="-193" type="line" smooth="yes"/>
      <point x="31" y="-197"/>
      <point x="19" y="-202"/>
      <point x="18" y="-218" type="curve" smooth="yes"/>
      <point x="17" y="-235"/>
      <point x="27" y="-245"/>
      <point x="53" y="-245" type="curve" smooth="yes"/>
      <point x="259" y="-245" type="line" smooth="yes"/>
      <point x="279" y="-245"/>
      <point x="287" y="-234"/>
      <point x="287" y="-219" type="curve" smooth="yes"/>
      <point x="287" y="-205"/>
      <point x="277" y="-200"/>
      <point x="260" y="-196" type="curve" smooth="yes"/>
      <point x="241" y="-192" type="line" smooth="yes"/>
      <point x="215" y="-185"/>
      <point x="199" y="-172"/>
      <point x="199" y="-141" type="curve" smooth="yes"/>
    </contour>
    <contour>
      <point x="165" y="344" type="line"/>
      <point x="208" y="385"/>
      <point x="251" y="401"/>
      <point x="297" y="401" type="curve" smooth="yes"/>
      <point x="394" y="401"/>
      <point x="458" y="326"/>
      <point x="458" y="219" type="curve" smooth="yes"/>
      <point x="458" y="115"/>
      <point x="396" y="46"/>
      <point x="309" y="46" type="curve" smooth="yes"/>
      <point x="249" y="46"/>
      <point x="202" y="67"/>
      <point x="173" y="114" type="curve"/>
      <point x="137" y="78" type="line"/>
      <point x="182" y="15"/>
      <point x="242" y="-14"/>
      <point x="320" y="-14" type="curve" smooth="yes"/>
      <point x="463" y="-14"/>
      <point x="572" y="99"/>
      <point x="572" y="254" type="curve" smooth="yes"/>
      <point x="572" y="387"/>
      <point x="484" y="483"/>
      <point x="368" y="483" type="curve" smooth="yes"/>
      <point x="278" y="483"/>
      <point x="214" y="443"/>
      <point x="145" y="369" type="curve"/>
    </contour>
  </outline>
</glyph>
<glyph name="q" format="1">
  <advance width="568"/>
  <unicode hex="0071"/>
  <outline>
    <contour>
      <point x="505" y="-142" type="curve" smooth="yes"/>
      <point x="505" y="440" type="line" smooth="yes"/>
      <point x="505" y="460"/>
      <point x="495" y="471"/>
      <point x="482" y="471" type="curve" smooth="yes"/>
      <point x="468" y="471"/>
      <point x="455" y="466"/>
      <point x="440" y="458" type="curve" smooth="yes"/>
      <point x="394" y="433" type="line" smooth="yes"/>
      <point x="394" y="-140" type="line" smooth="yes"/>
      <point x="394" y="-171"/>
      <point x="378" y="-185"/>
      <point x="351" y="-191" type="curve" smooth="yes"/>
      <point x="332" y="-195" type="line" smooth="yes"/>
      <point x="317" y="-199"/>
      <point x="308" y="-205"/>
      <point x="308" y="-219" type="curve" smooth="yes"/>
      <point x="308" y="-234"/>
      <point x="316" y="-245"/>
      <point x="332" y="-245" type="curve" smooth="yes"/>
      <point x="542" y="-245" type="line" smooth="yes"/>
      <point x="565" y="-245"/>
      <point x="574" y="-235"/>
      <point x="573" y="-218" type="curve" smooth="yes"/>
      <point x="572" y="-202"/>
      <point x="562" y="-196"/>
      <point x="547" y="-192" type="curve" smooth="yes"/>
      <point x="531" y="-188" type="line" smooth="yes"/>
      <point x="514" y="-184"/>
      <point x="505" y="-162"/>
    </contour>
    <contour>
      <point x="428" y="128" type="line"/>
      <point x="383" y="84"/>
      <point x="344" y="68"/>
      <point x="297" y="68" type="curve" smooth="yes"/>
      <point x="206" y="68"/>
      <point x="142" y="139"/>
      <point x="142" y="251" type="curve" smooth="yes"/>
      <point x="142" y="358"/>
      <point x="207" y="425"/>
      <point x="294" y="425" type="curve" smooth="yes"/>
      <point x="352" y="425"/>
      <point x="394" y="402"/>
      <point x="423" y="355" type="curve"/>
      <point x="459" y="395" type="line"/>
      <point x="414" y="456"/>
      <point x="358" y="483"/>
      <point x="279" y="483" type="curve" smooth="yes"/>
      <point x="140" y="483"/>
      <point x="28" y="372"/>
      <point x="28" y="216" type="curve" smooth="yes"/>
      <point x="28" y="81"/>
      <point x="118" y="-14"/>
      <point x="230" y="-14" type="curve" smooth="yes"/>
      <point x="320" y="-14"/>
      <point x="378" y="24"/>
      <point x="451" y="101" type="curve"/>
    </contour>
  </outline>
</glyph>
<glyph name="r" format="1">
  <advance width="353"/>
  <unicode hex="0072"/>
  <outline>
    <contour>
      <point x="158" y="225" type="line"/>
      <point x="160" y="366"/>
      <point x="199" y="443"/>
      <point x="279" y="443" type="curve" smooth="yes"/>
      <point x="325" y="443"/>
      <point x="355" y="409"/>
      <point x="355" y="363" type="curve" smooth="yes"/>
      <point x="355" y="325"/>
      <point x="335" y="303"/>
      <point x="305" y="303" type="curve" smooth="yes"/>
      <point x="283" y="303"/>
      <point x="266" y="321"/>
      <point x="263" y="343" type="curve" smooth="yes"/>
      <point x="260" y="391"/>
      <point x="256" y="400"/>
      <point x="240" y="400" type="curve" smooth="yes"/>
      <point x="206" y="400"/>
      <point x="171" y="343"/>
      <point x="171" y="229" type="curve"/>
    </contour>
    <contour>
      <point x="171" y="434" type="curve" smooth="yes"/>
      <point x="171" y="58" type="line" smooth="yes"/>
      <point x="171" y="48"/>
      <point x="176" y="40"/>
      <point x="187" y="36" type="curve" smooth="yes"/>
      <point x="245" y="21" type="line" smooth="yes"/>
      <point x="254" y="19"/>
      <point x="259" y="15"/>
      <point x="259" y="9" type="curve" smooth="yes"/>
      <point x="259" y="3"/>
      <point x="255" y="0"/>
      <point x="250" y="0" type="curve" smooth="yes"/>
      <point x="33" y="0" type="line" smooth="yes"/>
      <point x="26" y="0"/>
      <point x="21" y="4"/>
      <point x="21" y="9" type="curve" smooth="yes"/>
      <point x="21" y="14"/>
      <point x="23" y="16"/>
      <point x="29" y="18" type="curve" smooth="yes"/>
      <point x="69" y="29" type="line" smooth="yes"/>
      <point x="77" y="32"/>
      <point x="81" y="39"/>
      <point x="81" y="47" type="curve" smooth="yes"/>
      <point x="81" y="357" type="line" smooth="yes"/>
      <point x="81" y="368"/>
      <point x="80" y="372"/>
      <point x="71" y="372" type="curve" smooth="yes"/>
      <point x="33" y="372" type="line" smooth="yes"/>
      <point x="26" y="372"/>
      <point x="22" y="375"/>
      <point x="22" y="381" type="curve" smooth="yes"/>
      <point x="22" y="386"/>
      <point x="25" y="390"/>
      <point x="34" y="393" type="curve" smooth="yes"/>
      <point x="138" y="439" type="line" smooth="yes"/>
      <point x="148" y="442"/>
      <point x="154" y="443"/>
      <point x="160" y="443" type="curve" smooth="yes"/>
      <point x="166" y="443"/>
      <point x="171" y="440"/>
    </contour>
  </outline>
</glyph>
<glyph name="s" format="1">
  <advance width="392"/>
  <unicode hex="0073"/>
  <outline>
    <contour>
      <point x="207" y="14" type="curve" smooth="yes"/>
      <point x="163" y="14"/>
      <point x="118" y="43"/>
      <point x="68" y="118" type="curve" smooth="yes"/>
      <point x="62" y="127"/>
      <point x="59" y="129"/>
      <point x="54" y="129" type="curve" smooth="yes"/>
      <point x="49" y="129"/>
      <point x="45" y="123"/>
      <point x="45" y="115" type="curve" smooth="yes"/>
      <point x="45" y="110"/>
      <point x="46" y="104"/>
      <point x="48" y="97" type="curve" smooth="yes"/>
      <point x="70" y="3" type="line" smooth="yes"/>
      <point x="72" y="-6"/>
      <point x="79" y="-10"/>
      <point x="86" y="-10" type="curve" smooth="yes"/>
      <point x="90" y="-10"/>
      <point x="95" y="5"/>
      <point x="114" y="5" type="curve" smooth="yes"/>
      <point x="127" y="5"/>
      <point x="160" y="-10"/>
      <point x="208" y="-10" type="curve" smooth="yes"/>
      <point x="297" y="-10"/>
      <point x="357" y="48"/>
      <point x="357" y="120" type="curve" smooth="yes"/>
      <point x="357" y="181"/>
      <point x="320" y="229"/>
      <point x="222" y="256" type="curve" smooth="yes"/>
      <point x="132" y="282"/>
      <point x="113" y="310"/>
      <point x="113" y="353" type="curve" smooth="yes"/>
      <point x="113" y="389"/>
      <point x="142" y="419"/>
      <point x="189" y="419" type="curve" smooth="yes"/>
      <point x="248" y="419"/>
      <point x="293" y="390"/>
      <point x="342" y="291" type="curve" smooth="yes"/>
      <point x="344" y="285"/>
      <point x="350" y="282"/>
      <point x="354" y="282" type="curve" smooth="yes"/>
      <point x="360" y="282"/>
      <point x="365" y="287"/>
      <point x="365" y="293" type="curve" smooth="yes"/>
      <point x="365" y="299"/>
      <point x="365" y="306"/>
      <point x="361" y="317" type="curve" smooth="yes"/>
      <point x="338" y="431" type="line" smooth="yes"/>
      <point x="335" y="440"/>
      <point x="331" y="444"/>
      <point x="326" y="444" type="curve" smooth="yes"/>
      <point x="320" y="444"/>
      <point x="316" y="424"/>
      <point x="287" y="424" type="curve" smooth="yes"/>
      <point x="269" y="424"/>
      <point x="237" y="443"/>
      <point x="189" y="443" type="curve" smooth="yes"/>
      <point x="92" y="443"/>
      <point x="35" y="380"/>
      <point x="35" y="309" type="curve" smooth="yes"/>
      <point x="35" y="242"/>
      <point x="74" y="207"/>
      <point x="170" y="179" type="curve" smooth="yes"/>
      <point x="250" y="154"/>
      <point x="278" y="124"/>
      <point x="278" y="79" type="curve" smooth="yes"/>
      <point x="278" y="42"/>
      <point x="251" y="14"/>
    </contour>
  </outline>
</glyph>
<glyph name="t" format="1">
  <advance width="347"/>
  <unicode hex="0074"/>
  <outline>
    <contour>
      <point x="52" y="401" type="line" smooth="yes"/>
      <point x="71" y="393"/>
      <point x="78" y="378"/>
      <point x="78" y="354" type="curve" smooth="yes"/>
      <point x="78" y="109" type="line" smooth="yes"/>
      <point x="78" y="33"/>
      <point x="125" y="-12"/>
      <point x="201" y="-12" type="curve" smooth="yes"/>
      <point x="273" y="-12"/>
      <point x="332" y="35"/>
      <point x="332" y="70" type="curve" smooth="yes"/>
      <point x="332" y="80"/>
      <point x="326" y="89"/>
      <point x="316" y="89" type="curve" smooth="yes"/>
      <point x="308" y="89"/>
      <point x="301" y="86"/>
      <point x="291" y="79" type="curve" smooth="yes"/>
      <point x="278" y="71"/>
      <point x="267" y="67"/>
      <point x="254" y="67" type="curve" smooth="yes"/>
      <point x="214" y="67"/>
      <point x="186" y="92"/>
      <point x="186" y="135" type="curve" smooth="yes"/>
      <point x="186" y="557" type="line" smooth="yes"/>
      <point x="186" y="575"/>
      <point x="175" y="586"/>
      <point x="160" y="586" type="curve" smooth="yes"/>
      <point x="149" y="586"/>
      <point x="134" y="578"/>
      <point x="123" y="558" type="curve" smooth="yes"/>
      <point x="87" y="491" type="line" smooth="yes"/>
      <point x="79" y="476"/>
      <point x="66" y="468"/>
      <point x="50" y="468" type="curve" smooth="yes"/>
      <point x="36" y="468" type="line" smooth="yes"/>
      <point x="16" y="468"/>
      <point x="5" y="457"/>
      <point x="5" y="442" type="curve" smooth="yes"/>
      <point x="5" y="430"/>
      <point x="15" y="419"/>
      <point x="34" y="409" type="curve" smooth="yes"/>
    </contour>
    <contour>
      <point x="117" y="408" type="line"/>
      <point x="117" y="408"/>
      <point x="263" y="408"/>
      <point x="291" y="408" type="curve" smooth="yes"/>
      <point x="312" y="408"/>
      <point x="326" y="417"/>
      <point x="326" y="439" type="curve" smooth="yes"/>
      <point x="326" y="458"/>
      <point x="312" y="468"/>
      <point x="289" y="468" type="curve" smooth="yes"/>
      <point x="270" y="468"/>
      <point x="124" y="468"/>
      <point x="124" y="468" type="curve"/>
    </contour>
  </outline>
</glyph>
<glyph name="u" format="1">
  <advance width="489"/>
  <unicode hex="0075"/>
  <outline>
    <contour>
      <point x="433" y="430" type="line" smooth="yes"/>
      <point x="433" y="439"/>
      <point x="429" y="444"/>
      <point x="422" y="444" type="curve" smooth="yes"/>
      <point x="415" y="444"/>
      <point x="411" y="443"/>
      <point x="401" y="439" type="curve" smooth="yes"/>
      <point x="297" y="394" type="line" smooth="yes"/>
      <point x="291" y="392"/>
      <point x="286" y="388"/>
      <point x="286" y="384" type="curve" smooth="yes"/>
      <point x="286" y="379"/>
      <point x="291" y="375"/>
      <point x="298" y="375" type="curve" smooth="yes"/>
      <point x="330" y="375" type="line" smooth="yes"/>
      <point x="340" y="375"/>
      <point x="342" y="370"/>
      <point x="342" y="359" type="curve" smooth="yes"/>
      <point x="342" y="26" type="line" smooth="yes"/>
      <point x="342" y="10"/>
      <point x="354" y="0"/>
      <point x="371" y="0" type="curve" smooth="yes"/>
      <point x="475" y="0" type="line" smooth="yes"/>
      <point x="484" y="0"/>
      <point x="487" y="4"/>
      <point x="487" y="10" type="curve" smooth="yes"/>
      <point x="487" y="15"/>
      <point x="484" y="17"/>
      <point x="480" y="19" type="curve" smooth="yes"/>
      <point x="448" y="29" type="line" smooth="yes"/>
      <point x="438" y="33"/>
      <point x="433" y="38"/>
      <point x="433" y="51" type="curve" smooth="yes"/>
    </contour>
    <contour>
      <point x="153" y="430" type="line" smooth="yes"/>
      <point x="153" y="438"/>
      <point x="148" y="443"/>
      <point x="141" y="443" type="curve" smooth="yes"/>
      <point x="134" y="443"/>
      <point x="129" y="441"/>
      <point x="119" y="438" type="curve" smooth="yes"/>
      <point x="14" y="394" type="line" smooth="yes"/>
      <point x="7" y="391"/>
      <point x="4" y="389"/>
      <point x="4" y="383" type="curve" smooth="yes"/>
      <point x="4" y="379"/>
      <point x="7" y="375"/>
      <point x="12" y="375" type="curve" smooth="yes"/>
      <point x="49" y="375" type="line" smooth="yes"/>
      <point x="59" y="375"/>
      <point x="62" y="371"/>
      <point x="62" y="361" type="curve" smooth="yes"/>
      <point x="62" y="123" type="line" smooth="yes"/>
      <point x="62" y="43"/>
      <point x="121" y="-6"/>
      <point x="194" y="-6" type="curve" smooth="yes"/>
      <point x="260" y="-6"/>
      <point x="309" y="23"/>
      <point x="355" y="84" type="curve"/>
      <point x="349" y="99" type="line"/>
      <point x="309" y="59"/>
      <point x="271" y="44"/>
      <point x="232" y="44" type="curve" smooth="yes"/>
      <point x="187" y="44"/>
      <point x="153" y="76"/>
      <point x="153" y="138" type="curve" smooth="yes"/>
    </contour>
  </outline>
</glyph>
<glyph name="v" format="1">
  <advance width="526"/>
  <unicode hex="0076"/>
  <outline>
    <contour>
      <point x="251" y="-10" type="curve" smooth="yes"/>
      <point x="280" y="-10" type="line" smooth="yes"/>
      <point x="295" y="-10"/>
      <point x="312" y="-2"/>
      <point x="323" y="24" type="curve" smooth="yes"/>
      <point x="461" y="343" type="line" smooth="yes"/>
      <point x="475" y="376"/>
      <point x="490" y="395"/>
      <point x="501" y="401" type="curve" smooth="yes"/>
      <point x="517" y="411"/>
      <point x="523" y="421"/>
      <point x="523" y="439" type="curve" smooth="yes"/>
      <point x="523" y="456"/>
      <point x="513" y="468"/>
      <point x="494" y="468" type="curve" smooth="yes"/>
      <point x="352" y="468" type="line" smooth="yes"/>
      <point x="334" y="468"/>
      <point x="324" y="460"/>
      <point x="324" y="446" type="curve" smooth="yes"/>
      <point x="324" y="432"/>
      <point x="334" y="424"/>
      <point x="351" y="417" type="curve" smooth="yes"/>
      <point x="381" y="405" type="line" smooth="yes"/>
      <point x="396" y="399"/>
      <point x="403" y="390"/>
      <point x="403" y="378" type="curve" smooth="yes"/>
      <point x="403" y="362"/>
      <point x="398" y="348"/>
      <point x="386" y="320" type="curve" smooth="yes"/>
      <point x="283" y="68" type="line" smooth="yes"/>
      <point x="305" y="63" type="line"/>
      <point x="184" y="358" type="line" smooth="yes"/>
      <point x="179" y="371"/>
      <point x="173" y="380"/>
      <point x="173" y="392" type="curve" smooth="yes"/>
      <point x="173" y="404"/>
      <point x="183" y="408"/>
      <point x="202" y="414" type="curve" smooth="yes"/>
      <point x="223" y="420" type="line" smooth="yes"/>
      <point x="239" y="426"/>
      <point x="249" y="434"/>
      <point x="249" y="448" type="curve" smooth="yes"/>
      <point x="249" y="460"/>
      <point x="240" y="468"/>
      <point x="222" y="468" type="curve" smooth="yes"/>
      <point x="30" y="468" type="line" smooth="yes"/>
      <point x="11" y="468"/>
      <point x="2" y="459"/>
      <point x="2" y="443" type="curve" smooth="yes"/>
      <point x="2" y="427"/>
      <point x="9" y="417"/>
      <point x="25" y="407" type="curve" smooth="yes"/>
      <point x="42" y="397"/>
      <point x="49" y="387"/>
      <point x="58" y="367" type="curve" smooth="yes"/>
      <point x="202" y="29" type="line" smooth="yes"/>
      <point x="214" y="1"/>
      <point x="231" y="-10"/>
    </contour>
  </outline>
</glyph>
<glyph name="w" format="1">
  <advance width="811"/>
  <unicode hex="0077"/>
  <outline>
    <contour>
      <point x="233" y="-10" type="curve" smooth="yes"/>
      <point x="262" y="-10" type="line" smooth="yes"/>
      <point x="280" y="-10"/>
      <point x="291" y="-1"/>
      <point x="302" y="24" type="curve" smooth="yes"/>
      <point x="435" y="323" type="line"/>
      <point x="398" y="381" type="line"/>
      <point x="264" y="68" type="line" smooth="yes"/>
      <point x="290" y="63" type="line"/>
      <point x="180" y="358" type="line" smooth="yes"/>
      <point x="175" y="371"/>
      <point x="169" y="380"/>
      <point x="169" y="392" type="curve" smooth="yes"/>
      <point x="169" y="404"/>
      <point x="179" y="410"/>
      <point x="198" y="415" type="curve" smooth="yes"/>
      <point x="221" y="421" type="line" smooth="yes"/>
      <point x="234" y="424"/>
      <point x="242" y="433"/>
      <point x="242" y="448" type="curve" smooth="yes"/>
      <point x="242" y="462"/>
      <point x="232" y="468"/>
      <point x="215" y="468" type="curve" smooth="yes"/>
      <point x="39" y="468" type="line" smooth="yes"/>
      <point x="15" y="468"/>
      <point x="6" y="458"/>
      <point x="6" y="442" type="curve" smooth="yes"/>
      <point x="6" y="428"/>
      <point x="17" y="419"/>
      <point x="34" y="407" type="curve" smooth="yes"/>
      <point x="44" y="400"/>
      <point x="54" y="391"/>
      <point x="60" y="374" type="curve" smooth="yes"/>
      <point x="190" y="28" type="line" smooth="yes"/>
      <point x="200" y="2"/>
      <point x="214" y="-10"/>
    </contour>
    <contour>
      <point x="582" y="-10" type="line" smooth="yes"/>
      <point x="599" y="-10"/>
      <point x="610" y="-3"/>
      <point x="619" y="21" type="curve" smooth="yes"/>
      <point x="742" y="343" type="line" smooth="yes"/>
      <point x="753" y="372"/>
      <point x="764" y="386"/>
      <point x="782" y="402" type="curve" smooth="yes"/>
      <point x="796" y="415"/>
      <point x="805" y="425"/>
      <point x="805" y="443" type="curve" smooth="yes"/>
      <point x="805" y="458"/>
      <point x="795" y="468"/>
      <point x="771" y="468" type="curve" smooth="yes"/>
      <point x="634" y="468" type="line" smooth="yes"/>
      <point x="618" y="468"/>
      <point x="609" y="461"/>
      <point x="609" y="446" type="curve" smooth="yes"/>
      <point x="609" y="432"/>
      <point x="618" y="425"/>
      <point x="632" y="417" type="curve" smooth="yes"/>
      <point x="659" y="404" type="line" smooth="yes"/>
      <point x="679" y="395"/>
      <point x="682" y="384"/>
      <point x="682" y="372" type="curve" smooth="yes"/>
      <point x="682" y="354"/>
      <point x="676" y="340"/>
      <point x="666" y="311" type="curve" smooth="yes"/>
      <point x="582" y="68" type="line" smooth="yes"/>
      <point x="608" y="63" type="line"/>
      <point x="488" y="352" type="line" smooth="yes"/>
      <point x="481" y="369"/>
      <point x="480" y="377"/>
      <point x="480" y="387" type="curve" smooth="yes"/>
      <point x="480" y="400"/>
      <point x="486" y="408"/>
      <point x="501" y="414" type="curve" smooth="yes"/>
      <point x="518" y="422" type="line" smooth="yes"/>
      <point x="531" y="428"/>
      <point x="538" y="434"/>
      <point x="538" y="448" type="curve" smooth="yes"/>
      <point x="538" y="462"/>
      <point x="527" y="468"/>
      <point x="508" y="468" type="curve" smooth="yes"/>
      <point x="322" y="468" type="line" smooth="yes"/>
      <point x="308" y="468"/>
      <point x="301" y="460"/>
      <point x="301" y="448" type="curve" smooth="yes"/>
      <point x="301" y="436"/>
      <point x="309" y="428"/>
      <point x="329" y="418" type="curve" smooth="yes"/>
      <point x="346" y="409"/>
      <point x="360" y="391"/>
      <point x="367" y="374" type="curve" smooth="yes"/>
      <point x="515" y="26" type="line" smooth="yes"/>
      <point x="526" y="0"/>
      <point x="539" y="-10"/>
      <point x="555" y="-10" type="curve" smooth="yes"/>
    </contour>
  </outline>
</glyph>
<glyph name="x" format="1">
  <advance width="536"/>
  <unicode hex="0078"/>
  <outline>
    <contour>
      <point x="223" y="237" type="line"/>
      <point x="134" y="133" type="line" smooth="yes"/>
      <point x="103" y="97"/>
      <point x="85" y="79"/>
      <point x="52" y="67" type="curve" smooth="yes"/>
      <point x="23" y="57"/>
      <point x="6" y="48"/>
      <point x="6" y="28" type="curve" smooth="yes"/>
      <point x="6" y="11"/>
      <point x="15" y="0"/>
      <point x="39" y="0" type="curve" smooth="yes"/>
      <point x="182" y="0" type="line" smooth="yes"/>
      <point x="201" y="0"/>
      <point x="213" y="8"/>
      <point x="213" y="24" type="curve" smooth="yes"/>
      <point x="213" y="37"/>
      <point x="209" y="43"/>
      <point x="199" y="47" type="curve" smooth="yes"/>
      <point x="184" y="55" type="line" smooth="yes"/>
      <point x="171" y="62"/>
      <point x="165" y="68"/>
      <point x="165" y="79" type="curve" smooth="yes"/>
      <point x="165" y="90"/>
      <point x="175" y="103"/>
      <point x="188" y="119" type="curve" smooth="yes"/>
      <point x="260" y="208" type="line"/>
    </contour>
    <contour>
      <point x="221" y="364" type="line" smooth="yes"/>
      <point x="210" y="377"/>
      <point x="207" y="383"/>
      <point x="207" y="392" type="curve" smooth="yes"/>
      <point x="207" y="404"/>
      <point x="214" y="410"/>
      <point x="221" y="414" type="curve" smooth="yes"/>
      <point x="231" y="420" type="line" smooth="yes"/>
      <point x="244" y="428"/>
      <point x="253" y="433"/>
      <point x="253" y="448" type="curve" smooth="yes"/>
      <point x="253" y="462"/>
      <point x="241" y="468"/>
      <point x="224" y="468" type="curve" smooth="yes"/>
      <point x="39" y="468" type="line" smooth="yes"/>
      <point x="17" y="468"/>
      <point x="8" y="459"/>
      <point x="8" y="443" type="curve" smooth="yes"/>
      <point x="8" y="429"/>
      <point x="16" y="419"/>
      <point x="30" y="416" type="curve" smooth="yes"/>
      <point x="44" y="412"/>
      <point x="59" y="401"/>
      <point x="85" y="372" type="curve"/>
      <point x="315" y="102" type="line" smooth="yes"/>
      <point x="324" y="89"/>
      <point x="328" y="81"/>
      <point x="328" y="72" type="curve" smooth="yes"/>
      <point x="328" y="65"/>
      <point x="325" y="59"/>
      <point x="317" y="54" type="curve" smooth="yes"/>
      <point x="304" y="49" type="line" smooth="yes"/>
      <point x="290" y="42"/>
      <point x="281" y="35"/>
      <point x="281" y="21" type="curve" smooth="yes"/>
      <point x="281" y="7"/>
      <point x="292" y="0"/>
      <point x="309" y="0" type="curve" smooth="yes"/>
      <point x="503" y="0" type="line" smooth="yes"/>
      <point x="526" y="0"/>
      <point x="535" y="10"/>
      <point x="535" y="24" type="curve" smooth="yes"/>
      <point x="535" y="35"/>
      <point x="526" y="47"/>
      <point x="506" y="54" type="curve" smooth="yes"/>
      <point x="490" y="58"/>
      <point x="476" y="65"/>
      <point x="453" y="91" type="curve" smooth="yes"/>
    </contour>
    <contour>
      <point x="305" y="211" type="line"/>
      <point x="435" y="361" type="line" smooth="yes"/>
      <point x="460" y="391"/>
      <point x="476" y="406"/>
      <point x="496" y="414" type="curve" smooth="yes"/>
      <point x="516" y="424"/>
      <point x="529" y="429"/>
      <point x="529" y="444" type="curve" smooth="yes"/>
      <point x="529" y="458"/>
      <point x="518" y="468"/>
      <point x="496" y="468" type="curve" smooth="yes"/>
      <point x="354" y="468" type="line" smooth="yes"/>
      <point x="336" y="468"/>
      <point x="324" y="462"/>
      <point x="324" y="449" type="curve" smooth="yes"/>
      <point x="324" y="439"/>
      <point x="329" y="431"/>
      <point x="341" y="424" type="curve" smooth="yes"/>
      <point x="361" y="414" type="line" smooth="yes"/>
      <point x="373" y="408"/>
      <point x="376" y="398"/>
      <point x="376" y="387" type="curve" smooth="yes"/>
      <point x="376" y="371"/>
      <point x="368" y="358"/>
      <point x="355" y="342" type="curve" smooth="yes"/>
      <point x="272" y="240" type="line"/>
    </contour>
  </outline>
</glyph>
<glyph name="y" format="1">
  <advance width="544"/>
  <unicode hex="0079"/>
  <outline>
    <contour>
      <point x="319" y="65" type="line"/>
      <point x="190" y="349" type="line" smooth="yes"/>
      <point x="184" y="362"/>
      <point x="182" y="371"/>
      <point x="182" y="383" type="curve" smooth="yes"/>
      <point x="182" y="398"/>
      <point x="192" y="407"/>
      <point x="209" y="411" type="curve" smooth="yes"/>
      <point x="229" y="416" type="line" smooth="yes"/>
      <point x="244" y="420"/>
      <point x="253" y="431"/>
      <point x="253" y="446" type="curve" smooth="yes"/>
      <point x="253" y="462"/>
      <point x="240" y="468"/>
      <point x="220" y="468" type="curve" smooth="yes"/>
      <point x="31" y="468" type="line" smooth="yes"/>
      <point x="10" y="468"/>
      <point x="-1" y="457"/>
      <point x="-1" y="440" type="curve" smooth="yes"/>
      <point x="-1" y="426"/>
      <point x="9" y="414"/>
      <point x="26" y="406" type="curve" smooth="yes"/>
      <point x="45" y="397"/>
      <point x="54" y="387"/>
      <point x="63" y="368" type="curve" smooth="yes"/>
      <point x="261" y="-63" type="line"/>
    </contour>
    <contour>
      <point x="224" y="-110" type="line" smooth="yes"/>
      <point x="206" y="-154"/>
      <point x="191" y="-167"/>
      <point x="171" y="-167" type="curve" smooth="yes"/>
      <point x="155" y="-167"/>
      <point x="146" y="-158"/>
      <point x="136" y="-143" type="curve" smooth="yes"/>
      <point x="123" y="-120" type="line" smooth="yes"/>
      <point x="107" y="-92"/>
      <point x="91" y="-81"/>
      <point x="63" y="-81" type="curve" smooth="yes"/>
      <point x="32" y="-81"/>
      <point x="9" y="-104"/>
      <point x="9" y="-144" type="curve" smooth="yes"/>
      <point x="9" y="-202"/>
      <point x="51" y="-245"/>
      <point x="124" y="-245" type="curve" smooth="yes"/>
      <point x="194" y="-245"/>
      <point x="245" y="-209"/>
      <point x="282" y="-119" type="curve" smooth="yes"/>
      <point x="462" y="315" type="line" smooth="yes"/>
      <point x="482" y="363"/>
      <point x="497" y="382"/>
      <point x="516" y="394" type="curve" smooth="yes"/>
      <point x="533" y="405"/>
      <point x="544" y="419"/>
      <point x="544" y="435" type="curve" smooth="yes"/>
      <point x="544" y="456"/>
      <point x="533" y="468"/>
      <point x="507" y="468" type="curve" smooth="yes"/>
      <point x="363" y="468" type="line" smooth="yes"/>
      <point x="347" y="468"/>
      <point x="336" y="460"/>
      <point x="336" y="446" type="curve" smooth="yes"/>
      <point x="336" y="432"/>
      <point x="345" y="423"/>
      <point x="361" y="414" type="curve" smooth="yes"/>
      <point x="381" y="405" type="line" smooth="yes"/>
      <point x="399" y="395"/>
      <point x="408" y="384"/>
      <point x="408" y="361" type="curve" smooth="yes"/>
      <point x="408" y="347"/>
      <point x="407" y="334"/>
      <point x="393" y="299" type="curve" smooth="yes"/>
    </contour>
    <contour>
      <point x="287" y="510" type="move" name="center"/>
    </contour>
  </outline>
</glyph>
<glyph name="z" format="1">
  <advance width="479"/>
  <unicode hex="007A"/>
  <outline>
    <contour>
      <point x="407" y="381" type="line" smooth="yes"/>
      <point x="428" y="411"/>
      <point x="433" y="426"/>
      <point x="433" y="437" type="curve" smooth="yes"/>
      <point x="433" y="455"/>
      <point x="420" y="468"/>
      <point x="394" y="468" type="curve" smooth="yes"/>
      <point x="154" y="468" type="line" smooth="yes"/>
      <point x="132" y="468"/>
      <point x="113" y="483"/>
      <point x="94" y="483" type="curve" smooth="yes"/>
      <point x="78" y="483"/>
      <point x="68" y="474"/>
      <point x="61" y="446" type="curve" smooth="yes"/>
      <point x="42" y="377" type="line" smooth="yes"/>
      <point x="40" y="367"/>
      <point x="38" y="360"/>
      <point x="38" y="351" type="curve" smooth="yes"/>
      <point x="38" y="336"/>
      <point x="49" y="327"/>
      <point x="62" y="327" type="curve" smooth="yes"/>
      <point x="78" y="327"/>
      <point x="90" y="337"/>
      <point x="107" y="360" type="curve" smooth="yes"/>
      <point x="122" y="382" type="line" smooth="yes"/>
      <point x="141" y="408"/>
      <point x="155" y="416"/>
      <point x="181" y="416" type="curve" smooth="yes"/>
      <point x="327" y="416" type="line"/>
      <point x="318" y="438" type="line"/>
      <point x="55" y="79" type="line" smooth="yes"/>
      <point x="40" y="60"/>
      <point x="37" y="45"/>
      <point x="37" y="33" type="curve" smooth="yes"/>
      <point x="37" y="16"/>
      <point x="51" y="-1"/>
      <point x="79" y="-1" type="curve" smooth="yes"/>
      <point x="289" y="-1" type="line" smooth="yes"/>
      <point x="344" y="-1"/>
      <point x="366" y="-15"/>
      <point x="390" y="-15" type="curve" smooth="yes"/>
      <point x="412" y="-15"/>
      <point x="423" y="-5"/>
      <point x="429" y="22" type="curve" smooth="yes"/>
      <point x="450" y="107" type="line" smooth="yes"/>
      <point x="453" y="119"/>
      <point x="453" y="126"/>
      <point x="453" y="133" type="curve" smooth="yes"/>
      <point x="453" y="151"/>
      <point x="443" y="161"/>
      <point x="428" y="161" type="curve" smooth="yes"/>
      <point x="413" y="161"/>
      <point x="403" y="151"/>
      <point x="390" y="130" type="curve" smooth="yes"/>
      <point x="372" y="101" type="line" smooth="yes"/>
      <point x="353" y="69"/>
      <point x="332" y="52"/>
      <point x="292" y="52" type="curve" smooth="yes"/>
      <point x="137" y="52" type="line"/>
      <point x="149" y="29" type="line"/>
    </contour>
  </outline>
</glyph>
<glyph name="bar" format="1">
  <advance width="357"/>
  <unicode hex="007C"/>
  <outline>
    <contour>
      <point x="131" y="701" type="curve" smooth="yes"/>
      <point x="143" y="584"/>
      <point x="152" y="345"/>
      <point x="152" y="265" type="curve" smooth="yes"/>
      <point x="152" y="170"/>
      <point x="143" y="-59"/>
      <point x="131" y="-177" type="curve" smooth="yes"/>
      <point x="130" y="-185"/>
      <point x="130" y="-192"/>
      <point x="130" y="-200" type="curve" smooth="yes"/>
      <point x="130" y="-231"/>
      <point x="150" y="-250"/>
      <point x="178" y="-250" type="curve" smooth="yes"/>
      <point x="206" y="-250"/>
      <point x="223" y="-231"/>
      <point x="223" y="-203" type="curve" smooth="yes"/>
      <point x="223" y="-194"/>
      <point x="223" y="-185"/>
      <point x="222" y="-174" type="curve" smooth="yes"/>
      <point x="214" y="-56"/>
      <point x="203" y="163"/>
      <point x="203" y="263" type="curve" smooth="yes"/>
      <point x="203" y="338"/>
      <point x="210" y="585"/>
      <point x="218" y="700" type="curve" smooth="yes"/>
      <point x="219" y="714"/>
      <point x="219" y="715"/>
      <point x="219" y="717" type="curve" smooth="yes"/>
      <point x="219" y="744"/>
      <point x="202" y="765"/>
      <point x="175" y="765" type="curve" smooth="yes"/>
      <point x="149" y="765"/>
      <point x="131" y="747"/>
      <point x="131" y="715" type="curve" smooth="yes"/>
      <point x="131" y="711"/>
      <point x="131" y="707"/>
    </contour>
  </outline>
</glyph>
<glyph name="currency" format="1">
  <advance width="507"/>
  <unicode hex="00A4"/>
  <outline>
    <contour>
      <point x="252" y="148" type="curve" smooth="yes"/>
      <point x="155" y="148"/>
      <point x="76" y="230"/>
      <point x="76" y="326" type="curve" smooth="yes"/>
      <point x="76" y="423"/>
      <point x="155" y="502"/>
      <point x="252" y="502" type="curve" smooth="yes"/>
      <point x="352" y="502"/>
      <point x="430" y="423"/>
      <point x="430" y="326" type="curve" smooth="yes"/>
      <point x="430" y="230"/>
      <point x="352" y="148"/>
    </contour>
    <contour>
      <point x="253" y="218" type="curve" smooth="yes"/>
      <point x="310" y="218"/>
      <point x="360" y="266"/>
      <point x="360" y="326" type="curve" smooth="yes"/>
      <point x="360" y="386"/>
      <point x="310" y="433"/>
      <point x="253" y="433" type="curve" smooth="yes"/>
      <point x="193" y="433"/>
      <point x="148" y="386"/>
      <point x="148" y="326" type="curve" smooth="yes"/>
      <point x="148" y="266"/>
      <point x="193" y="218"/>
    </contour>
    <contour>
      <point x="58" y="523" type="curve" smooth="yes"/>
      <point x="70" y="534"/>
      <point x="87" y="534"/>
      <point x="100" y="521" type="curve" smooth="yes"/>
      <point x="177" y="444" type="line"/>
      <point x="136" y="403" type="line"/>
      <point x="60" y="479" type="line" smooth="yes"/>
      <point x="47" y="491"/>
      <point x="45" y="510"/>
    </contour>
    <contour>
      <point x="364" y="397" type="line"/>
      <point x="323" y="438" type="line"/>
      <point x="406" y="521" type="line" smooth="yes"/>
      <point x="419" y="534"/>
      <point x="436" y="535"/>
      <point x="449" y="522" type="curve" smooth="yes"/>
      <point x="461" y="510"/>
      <point x="460" y="494"/>
      <point x="447" y="480" type="curve" smooth="yes"/>
    </contour>
    <contour>
      <point x="370" y="250" type="line"/>
      <point x="446" y="175" type="line" smooth="yes"/>
      <point x="459" y="161"/>
      <point x="461" y="144"/>
      <point x="449" y="132" type="curve" smooth="yes"/>
      <point x="435" y="119"/>
      <point x="418" y="120"/>
      <point x="405" y="133" type="curve" smooth="yes"/>
      <point x="332" y="208" type="line"/>
    </contour>
    <contour>
      <point x="58" y="131" type="curve" smooth="yes"/>
      <point x="46" y="144"/>
      <point x="47" y="162"/>
      <point x="60" y="175" type="curve" smooth="yes"/>
      <point x="138" y="253" type="line"/>
      <point x="177" y="210" type="line"/>
      <point x="100" y="133" type="line" smooth="yes"/>
      <point x="87" y="120"/>
      <point x="70" y="120"/>
    </contour>
  </outline>
</glyph>
<glyph name="brokenbar" format="1">
  <advance width="357"/>
  <unicode hex="00A6"/>
  <outline>
    <contour>
      <point x="213" y="728" type="line" smooth="yes"/>
      <point x="213" y="747"/>
      <point x="203" y="765"/>
      <point x="180" y="766" type="curve" smooth="yes"/>
      <point x="157" y="767"/>
      <point x="144" y="748"/>
      <point x="144" y="728" type="curve" smooth="yes"/>
      <point x="144" y="350" type="line" smooth="yes"/>
      <point x="144" y="330"/>
      <point x="157" y="311"/>
      <point x="180" y="312" type="curve" smooth="yes"/>
      <point x="203" y="313"/>
      <point x="213" y="331"/>
      <point x="213" y="350" type="curve" smooth="yes"/>
    </contour>
    <contour>
      <point x="213" y="171" type="line" smooth="yes"/>
      <point x="213" y="190"/>
      <point x="203" y="208"/>
      <point x="180" y="209" type="curve" smooth="yes"/>
      <point x="157" y="210"/>
      <point x="144" y="191"/>
      <point x="144" y="171" type="curve" smooth="yes"/>
      <point x="144" y="-207" type="line" smooth="yes"/>
      <point x="144" y="-227"/>
      <point x="157" y="-246"/>
      <point x="180" y="-245" type="curve" smooth="yes"/>
      <point x="203" y="-244"/>
      <point x="213" y="-226"/>
      <point x="213" y="-207" type="curve" smooth="yes"/>
    </contour>
  </outline>
</glyph>
<glyph name="section" format="1">
  <advance width="544"/>
  <unicode hex="00A7"/>
  <outline>
    <contour>
      <point x="289" y="-183" type="curve" smooth="yes"/>
      <point x="231" y="-183"/>
      <point x="180" y="-155"/>
      <point x="136" y="-77" type="curve" smooth="yes"/>
      <point x="118" y="-47"/>
      <point x="107" y="-37"/>
      <point x="93" y="-37" type="curve" smooth="yes"/>
      <point x="75" y="-37"/>
      <point x="67" y="-48"/>
      <point x="67" y="-66" type="curve" smooth="yes"/>
      <point x="67" y="-77"/>
      <point x="70" y="-92"/>
      <point x="76" y="-110" type="curve" smooth="yes"/>
      <point x="106" y="-215" type="line" smooth="yes"/>
      <point x="112" y="-237"/>
      <point x="120" y="-243"/>
      <point x="130" y="-243" type="curve" smooth="yes"/>
      <point x="144" y="-243"/>
      <point x="155" y="-220"/>
      <point x="171" y="-220" type="curve" smooth="yes"/>
      <point x="189" y="-220"/>
      <point x="232" y="-243"/>
      <point x="287" y="-243" type="curve" smooth="yes"/>
      <point x="409" y="-243"/>
      <point x="485" y="-163"/>
      <point x="485" y="-68" type="curve" smooth="yes"/>
      <point x="485" y="2"/>
      <point x="450" y="62"/>
      <point x="312" y="132" type="curve" smooth="yes"/>
      <point x="177" y="200"/>
      <point x="146" y="248"/>
      <point x="146" y="290" type="curve" smooth="yes"/>
      <point x="146" y="334"/>
      <point x="177" y="363"/>
      <point x="214" y="363" type="curve"/>
      <point x="215" y="414" type="line"/>
      <point x="122" y="414"/>
      <point x="47" y="336"/>
      <point x="47" y="248" type="curve" smooth="yes"/>
      <point x="47" y="169"/>
      <point x="107" y="104"/>
      <point x="227" y="50" type="curve" smooth="yes"/>
      <point x="357" y="-10"/>
      <point x="384" y="-46"/>
      <point x="383" y="-97" type="curve" smooth="yes"/>
      <point x="383" y="-146"/>
      <point x="348" y="-183"/>
    </contour>
    <contour>
      <point x="336" y="102" type="curve"/>
      <point x="340" y="52" type="line"/>
      <point x="439" y="52"/>
      <point x="500" y="126"/>
      <point x="500" y="214" type="curve" smooth="yes"/>
      <point x="500" y="283"/>
      <point x="459" y="345"/>
      <point x="321" y="415" type="curve" smooth="yes"/>
      <point x="195" y="479"/>
      <point x="161" y="520"/>
      <point x="161" y="572" type="curve" smooth="yes"/>
      <point x="161" y="622"/>
      <point x="203" y="655"/>
      <point x="256" y="655" type="curve" smooth="yes"/>
      <point x="309" y="655"/>
      <point x="363" y="628"/>
      <point x="421" y="543" type="curve" smooth="yes"/>
      <point x="435" y="521"/>
      <point x="450" y="508"/>
      <point x="469" y="508" type="curve" smooth="yes"/>
      <point x="488" y="508"/>
      <point x="495" y="519"/>
      <point x="495" y="536" type="curve" smooth="yes"/>
      <point x="495" y="544"/>
      <point x="491" y="558"/>
      <point x="486" y="570" type="curve" smooth="yes"/>
      <point x="439" y="689" type="line" smooth="yes"/>
      <point x="432" y="708"/>
      <point x="420" y="716"/>
      <point x="408" y="716" type="curve" smooth="yes"/>
      <point x="394" y="716"/>
      <point x="387" y="693"/>
      <point x="369" y="693" type="curve" smooth="yes"/>
      <point x="350" y="693"/>
      <point x="313" y="715"/>
      <point x="259" y="715" type="curve" smooth="yes"/>
      <point x="147" y="715"/>
      <point x="59" y="630"/>
      <point x="59" y="537" type="curve" smooth="yes"/>
      <point x="59" y="454"/>
      <point x="108" y="391"/>
      <point x="242" y="328" type="curve" smooth="yes"/>
      <point x="372" y="265"/>
      <point x="407" y="216"/>
      <point x="407" y="177" type="curve" smooth="yes"/>
      <point x="407" y="133"/>
      <point x="380" y="102"/>
    </contour>
  </outline>
</glyph>
<glyph name="logicalnot" format="1">
  <advance width="521"/>
  <unicode hex="00AC"/>
  <outline>
    <contour>
      <point x="417" y="168" type="curve" smooth="yes"/>
      <point x="437" y="168"/>
      <point x="451" y="181"/>
      <point x="451" y="204" type="curve" smooth="yes"/>
      <point x="451" y="383" type="line" smooth="yes"/>
      <point x="451" y="404"/>
      <point x="438" y="416"/>
      <point x="419" y="416" type="curve" smooth="yes"/>
      <point x="397" y="416"/>
      <point x="381" y="402"/>
      <point x="381" y="383" type="curve" smooth="yes"/>
      <point x="381" y="205" type="line" smooth="yes"/>
      <point x="381" y="184"/>
      <point x="396" y="168"/>
    </contour>
    <component base="minus" xOffset="-4" yOffset="80"/>
  </outline>
</glyph>
